# Blender 4.0.2
# www.blender.org
mtllib Cog.mtl
o Gear
v 0.000000 0.100000 -1.000000
v 0.500000 0.100000 -0.866025
v 0.866025 0.100000 -0.500000
v 1.000000 0.100000 0.000000
v 0.866025 0.100000 0.500000
v 0.500000 0.100000 0.866025
v 0.000000 0.100000 1.000000
v -0.500000 0.100000 0.866025
v -0.866025 0.100000 0.500000
v -1.000000 0.100000 0.000000
v -0.866025 0.100000 -0.500000
v -0.500000 0.100000 -0.866025
v 0.187500 0.100000 -0.324760
v 0.000000 0.100000 -0.375000
v 0.324760 0.100000 -0.187500
v 0.375000 0.100000 0.000000
v 0.324760 0.100000 0.187500
v 0.187500 0.100000 0.324760
v 0.000000 0.100000 0.375000
v -0.187500 0.100000 0.324760
v -0.324760 0.100000 0.187500
v -0.375000 0.100000 0.000000
v -0.324760 0.100000 -0.187500
v -0.187500 0.100000 -0.324760
v 0.187500 -0.100000 -0.324760
v 0.000000 -0.100000 -0.375000
v 0.324760 -0.100000 -0.187500
v 0.375000 -0.100000 0.000000
v 0.324760 -0.100000 0.187500
v 0.187500 -0.100000 0.324760
v 0.000000 -0.100000 0.375000
v -0.187500 -0.100000 0.324760
v -0.324760 -0.100000 0.187500
v -0.375000 -0.100000 0.000000
v -0.324760 -0.100000 -0.187500
v -0.187500 -0.100000 -0.324760
v 0.500000 -0.100000 -0.866025
v 0.000000 -0.100000 -1.000000
v 0.866025 -0.100000 -0.500000
v 1.000000 -0.100000 0.000000
v 0.866025 -0.100000 0.500000
v 0.500000 -0.100000 0.866025
v 0.000000 -0.100000 1.000000
v -0.500000 -0.100000 0.866025
v -0.866025 -0.100000 0.500000
v -1.000000 -0.100000 0.000000
v -0.866025 -0.100000 -0.500000
v -0.500000 -0.100000 -0.866025
v -1.168143 0.100000 0.869856
v -0.869856 0.100000 1.168143
v -1.168143 -0.100000 0.869856
v -0.869856 -0.100000 1.168143
v -0.576714 0.100000 1.337389
v -0.169246 0.100000 1.446570
v -0.576714 -0.100000 1.337389
v -0.169246 -0.100000 1.446570
v 0.169246 0.100000 1.446570
v 0.576714 0.100000 1.337389
v 0.169246 -0.100000 1.446570
v 0.576714 -0.100000 1.337389
v 0.869856 0.100000 1.168143
v 1.168143 0.100000 0.869856
v 0.869856 -0.100000 1.168143
v 1.168143 -0.100000 0.869856
v 1.337389 0.100000 0.576714
v 1.446570 0.100000 0.169246
v 1.337389 -0.100000 0.576714
v 1.446570 -0.100000 0.169246
v 1.446570 0.100000 -0.169246
v 1.337389 0.100000 -0.576714
v 1.446570 -0.100000 -0.169246
v 1.337389 -0.100000 -0.576714
v 1.168143 0.100000 -0.869856
v 0.869856 0.100000 -1.168143
v 1.168143 -0.100000 -0.869856
v 0.869856 -0.100000 -1.168143
v 0.576714 0.100000 -1.337389
v 0.169246 0.100000 -1.446570
v 0.576714 -0.100000 -1.337389
v 0.169246 -0.100000 -1.446570
v -0.169246 0.100000 -1.446570
v -0.576714 0.100000 -1.337389
v -0.169246 -0.100000 -1.446570
v -0.576714 -0.100000 -1.337389
v -0.869856 0.100000 -1.168143
v -1.168143 0.100000 -0.869856
v -0.869856 -0.100000 -1.168143
v -1.168143 -0.100000 -0.869856
v -1.337389 0.100000 -0.576714
v -1.446570 0.100000 -0.169246
v -1.337389 -0.100000 -0.576714
v -1.446570 -0.100000 -0.169246
v -1.446570 0.100000 0.169246
v -1.337389 0.100000 0.576714
v -1.446570 -0.100000 0.169246
v -1.337389 -0.100000 0.576714
vn -0.0000 -1.0000 -0.0000
vn -0.0000 1.0000 -0.0000
vn 0.8660 -0.0000 0.5000
vn 0.5000 -0.0000 0.8660
vn -1.0000 -0.0000 -0.0000
vn -0.8660 -0.0000 -0.5000
vn -0.9870 -0.0000 -0.1606
vn -0.0000 -0.0000 1.0000
vn -0.5000 -0.0000 -0.8660
vn 0.9870 -0.0000 0.1606
vn -0.0000 -0.0000 -1.0000
vn 0.5000 -0.0000 -0.8660
vn 0.8660 -0.0000 -0.5000
vn -0.5000 -0.0000 0.8660
vn 1.0000 -0.0000 -0.0000
vn -0.8660 -0.0000 0.5000
vn -0.7071 -0.0000 0.7071
vn 0.6326 -0.0000 0.7745
vn -0.7745 -0.0000 -0.6326
vn -0.2588 -0.0000 0.9659
vn 0.9351 -0.0000 0.3544
vn 0.2588 -0.0000 0.9659
vn 0.9870 -0.0000 -0.1606
vn -0.9351 -0.0000 0.3544
vn 0.7071 -0.0000 0.7071
vn 0.7745 -0.0000 -0.6326
vn -0.6326 -0.0000 0.7745
vn 0.9659 -0.0000 0.2588
vn -0.1606 -0.0000 0.9870
vn 0.3544 -0.0000 -0.9351
vn 0.9659 -0.0000 -0.2588
vn -0.1606 -0.0000 -0.9870
vn 0.3544 -0.0000 0.9351
vn 0.7071 -0.0000 -0.7071
vn -0.6326 -0.0000 -0.7745
vn 0.7745 -0.0000 0.6326
vn 0.2588 -0.0000 -0.9659
vn -0.9351 -0.0000 -0.3544
vn -0.2588 -0.0000 -0.9659
vn 0.9351 -0.0000 -0.3544
vn -0.9870 -0.0000 0.1606
vn -0.7071 -0.0000 -0.7071
vn -0.7745 -0.0000 0.6326
vn 0.6326 -0.0000 -0.7745
vn -0.9659 -0.0000 -0.2588
vn 0.1606 -0.0000 -0.9870
vn -0.3544 -0.0000 0.9351
vn -0.9659 -0.0000 0.2588
vn -0.3544 -0.0000 -0.9351
vn 0.1606 -0.0000 0.9870
vt 0.203999 0.296001
vt 0.127331 0.372669
vt 0.205100 0.417569
vt 0.233162 0.312839
vt 0.203999 0.796001
vt 0.187161 0.766838
vt 0.082430 0.794900
vt 0.127331 0.872669
vt 0.187161 0.733162
vt 0.082430 0.705100
vt 0.203999 0.703999
vt 0.127331 0.627331
vt 0.233162 0.687161
vt 0.205100 0.582431
vt 0.266837 0.687161
vt 0.294900 0.582431
vt 0.296001 0.703999
vt 0.372669 0.627331
vt 0.312838 0.733162
vt 0.417569 0.705100
vt 0.312838 0.766838
vt 0.417569 0.794900
vt 0.296001 0.796001
vt 0.372669 0.872669
vt 0.266837 0.812839
vt 0.294900 0.917569
vt 0.233162 0.812839
vt 0.205100 0.917569
vt 0.294900 0.417569
vt 0.266838 0.312839
vt 0.372669 0.372669
vt 0.296001 0.296001
vt 0.417569 0.294900
vt 0.312839 0.266838
vt 0.417569 0.205100
vt 0.312839 0.233162
vt 0.372669 0.127331
vt 0.296001 0.203999
vt 0.294900 0.082431
vt 0.266838 0.187161
vt 0.205100 0.082431
vt 0.233162 0.187161
vt 0.127331 0.127331
vt 0.203999 0.203999
vt 0.082431 0.205100
vt 0.187161 0.233162
vt 0.082431 0.294900
vt 0.187161 0.266838
vt 0.569392 0.108840
vt 0.604088 0.108840
vt 0.604088 0.092002
vt 0.569392 0.092002
vt 0.500000 0.108840
vt 0.534696 0.108840
vt 0.534696 0.079676
vt 0.500000 0.079676
vt 0.638785 0.520290
vt 0.638785 0.453058
vt 0.604088 0.453058
vt 0.604088 0.520290
vt 0.604088 0.062839
vt 0.569392 0.062839
vt 0.534696 0.046001
vt 0.500000 0.046001
vt 0.500000 0.786591
vt 0.500000 0.713409
vt 0.534696 0.237810
vt 0.534696 0.162268
vt 0.500000 0.162268
vt 0.500000 0.237810
vt 0.534696 0.016838
vt 0.500000 0.016838
vt 0.448211 0.906688
vt 0.484802 0.843312
vt 0.213409 0.500000
vt 0.286591 0.500000
vt 0.534696 -0.000000
vt 0.500000 -0.000000
vt 0.343312 0.984802
vt 0.406688 0.948211
vt 0.051789 0.593312
vt 0.015198 0.656688
vt 0.569392 0.200842
vt 0.604088 0.200842
vt 0.604088 0.171678
vt 0.569392 0.171678
vt -0.000000 0.213409
vt -0.000000 0.286591
vt 0.604088 0.029163
vt 0.569392 0.029163
vt 0.156688 0.515198
vt 0.093311 0.551789
vt 0.604088 0.138003
vt 0.569392 0.138003
vt 0.093311 0.948211
vt 0.156688 0.984802
vt 0.604088 -0.000000
vt 0.569392 0.000000
vt 0.500000 0.286591
vt 0.500000 0.213409
vt 0.604088 0.108840
vt 0.569392 0.108840
vt 0.500000 0.125677
vt 0.534696 0.125677
vt 0.406688 0.551789
vt 0.343312 0.515198
vt 0.534696 0.558942
vt 0.569392 0.558942
vt 0.569392 0.495565
vt 0.534696 0.495565
vt 0.286591 -0.000000
vt 0.213409 -0.000000
vt 0.534696 0.447153
vt 0.569392 0.447153
vt 0.604088 0.283272
vt 0.604088 0.200842
vt 0.569392 0.200842
vt 0.569392 0.283272
vt 0.604088 0.379877
vt 0.638785 0.379877
vt 0.638785 0.306695
vt 0.604088 0.306695
vt 0.484802 0.656688
vt 0.448211 0.593312
vt 0.406688 0.051789
vt 0.343312 0.015198
vt 0.500000 0.573863
vt 0.500000 0.641095
vt 0.534696 0.641095
vt 0.534696 0.573863
vt 0.534696 0.063377
vt 0.569392 0.063377
vt 0.569392 -0.000000
vt 0.534696 -0.000000
vt 0.484802 0.156688
vt 0.448211 0.093312
vt 0.569392 0.365703
vt 0.569392 0.448133
vt 0.604088 0.448133
vt 0.604088 0.365703
vt 0.569392 0.111788
vt 0.534696 0.111788
vt 0.500000 0.386533
vt 0.534696 0.386533
vt 0.534696 0.349942
vt 0.500000 0.349942
vt 0.534696 0.558942
vt 0.534696 0.634484
vt 0.569392 0.634484
vt 0.569392 0.558942
vt 0.534696 0.462074
vt 0.500000 0.462074
vt 0.286591 0.500000
vt 0.213409 0.500000
vt 0.534696 0.223577
vt 0.569392 0.223577
vt 0.569392 0.160200
vt 0.534696 0.160200
vt 0.604088 0.530564
vt 0.604088 0.448133
vt 0.569392 0.448133
vt 0.569392 0.530564
vt 0.534696 0.111788
vt 0.569392 0.111788
vt 0.448211 0.406688
vt 0.484802 0.343312
vt 0.604088 0.453058
vt 0.638785 0.453058
vt 0.638785 0.379877
vt 0.604088 0.379877
vt 0.604088 0.520290
vt 0.604088 0.587523
vt 0.638785 0.587523
vt 0.638785 0.520290
vt 0.343312 0.484802
vt 0.406688 0.448211
vt 0.638785 0.654755
vt 0.638785 0.587522
vt 0.604088 0.587522
vt 0.604088 0.654755
vt 0.500000 0.525451
vt 0.534696 0.525451
vt 0.569392 0.283272
vt 0.604088 0.283272
vt 0.534696 0.573863
vt 0.500000 0.573863
vt -0.000000 0.713409
vt -0.000000 0.786591
vt 0.534696 0.125677
vt 0.500000 0.125677
vt 0.015198 0.843312
vt 0.051789 0.906688
vt 0.093312 0.448211
vt 0.156688 0.484802
vt 0.604088 0.082431
vt 0.604088 0.157972
vt 0.638785 0.157972
vt 0.638785 0.082431
vt 0.534696 0.335365
vt 0.569392 0.335365
vt 0.569392 0.271988
vt 0.534696 0.271988
vt 0.015198 0.343312
vt 0.051789 0.406688
vt 0.604088 0.612994
vt 0.569392 0.612994
vt 0.534696 0.223577
vt 0.569392 0.223577
vt 0.638785 0.233514
vt 0.604088 0.233514
vt 0.638785 -0.000000
vt 0.638785 0.067232
vt 0.673481 0.067232
vt 0.673481 -0.000000
vt 0.673481 0.134465
vt 0.673481 0.067232
vt 0.638785 0.067232
vt 0.638785 0.134465
vt 0.213409 1.000000
vt 0.286591 1.000000
vt 0.534696 0.398742
vt 0.569392 0.398742
vt 0.569392 0.335365
vt 0.534696 0.335365
vt 0.569392 0.447153
vt 0.534696 0.447153
vt 0.051789 0.093312
vt 0.015198 0.156688
vt 0.604088 0.000000
vt 0.638785 0.082431
vt 0.638785 0.000000
vt 0.500000 0.349942
vt 0.534696 0.349942
vt 0.534696 0.313351
vt 0.500000 0.313351
vt 0.638785 0.233514
vt 0.638785 0.157972
vt 0.604088 0.157972
vt 0.604088 0.233514
vt 0.500000 0.237809
vt 0.534696 0.237809
vt 0.156688 0.015198
vt 0.093312 0.051789
s 1
usemtl Cog
f 26/1/1 38/2/1 37/3/1 25/4/1
f 14/5/2 13/6/2 2/7/2 1/8/2
f 13/6/2 15/9/2 3/10/2 2/7/2
f 15/9/2 16/11/2 4/12/2 3/10/2
f 16/11/2 17/13/2 5/14/2 4/12/2
f 17/13/2 18/15/2 6/16/2 5/14/2
f 18/15/2 19/17/2 7/18/2 6/16/2
f 19/17/2 20/19/2 8/20/2 7/18/2
f 20/19/2 21/21/2 9/22/2 8/20/2
f 21/21/2 22/23/2 10/24/2 9/22/2
f 22/23/2 23/25/2 11/26/2 10/24/2
f 23/25/2 24/27/2 12/28/2 11/26/2
f 24/27/2 14/5/2 1/8/2 12/28/2
f 25/4/1 37/3/1 39/29/1 27/30/1
f 27/30/1 39/29/1 40/31/1 28/32/1
f 28/32/1 40/31/1 41/33/1 29/34/1
f 29/34/1 41/33/1 42/35/1 30/36/1
f 30/36/1 42/35/1 43/37/1 31/38/1
f 31/38/1 43/37/1 44/39/1 32/40/1
f 32/40/1 44/39/1 45/41/1 33/42/1
f 33/42/1 45/41/1 46/43/1 34/44/1
f 34/44/1 46/43/1 47/45/1 35/46/1
f 35/46/1 47/45/1 48/47/1 36/48/1
f 36/48/1 48/47/1 38/2/1 26/1/1
f 23/49/3 35/50/3 36/51/4 24/52/4
f 16/53/5 28/54/5 29/55/6 17/56/6
f 44/57/7 55/58/7 53/59/7 8/60/7
f 24/52/4 36/51/4 26/61/8 14/62/8
f 17/56/6 29/55/6 30/63/9 18/64/9
f 9/22/2 49/65/2 50/66/2 8/20/2
f 37/67/10 79/68/10 77/69/10 2/70/10
f 18/64/9 30/63/9 31/71/11 19/72/11
f 10/24/2 93/73/2 94/74/2 9/22/2
f 37/3/1 76/75/1 75/76/1 39/29/1
f 19/72/11 31/71/11 32/77/12 20/78/12
f 11/26/2 89/79/2 90/80/2 10/24/2
f 4/12/2 69/81/2 70/82/2 3/10/2
f 20/83/12 32/84/12 33/85/13 21/86/13
f 47/45/1 88/87/1 87/88/1 48/47/1
f 14/62/8 26/61/8 25/89/14 13/90/14
f 5/14/2 65/91/2 66/92/2 4/12/2
f 21/86/13 33/85/13 34/93/15 22/94/15
f 1/8/2 81/95/2 82/96/2 12/28/2
f 13/90/14 25/89/14 27/97/16 15/98/16
f 41/33/1 64/99/1 63/100/1 42/35/1
f 22/94/15 34/93/15 35/101/3 23/102/3
f 15/103/16 27/104/16 28/54/5 16/53/5
f 7/18/2 57/105/2 58/106/2 6/16/2
f 49/107/17 51/108/17 52/109/17 50/110/17
f 44/39/1 52/111/1 51/112/1 45/41/1
f 8/113/18 50/110/18 52/109/18 44/114/18
f 45/115/19 51/116/19 49/117/19 9/118/19
f 53/119/20 55/120/20 56/121/20 54/122/20
f 8/20/2 53/123/2 54/124/2 7/18/2
f 43/37/1 56/125/1 55/126/1 44/39/1
f 7/127/21 54/128/21 56/129/21 43/130/21
f 57/131/22 59/132/22 60/133/22 58/134/22
f 42/35/1 60/135/1 59/136/1 43/37/1
f 6/137/23 58/138/23 60/139/23 42/140/23
f 43/141/24 59/132/24 57/131/24 7/142/24
f 61/143/25 63/144/25 64/145/25 62/146/25
f 5/147/26 62/148/26 64/149/26 41/150/26
f 42/151/27 63/144/27 61/143/27 6/152/27
f 6/16/2 61/153/2 62/154/2 5/14/2
f 65/155/28 67/156/28 68/157/28 66/158/28
f 41/159/29 67/160/29 65/161/29 5/162/29
f 4/163/30 66/158/30 68/157/30 40/164/30
f 40/31/1 68/165/1 67/166/1 41/33/1
f 69/167/31 71/168/31 72/169/31 70/170/31
f 3/171/32 70/172/32 72/173/32 39/174/32
f 39/29/1 72/175/1 71/176/1 40/31/1
f 40/177/33 71/178/33 69/179/33 4/180/33
f 73/181/34 75/182/34 76/151/34 74/152/34
f 2/183/35 74/137/35 76/140/35 37/184/35
f 39/185/36 75/182/36 73/181/36 3/186/36
f 3/10/2 73/187/2 74/188/2 2/7/2
f 77/69/37 79/68/37 80/189/37 78/190/37
f 2/7/2 77/191/2 78/192/2 1/8/2
f 38/2/1 80/193/1 79/194/1 37/3/1
f 1/195/38 78/196/38 80/197/38 38/198/38
f 81/199/39 83/200/39 84/201/39 82/202/39
f 48/47/1 84/203/1 83/204/1 38/2/1
f 38/205/40 83/159/40 81/162/40 1/206/40
f 12/207/41 82/202/41 84/201/41 48/208/41
f 85/122/42 87/121/42 88/209/42 86/210/42
f 11/211/43 86/212/43 88/213/43 47/214/43
f 48/215/44 87/216/44 85/217/44 12/218/44
f 12/28/2 85/219/2 86/220/2 11/26/2
f 89/221/45 91/222/45 92/223/45 90/224/45
f 47/225/46 91/222/46 89/221/46 11/226/46
f 46/43/1 92/227/1 91/228/1 47/45/1
f 10/229/47 90/195/47 92/230/47 46/231/47
f 93/232/48 95/233/48 96/234/48 94/235/48
f 46/236/49 95/237/49 93/238/49 10/239/49
f 9/240/50 94/235/50 96/234/50 45/241/50
f 45/41/1 96/242/1 95/243/1 46/43/1
