# Blender 4.0.2
# www.blender.org
mtllib Distant Building 0.mtl
o Cube
v 0.836692 2.000000 -1.000000
v 1.000000 0.000000 -1.000000
v 0.836692 2.000000 1.114316
v 1.000000 0.000000 1.000000
v -1.000000 2.000000 1.114316
v -1.000000 0.000000 1.000000
v 1.048992 4.000000 0.853023
v -1.000000 4.000000 0.853023
v 1.048992 4.000000 -1.000000
v 0.902015 6.000000 1.048992
v -1.000000 6.000000 1.048992
v 0.902015 6.000000 -0.853023
v -1.000000 6.000000 -0.853023
v 0.869354 8.000000 1.163308
v -1.000000 8.000000 1.163308
v 0.869354 8.000000 -0.755038
v -1.000000 8.000000 -0.755038
v 1.179639 10.457262 0.820361
v -0.820361 10.440931 0.820361
v 1.179639 10.457262 -0.934677
v -0.820361 10.440931 -0.934677
v 1.000000 0.000000 -3.000000
v 0.836692 2.000000 -3.000000
v 1.048992 4.000000 -3.000000
v -1.000000 5.869354 -3.000000
v 0.902015 5.869354 -3.000000
v 1.000000 0.000000 -4.957420
v 0.836692 2.000000 -4.957420
v 1.048992 4.000000 -4.957420
v -1.000000 5.967339 -4.957420
v 0.902015 5.967339 -4.957420
v 1.000000 0.000000 -6.957420
v -1.000000 0.000000 -6.957420
v 0.836692 2.000000 -6.794113
v -1.000000 2.000000 -6.794113
v -1.000000 4.000000 -6.647135
v 1.048992 4.000000 -6.647135
v -1.000000 6.146977 -6.957420
v 0.902015 6.146977 -6.957420
v -3.000000 0.000000 1.000000
v -3.000000 2.000000 1.114316
v -2.398736 5.869354 -3.000000
v -3.000000 6.000000 -0.853023
v -3.000000 4.000000 0.853023
v -3.000000 6.000000 1.048992
v -2.836692 8.000000 1.163308
v -2.836692 8.000000 -0.755038
v -2.836692 9.673384 0.820361
v -2.836692 9.673384 -0.934677
v -2.398736 2.000000 -3.000000
v -2.398736 0.000000 -3.000000
v -2.398736 4.000000 -3.000000
v -2.398736 2.000000 -4.957420
v -2.398736 0.000000 -4.957420
v -3.000000 6.146977 -6.957420
v -2.398736 5.967339 -4.957420
v -2.398736 4.000000 -4.957420
v -3.000000 2.000000 -6.794113
v -3.000000 0.000000 -6.957420
v -3.000000 4.000000 -6.647135
v -5.000000 0.000000 -1.000000
v -5.000000 0.000000 1.000000
v -4.836692 2.000000 1.114316
v -4.836692 2.000000 -1.000000
v -5.000000 5.869354 -3.000000
v -5.000000 6.000000 -0.853023
v -4.885684 4.000000 0.853023
v -4.885684 4.000000 -1.000000
v -5.000000 6.000000 1.048992
v -4.836692 2.000000 -3.000000
v -5.000000 0.000000 -3.000000
v -4.885684 4.000000 -3.000000
vn -0.0000 0.1295 0.9916
vn -0.0000 -0.0571 0.9984
vn -0.3558 0.9346 -0.0000
vn 0.9967 0.0814 -0.0000
vn 0.9973 0.0733 -0.0000
vn 0.9944 -0.1056 -0.0000
vn -0.0000 0.0489 -0.9988
vn -0.0000 0.9987 0.0500
vn -0.0000 -0.0975 0.9952
vn -0.0000 0.9982 -0.0607
vn -0.0000 0.0733 -0.9973
vn 0.9999 0.0163 -0.0000
vn -0.0082 1.0000 -0.0000
vn -0.0006 0.1387 0.9903
vn 0.0003 -0.0732 -0.9973
vn 0.9921 -0.1253 -0.0000
vn 0.9971 0.0764 0.0019
vn 0.9971 0.0758 -0.0024
vn 0.0175 -0.0877 -0.9960
vn -0.0000 0.0814 -0.9967
vn -0.0000 0.9960 0.0895
vn -0.0000 -0.1430 -0.9897
vn 0.9974 0.0715 0.0035
vn -0.0330 0.1658 0.9856
vn -0.0000 -0.0000 -1.0000
vn -1.0000 -0.0000 -0.0000
vn -0.9967 0.0814 -0.0000
vn -0.9464 -0.0119 0.3227
vn -0.9542 -0.0122 0.2991
vn -0.9502 0.0234 0.3108
vn -0.9997 -0.0245 -0.0000
vn -0.9984 -0.0571 -0.0000
vn -0.9983 -0.0591 0.0019
vn -0.0000 1.0000 -0.0000
vt 0.097007 0.405255
vt 0.098676 0.309759
vt 0.194064 0.311396
vt 0.192395 0.406891
vt -0.000000 0.498955
vt 0.009408 0.403752
vt 0.095388 0.500591
vt 0.190450 0.599359
vt 0.274164 0.599231
vt 0.273991 0.696690
vt 0.190278 0.696819
vt 0.575237 0.498758
vt 0.575239 0.403306
vt 0.676094 0.403306
vt 0.670639 0.498758
vt 0.663628 0.307972
vt 0.575236 0.307972
vt 0.582249 0.212526
vt 0.672977 0.212526
vt 0.000951 0.308083
vt 0.951933 0.991739
vt 0.861294 0.995766
vt 0.857067 0.900472
vt 0.946149 0.896514
vt 0.382146 0.687652
vt 0.382008 0.594240
vt 0.448685 0.594240
vt 0.448823 0.687652
vt 0.009569 0.212901
vt 0.100284 0.214458
vt 0.381881 0.790000
vt 0.291213 0.790000
vt 0.291478 0.687652
vt 0.668246 0.601217
vt 0.668236 0.696597
vt 0.572833 0.696598
vt 0.572843 0.601217
vt 0.586923 0.117115
vt 0.678431 0.117115
vt 0.012746 0.117592
vt 0.101903 0.119121
vt 0.273991 0.503864
vt 0.190278 0.503992
vt -0.000000 0.000000
vt 0.095375 0.002415
vt 0.860447 0.783745
vt 0.955721 0.778733
vt 0.578351 0.000000
vt 0.662069 0.000000
vt 0.479834 0.307972
vt 0.479836 0.403306
vt 0.386465 0.403306
vt 0.386462 0.307972
vt 0.479835 0.218757
vt 0.386464 0.214083
vt 0.479834 0.498758
vt 0.386463 0.498758
vt 0.189503 0.120624
vt 0.195672 0.216094
vt 0.769541 0.904360
vt 0.765985 0.824591
vt 0.291060 0.498757
vt 0.298852 0.403306
vt 0.668225 0.791976
vt 0.572823 0.791976
vt 0.291341 0.594240
vt 0.291060 0.498758
vt 0.381728 0.498758
vt 0.477066 0.498758
vt 0.668225 0.498758
vt 0.572823 0.498759
vt 0.755848 0.696597
vt 0.763628 0.791975
vt 0.765985 0.601216
vt 0.758954 0.498758
vt 0.305861 0.307972
vt 0.291061 0.205514
vt 0.190915 0.040671
vt 0.190776 0.502227
vt 0.890068 0.587928
vt 0.890068 0.683330
vt 0.773775 0.683331
vt 0.771438 0.587929
vt 0.477219 0.790000
vt 0.572823 0.687652
vt 0.572558 0.790000
vt 0.890068 0.778732
vt 0.765985 0.778733
vt 0.769713 0.366210
vt 0.678431 0.367996
vt 0.693219 0.287870
vt 0.776730 0.286237
vt 0.776730 0.461537
vt 0.686225 0.463307
vt 0.284000 0.312939
vt 0.279995 0.408394
vt 0.093159 0.701551
vt 0.093159 0.606150
vt 0.175510 0.606281
vt 0.182505 0.701680
vt -0.000000 0.796988
vt -0.000000 0.701587
vt 0.093159 0.796952
vt -0.000000 0.606186
vt -0.000000 0.517017
vt 0.093159 0.512307
vt 0.190278 0.797078
vt 0.190278 0.503864
vt 0.765985 1.000000
vt 0.779057 0.190755
vt 0.678431 0.190794
vt 0.691024 0.095401
vt 0.779215 0.095368
vt 0.684396 0.286237
vt 0.779582 0.286200
vt 0.874400 0.095331
vt 0.874243 0.190719
vt 0.682065 0.000035
vt 0.772587 0.000000
vt 0.874768 0.006193
vt 0.874768 0.286164
vt 0.286165 0.503864
vt 0.477187 0.880724
vt 0.572525 0.880724
vt 0.890068 0.498758
vt 0.765985 0.498758
vt 0.291060 0.217730
s 0
usemtl Material
f 5/1/1 8/2/1 44/3/1 41/4/1
f 4/5/2 3/6/2 5/1/2 6/7/2
f 19/8/3 21/9/3 49/10/3 48/11/3
f 2/12/4 1/13/4 3/14/4 4/15/4
f 7/16/5 9/17/5 12/18/5 10/19/5
f 3/14/6 1/13/6 9/17/6 7/16/6
f 5/1/1 3/6/1 7/20/1 8/2/1
f 12/21/7 13/22/7 17/23/7 16/24/7
f 25/25/8 30/26/8 56/27/8 42/28/8
f 8/2/9 7/20/9 10/29/9 11/30/9
f 13/31/10 12/32/10 26/33/10 25/25/10
f 36/34/11 35/35/11 58/36/11 60/37/11
f 10/19/12 12/18/12 16/38/12 14/39/12
f 11/30/2 10/29/2 14/40/2 15/41/2
f 20/42/13 21/9/13 19/8/13 18/43/13
f 15/41/14 14/40/14 18/44/14 19/45/14
f 16/24/15 17/23/15 21/46/15 20/47/15
f 14/39/16 16/38/16 20/48/16 18/49/16
f 24/50/6 23/51/6 28/52/6 29/53/6
f 26/54/17 24/50/17 29/53/17 31/55/17
f 23/51/4 22/56/4 27/57/4 28/52/4
f 12/18/18 9/17/18 24/50/18 26/54/18
f 1/13/4 2/12/4 22/56/4 23/51/4
f 9/17/6 1/13/6 23/51/6 24/50/6
f 11/30/2 15/41/2 46/58/2 45/59/2
f 21/46/19 17/23/19 47/60/19 49/61/19
f 28/52/4 27/57/4 32/62/4 34/63/4
f 35/35/20 33/64/20 59/65/20 58/36/20
f 30/26/21 31/66/21 39/67/21 38/68/21
f 30/26/21 38/68/21 55/69/21 56/27/21
f 8/2/9 11/30/9 45/59/9 44/3/9
f 25/25/8 26/33/8 31/66/8 30/26/8
f 38/70/22 36/34/22 60/37/22 55/71/22
f 33/64/20 35/35/20 34/72/20 32/73/20
f 34/72/11 35/35/11 36/34/11 37/74/11
f 37/74/22 36/34/22 38/70/22 39/75/22
f 31/55/23 29/53/23 37/76/23 39/77/23
f 29/53/6 28/52/6 34/63/6 37/76/6
f 15/41/24 19/45/24 48/78/24 46/58/24
f 6/7/2 5/1/2 41/4/2 40/79/2
f 52/80/25 50/81/25 70/82/25 72/83/25
f 43/84/10 42/28/10 65/85/10 66/86/10
f 50/81/25 51/87/25 71/88/25 70/82/25
f 47/89/26 46/90/26 48/91/26 49/92/26
f 43/93/27 45/94/27 46/90/27 47/89/27
f 41/4/1 44/3/1 67/95/1 63/96/1
f 53/97/28 57/98/28 60/99/28 58/100/28
f 51/101/26 50/102/26 53/97/26 54/103/26
f 52/104/26 42/105/26 56/106/26 57/98/26
f 50/102/26 52/104/26 57/98/26 53/97/26
f 54/103/29 53/97/29 58/100/29 59/107/29
f 57/98/30 56/106/30 55/108/30 60/99/30
f 17/23/7 13/22/7 43/109/7 47/60/7
f 13/31/10 25/25/10 42/28/10 43/84/10
f 64/110/31 63/111/31 67/112/31 68/113/31
f 62/114/27 63/111/27 64/110/27 61/115/27
f 64/110/31 68/113/31 72/116/31 70/117/31
f 68/113/32 67/112/32 69/118/32 66/119/32
f 68/113/33 66/119/33 65/120/33 72/116/33
f 61/115/27 64/110/27 70/117/27 71/121/27
f 40/79/2 41/4/2 63/96/2 62/122/2
f 45/123/34 43/84/34 66/86/34 69/124/34
f 42/125/25 52/80/25 72/83/25 65/126/25
f 44/3/9 45/59/9 69/127/9 67/95/9
