# Blender 4.0.2
# www.blender.org
mtllib Distant Building 1.mtl
o Cube
v -1.000000 0.000000 1.000000
v -1.000000 2.000000 0.824975
v -1.000000 0.000000 -1.000000
v -1.164953 2.000000 -0.855358
v 1.000000 0.000000 1.000000
v 1.000000 2.000000 0.824975
v 1.232777 0.000000 -1.000000
v 1.232777 2.000000 -1.000000
v -3.000000 0.000000 -1.000000
v -3.000000 0.000000 1.000000
v -2.731027 2.000000 0.710716
v -2.731027 2.000000 -0.855358
v -1.000000 2.000000 -1.716257
v -1.000000 0.000000 -2.000000
v 1.000000 0.000000 -2.000000
v 1.000000 2.000000 -1.716257
v 1.684950 2.000000 -1.000000
v 2.000000 0.000000 -1.000000
v 2.000000 0.000000 1.000000
v 1.684950 2.000000 1.000000
v -0.879220 3.764746 1.153048
v -1.117948 3.764746 -1.099454
v 1.232777 4.000000 -1.000000
v 1.000000 4.000000 1.265118
v -2.896023 4.000000 1.100193
v -3.106809 4.000000 -0.888669
v -1.000000 4.000000 -2.000000
v 1.000000 4.000000 -2.000000
v 2.000000 4.063123 -1.000000
v 2.000000 4.063123 1.000000
v -1.000000 6.000000 1.293002
v -1.000000 6.000000 -1.000000
v 1.000000 6.000000 -1.000000
v 1.000000 6.000000 1.293002
v -0.985768 6.152535 -2.446429
v 0.985768 6.152535 -2.110209
v -1.091074 8.000000 0.830925
v -0.899054 8.000000 -1.094463
v 1.091074 8.000000 -0.895986
v 0.899054 8.000000 1.029401
v -1.027173 9.462135 1.677670
v -1.240265 9.780859 -1.027173
v 1.027173 10.000000 -1.240265
v 1.240265 9.681276 1.464578
vn -0.0000 0.0721 -0.9974
vn -0.9886 -0.1389 0.0586
vn -0.1033 0.0354 0.9940
vn -0.0000 0.0872 0.9962
vn 0.9650 -0.0186 -0.2618
vn -0.9911 0.1333 -0.0000
vn -0.0304 0.1173 0.9926
vn -0.0642 -0.0789 -0.9948
vn -0.0000 0.1405 -0.9901
vn -0.9956 -0.0316 -0.0883
vn 0.9650 0.0186 -0.2618
vn 0.9878 0.1556 -0.0000
vn 0.9885 -0.1510 -0.0000
vn -0.0000 -0.0000 -1.0000
vn -0.9986 -0.0034 0.0524
vn 0.9970 0.0577 0.0509
vn 0.1162 0.9932 -0.0123
vn -0.0718 0.9974 -0.0039
vn -0.0162 -0.1994 0.9798
vn -0.0555 -0.1876 0.9807
vn -0.9871 -0.0101 -0.1599
vn -0.0000 -0.1405 -0.9901
vn 0.0572 -0.1119 0.9921
vn -0.0100 0.9929 0.1185
vn 0.9990 0.0043 0.0455
vn -0.9983 0.0260 -0.0519
vn 0.0837 -0.1278 -0.9883
vn -0.0264 -0.0403 0.9988
vn 0.9921 0.0560 -0.1121
vn 0.0227 -0.3800 0.9247
vn -0.9990 -0.0039 -0.0455
vn -0.0489 0.1760 0.9832
vn 0.0497 -0.0000 -0.9988
vn -0.0840 0.9888 0.1231
vn 0.0003 -0.0730 -0.9973
vn 0.9971 -0.0749 -0.0097
vn -0.9964 -0.0848 -0.0013
vt 0.625000 0.250000
vt 0.375000 0.250000
vt 0.625000 0.000000
vt 0.625000 0.750000
vt 0.375000 0.750000
vt 0.625000 1.000000
vt 0.375000 1.000000
vt 0.625000 0.500000
vt 0.375000 0.000000
vt 0.375000 0.500000
vt 0.875000 0.500000
vt 0.875000 0.750000
s 0
f 4/1/1 3/2/1 9/2/1 12/1/1
f 12/1/2 11/3/2 25/3/2 26/1/2
f 6/4/3 5/5/3 19/5/3 20/4/3
f 5/5/4 6/4/4 2/6/4 1/7/4
f 8/8/5 16/8/5 28/8/5 23/8/5
f 10/9/6 11/3/6 12/1/6 9/2/6
f 1/7/7 2/6/7 11/6/7 10/7/7
f 4/1/8 12/1/8 26/1/8 22/1/8
f 14/2/9 13/1/9 16/8/9 15/10/9
f 3/2/10 4/1/10 13/1/10 14/2/10
f 8/8/11 7/10/11 15/10/11 16/8/11
f 18/10/12 17/8/12 20/4/12 19/5/12
f 20/4/13 17/8/13 29/8/13 30/4/13
f 7/10/14 8/8/14 17/8/14 18/10/14
f 22/11/15 21/12/15 31/12/15 32/11/15
f 24/4/16 23/8/16 33/8/16 34/4/16
f 21/12/17 22/11/17 26/11/17 25/12/17
f 23/8/18 24/4/18 30/4/18 29/8/18
f 2/6/19 6/4/19 24/4/19 21/6/19
f 17/8/14 8/8/14 23/8/14 29/8/14
f 11/6/20 2/6/20 21/6/20 25/6/20
f 13/1/21 4/1/21 22/1/21 27/1/21
f 16/8/22 13/1/22 27/1/22 28/8/22
f 6/4/23 20/4/23 30/4/23 24/4/23
f 32/11/24 33/8/24 36/8/24 35/11/24
f 34/4/25 33/8/25 39/8/25 40/4/25
f 27/1/26 22/1/26 32/1/26 35/1/26
f 28/8/27 27/1/27 35/1/27 36/8/27
f 21/6/28 24/4/28 34/4/28 31/6/28
f 23/8/29 28/8/29 36/8/29 33/8/29
f 37/6/30 40/4/30 44/4/30 41/6/30
f 32/11/31 31/12/31 37/12/31 38/11/31
f 31/6/32 34/4/32 40/4/32 37/6/32
f 33/8/33 32/11/33 38/11/33 39/8/33
f 43/8/34 42/11/34 41/12/34 44/4/34
f 39/8/35 38/11/35 42/11/35 43/8/35
f 40/4/36 39/8/36 43/8/36 44/4/36
f 38/11/37 37/12/37 41/12/37 42/11/37
