# Blender 4.0.2
# www.blender.org
mtllib Distant Building 2.mtl
o Cube
v -1.093760 0.000000 -0.906240
v -1.058715 2.000000 -0.846389
v -1.093760 0.000000 -1.093760
v -1.058715 2.000000 -1.033909
v -0.906240 0.000000 -0.906240
v -0.871194 2.000000 -0.846389
v -0.906240 0.000000 -1.093760
v -0.871194 2.000000 -1.033909
v -1.093760 4.000000 -0.906240
v -1.093760 4.000000 -1.093760
v -0.906240 4.000000 -1.093760
v -0.906240 4.000000 -0.906240
v -1.093760 6.000000 -0.906240
v -1.093760 6.000000 -1.093760
v -0.906240 6.000000 -1.093760
v -0.906240 6.000000 -0.906240
v 1.119691 -0.000000 -0.953948
v 1.093760 2.000000 -0.906240
v 1.119691 -0.000000 -1.141468
v 1.093760 2.000000 -1.093760
v 0.932171 -0.000000 -0.953948
v 0.906240 2.000000 -0.906240
v 0.932171 -0.000000 -1.141468
v 0.906240 2.000000 -1.093760
v 1.135245 4.000000 -0.947058
v 1.135245 4.000000 -1.134578
v 0.947724 4.000000 -1.134578
v 0.947724 4.000000 -0.947058
v 1.093760 6.000000 -0.906240
v 1.093760 6.000000 -1.093760
v 0.906240 6.000000 -1.093760
v 0.906240 6.000000 -0.906240
v -1.093760 0.000000 0.906240
v -1.137034 2.000000 0.964082
v -1.093760 0.000000 1.093760
v -1.137034 2.000000 1.151603
v -0.906240 0.000000 0.906240
v -0.949514 2.000000 0.964082
v -0.906240 0.000000 1.093760
v -0.949514 2.000000 1.151603
v -1.027056 4.000000 0.879555
v -1.027056 4.000000 1.067076
v -0.839535 4.000000 1.067076
v -0.839535 4.000000 0.879555
v -1.093760 6.000000 0.906240
v -1.093760 6.000000 1.093760
v -0.906240 6.000000 1.093760
v -0.906240 6.000000 0.906240
v 1.025405 0.000000 0.848002
v 1.093760 2.000000 0.906240
v 1.025405 0.000000 1.035522
v 1.093760 2.000000 1.093760
v 0.837884 0.000000 0.848002
v 0.906240 2.000000 0.906240
v 0.837884 0.000000 1.035522
v 0.906240 2.000000 1.093760
v 1.093760 4.000000 0.906240
v 1.093760 4.000000 1.093760
v 0.906240 4.000000 1.093760
v 0.906240 4.000000 0.906240
v 1.093760 6.000000 0.906240
v 1.093760 6.000000 1.093760
v 0.906240 6.000000 1.093760
v 0.906240 6.000000 0.906240
v -1.000000 1.447185 -0.938620
v -1.000000 1.678667 -0.938620
v -1.000000 1.447185 -1.061380
v -1.000000 1.678667 -1.061380
v 1.000000 1.447185 -0.938620
v 1.000000 1.678667 -0.938620
v 1.000000 1.447185 -1.061380
v 1.000000 1.678667 -1.061380
v 0.000000 1.447185 -1.061380
v 0.000000 1.678667 -1.061380
v 0.000000 1.447185 -0.938620
v 0.000000 1.678667 -0.938620
v -1.000000 2.447185 -0.938620
v -1.000000 2.678667 -0.938620
v -1.000000 2.447185 -1.061380
v -1.000000 2.678667 -1.061380
v 1.000000 2.447185 -0.938620
v 1.000000 2.678667 -0.938620
v 1.000000 2.447185 -1.061380
v 1.000000 2.678667 -1.061380
v 0.000000 2.353193 -1.061380
v 0.000000 2.584675 -1.061380
v 0.000000 2.353193 -0.938620
v 0.000000 2.584675 -0.938620
v -1.000000 1.447185 0.938620
v -1.000000 1.678667 0.938620
v -1.000000 1.447185 1.061380
v -1.000000 1.678667 1.061380
v 1.000000 1.447185 0.938620
v 1.000000 1.678667 0.938620
v 1.000000 1.447185 1.061380
v 1.000000 1.678667 1.061380
v 0.000000 1.447185 1.061380
v 0.000000 1.678667 1.061380
v 0.000000 1.447185 0.938620
v 0.000000 1.678667 0.938620
v -1.000000 2.447185 0.938620
v -1.000000 2.678667 0.938620
v -1.000000 2.447185 1.061380
v -1.000000 2.678667 1.061380
v 1.000000 2.447185 0.938620
v 1.000000 2.678667 0.938620
v 1.000000 2.447185 1.061380
v 1.000000 2.678667 1.061380
v 0.000000 2.590437 1.061380
v 0.000000 2.821919 1.061380
v 0.000000 2.590437 0.938620
v 0.000000 2.821919 0.938620
v -0.938620 1.447185 1.000000
v -0.938620 1.678667 1.000000
v -1.061380 1.447185 1.000000
v -1.061380 1.678667 1.000000
v -0.938620 1.447185 -1.000000
v -0.938620 1.678667 -1.000000
v -1.061380 1.447185 -1.000000
v -1.061380 1.678667 -1.000000
v -1.061380 1.353193 0.000000
v -1.061380 1.584675 0.000000
v -0.938620 1.353193 0.000000
v -0.938620 1.584675 0.000000
v -0.938620 2.447185 1.000000
v -0.938620 2.678667 1.000000
v -1.061380 2.447185 1.000000
v -1.061380 2.678667 1.000000
v -0.938620 2.447185 -1.000000
v -0.938620 2.678667 -1.000000
v -1.061380 2.447185 -1.000000
v -1.061380 2.678667 -1.000000
v -1.061380 2.447185 0.000000
v -1.061380 2.678667 0.000000
v -0.938620 2.447185 0.000000
v -0.938620 2.678667 0.000000
v 0.938620 1.447185 1.000000
v 0.938620 1.678667 1.000000
v 1.061380 1.447185 1.000000
v 1.061380 1.678667 1.000000
v 0.938620 1.447185 -1.000000
v 0.938620 1.678667 -1.000000
v 1.061380 1.447185 -1.000000
v 1.061380 1.678667 -1.000000
v 1.061380 1.547262 0.000000
v 1.061380 1.778745 0.000000
v 0.938620 1.547262 -0.000000
v 0.938620 1.778745 -0.000000
v 0.938620 2.447185 1.000000
v 0.938620 2.678667 1.000000
v 1.061380 2.447185 1.000000
v 1.061380 2.678667 1.000000
v 0.938620 2.447185 -1.000000
v 0.938620 2.678667 -1.000000
v 1.061380 2.447185 -1.000000
v 1.061380 2.678667 -1.000000
v 1.061380 2.353193 0.000000
v 1.061380 2.584675 0.000000
v 0.938620 2.353193 -0.000000
v 0.938620 2.584675 -0.000000
v -1.000000 5.029109 -0.938620
v -1.000000 5.260591 -0.938620
v -1.000000 5.029109 -1.061380
v -1.000000 5.260591 -1.061380
v 1.000000 5.029109 -0.938620
v 1.000000 5.260591 -0.938620
v 1.000000 5.029109 -1.061380
v 1.000000 5.260591 -1.061380
v 0.000000 5.108580 -1.061380
v 0.000000 5.340063 -1.061380
v 0.000000 5.108580 -0.938620
v 0.000000 5.340063 -0.938620
v -1.000000 5.029109 0.938620
v -1.000000 5.260591 0.938620
v -1.000000 5.029109 1.061380
v -1.000000 5.260591 1.061380
v 1.000000 5.029109 0.938620
v 1.000000 5.260591 0.938620
v 1.000000 5.029109 1.061380
v 1.000000 5.260591 1.061380
v 0.000000 4.935117 1.061380
v 0.000000 5.166599 1.061380
v 0.000000 4.935117 0.938620
v 0.000000 5.166599 0.938620
v -0.938620 5.029109 1.000000
v -0.938620 5.260591 1.000000
v -1.061380 5.029109 1.000000
v -1.061380 5.260591 1.000000
v -0.938620 5.029109 -1.000000
v -0.938620 5.260591 -1.000000
v -1.061380 5.029109 -1.000000
v -1.061380 5.260591 -1.000000
v -1.061380 5.029109 0.000000
v -1.061380 5.260591 0.000000
v -0.938620 5.029109 0.000000
v -0.938620 5.260591 0.000000
v 0.938620 5.029109 1.000000
v 0.938620 5.260591 1.000000
v 1.061380 5.029109 1.000000
v 1.061380 5.260591 1.000000
v 0.938620 5.029109 -1.000000
v 0.938620 5.260591 -1.000000
v 1.061380 5.029109 -1.000000
v 1.061380 5.260591 -1.000000
v 1.061380 4.935117 0.000000
v 1.061380 5.166599 0.000000
v 0.938620 4.935117 -0.000000
v 0.938620 5.166599 -0.000000
v -1.163027 5.886265 1.159318
v -1.293058 6.064593 1.286059
v -1.157781 5.916103 -1.167087
v -1.287245 6.097656 -1.291703
v 1.161928 5.898691 1.165681
v 1.283098 6.208959 1.293109
v 1.167174 5.960402 -1.160724
v 1.288911 6.277338 -1.284653
v -1.038925 6.000000 0.000000
v -1.231606 9.089363 -0.056436
v 1.038925 6.000000 0.000000
v 1.231606 8.910637 0.056436
v 0.426165 6.000000 0.936664
v -0.426165 6.000000 0.936664
v -0.560182 8.981002 1.088562
v 0.450222 8.907689 1.134862
v -0.426165 6.000000 -0.936664
v 0.426165 6.000000 -0.936664
v 0.560182 9.018998 -1.088562
v -0.450222 9.092311 -1.134862
vn -0.9998 0.0175 -0.0000
vn -0.0000 0.0299 -0.9996
vn 0.9998 -0.0175 -0.0000
vn -0.0000 -0.0299 0.9996
vn 0.9998 0.0175 -0.0000
vn 1.0000 -0.0000 -0.0000
vn -0.9998 -0.0175 -0.0000
vn -0.0000 0.0299 0.9996
vn -0.0000 -0.0299 -0.9996
vn -0.0000 1.0000 -0.0000
vn -1.0000 -0.0000 -0.0000
vn -0.0000 -0.0000 1.0000
vn -0.0000 -0.0000 -1.0000
vn 0.9999 0.0130 -0.0000
vn -0.0000 0.0238 -0.9997
vn -0.9999 -0.0130 -0.0000
vn -0.0000 -0.0238 0.9997
vn -0.9998 0.0207 -0.0000
vn -0.9998 -0.0207 -0.0000
vn 0.9998 -0.0207 -0.0000
vn -0.0000 0.0204 0.9998
vn -0.0000 -0.0204 -0.9998
vn 0.9998 0.0207 -0.0000
vn -0.0000 -0.0204 0.9998
vn -0.0000 0.0204 -0.9998
vn -0.9998 -0.0216 -0.0000
vn -0.0000 -0.0289 0.9996
vn 0.9998 0.0216 -0.0000
vn -0.0000 0.0289 -0.9996
vn 0.9985 -0.0549 -0.0000
vn 0.9994 0.0333 -0.0000
vn -0.9985 0.0549 -0.0000
vn -0.0000 -0.0422 -0.9991
vn -0.0000 0.0422 0.9991
vn -0.9994 -0.0333 -0.0000
vn -0.0000 0.0133 -0.9999
vn -0.0000 -0.0133 0.9999
vn 0.9994 -0.0342 -0.0000
vn -0.0000 -0.0291 0.9996
vn -0.9994 0.0342 -0.0000
vn -0.0000 0.0291 -0.9996
vn -0.8111 -0.5848 -0.0093
vn 0.0228 -0.4458 -0.8948
vn 0.9325 -0.3611 -0.0075
vn 0.0123 -0.4613 0.8872
vn 0.0122 -0.9997 -0.0196
vn 0.8211 -0.0554 0.5680
vn 0.8485 -0.0552 -0.5263
vn 0.0698 0.9961 0.0533
vn -0.8511 -0.0540 0.5222
vn -0.8212 -0.0522 -0.5682
vn -0.0272 -0.0598 0.9978
vn 0.0225 -0.0576 -0.9981
vn -0.0000 -1.0000 -0.0000
vt 0.375000 0.000000
vt 0.625000 0.000000
vt 0.625000 0.250000
vt 0.375000 0.250000
vt 0.625000 0.500000
vt 0.375000 0.500000
vt 0.625000 0.750000
vt 0.375000 0.750000
vt 0.625000 1.000000
vt 0.375000 1.000000
vt 0.875000 0.500000
vt 0.875000 0.750000
vt 0.375000 0.375000
vt 0.625000 0.375000
vt 0.375000 0.875000
vt 0.625000 0.875000
vt 0.125000 0.500000
vt 0.125000 0.750000
vt 0.625000 0.924664
vt 0.375000 0.924664
vt 0.375000 0.575336
vt 0.625000 0.575336
vt 0.700336 0.500000
vt 0.875000 0.674664
vt 0.799664 0.750000
vt 0.375000 0.075336
vt 0.625000 0.075336
vt 0.625000 0.424664
vt 0.375000 0.424664
vt 0.299664 0.500000
vt 0.200336 0.750000
vt 0.125000 0.674664
s 0
f 1/1/1 2/2/1 4/3/1 3/4/1
f 3/4/2 4/3/2 8/5/2 7/6/2
f 7/6/3 8/5/3 6/7/3 5/8/3
f 5/8/4 6/7/4 2/9/4 1/10/4
f 6/7/5 8/5/5 11/5/5 12/7/5
f 12/7/6 11/5/6 15/5/6 16/7/6
f 4/3/7 2/2/7 9/2/7 10/3/7
f 2/9/8 6/7/8 12/7/8 9/9/8
f 8/5/9 4/3/9 10/3/9 11/5/9
f 15/5/10 14/11/10 13/12/10 16/7/10
f 10/3/11 9/2/11 13/2/11 14/3/11
f 9/9/12 12/7/12 16/7/12 13/9/12
f 11/5/13 10/3/13 14/3/13 15/5/13
f 17/1/14 19/4/14 20/3/14 18/2/14
f 19/4/15 23/6/15 24/5/15 20/3/15
f 23/6/16 21/8/16 22/7/16 24/5/16
f 21/8/17 17/10/17 18/9/17 22/7/17
f 22/7/18 28/7/18 27/5/18 24/5/18
f 28/7/19 32/7/19 31/5/19 27/5/19
f 20/3/20 26/3/20 25/2/20 18/2/20
f 18/9/21 25/9/21 28/7/21 22/7/21
f 24/5/22 27/5/22 26/3/22 20/3/22
f 31/5/10 32/7/10 29/12/10 30/11/10
f 26/3/23 30/3/23 29/2/23 25/2/23
f 25/9/24 29/9/24 32/7/24 28/7/24
f 27/5/25 31/5/25 30/3/25 26/3/25
f 33/1/26 35/4/26 36/3/26 34/2/26
f 35/4/27 39/6/27 40/5/27 36/3/27
f 39/6/28 37/8/28 38/7/28 40/5/28
f 37/8/29 33/10/29 34/9/29 38/7/29
f 38/7/30 44/7/30 43/5/30 40/5/30
f 44/7/31 48/7/31 47/5/31 43/5/31
f 36/3/32 42/3/32 41/2/32 34/2/32
f 34/9/33 41/9/33 44/7/33 38/7/33
f 40/5/34 43/5/34 42/3/34 36/3/34
f 47/5/10 48/7/10 45/12/10 46/11/10
f 42/3/35 46/3/35 45/2/35 41/2/35
f 41/9/36 45/9/36 48/7/36 44/7/36
f 43/5/37 47/5/37 46/3/37 42/3/37
f 49/1/38 50/2/38 52/3/38 51/4/38
f 51/4/39 52/3/39 56/5/39 55/6/39
f 55/6/40 56/5/40 54/7/40 53/8/40
f 53/8/41 54/7/41 50/9/41 49/10/41
f 54/7/11 56/5/11 59/5/11 60/7/11
f 60/7/11 59/5/11 63/5/11 64/7/11
f 52/3/6 50/2/6 57/2/6 58/3/6
f 50/9/13 54/7/13 60/7/13 57/9/13
f 56/5/12 52/3/12 58/3/12 59/5/12
f 63/5/10 62/11/10 61/12/10 64/7/10
f 58/3/6 57/2/6 61/2/6 62/3/6
f 57/9/13 60/7/13 64/7/13 61/9/13
f 59/5/12 58/3/12 62/3/12 63/5/12
f 73/13/13 74/14/13 72/5/13 71/6/13
f 75/15/12 76/16/12 66/9/12 65/10/12
f 69/8/12 70/7/12 76/16/12 75/15/12
f 67/4/13 68/3/13 74/14/13 73/13/13
f 85/13/13 86/14/13 84/5/13 83/6/13
f 87/15/12 88/16/12 78/9/12 77/10/12
f 81/8/12 82/7/12 88/16/12 87/15/12
f 79/4/13 80/3/13 86/14/13 85/13/13
f 97/13/12 95/6/12 96/5/12 98/14/12
f 99/15/13 89/10/13 90/9/13 100/16/13
f 93/8/13 99/15/13 100/16/13 94/7/13
f 91/4/12 97/13/12 98/14/12 92/3/12
f 109/13/12 107/6/12 108/5/12 110/14/12
f 111/15/13 101/10/13 102/9/13 112/16/13
f 105/8/13 111/15/13 112/16/13 106/7/13
f 103/4/12 109/13/12 110/14/12 104/3/12
f 121/13/11 122/14/11 120/5/11 119/6/11
f 123/15/6 124/16/6 114/9/6 113/10/6
f 117/8/6 118/7/6 124/16/6 123/15/6
f 115/4/11 116/3/11 122/14/11 121/13/11
f 133/13/11 134/14/11 132/5/11 131/6/11
f 135/15/6 136/16/6 126/9/6 125/10/6
f 129/8/6 130/7/6 136/16/6 135/15/6
f 127/4/11 128/3/11 134/14/11 133/13/11
f 145/13/6 143/6/6 144/5/6 146/14/6
f 147/15/11 137/10/11 138/9/11 148/16/11
f 141/8/11 147/15/11 148/16/11 142/7/11
f 139/4/6 145/13/6 146/14/6 140/3/6
f 157/13/6 155/6/6 156/5/6 158/14/6
f 159/15/11 149/10/11 150/9/11 160/16/11
f 153/8/11 159/15/11 160/16/11 154/7/11
f 151/4/6 157/13/6 158/14/6 152/3/6
f 169/13/13 170/14/13 168/5/13 167/6/13
f 171/15/12 172/16/12 162/9/12 161/10/12
f 165/8/12 166/7/12 172/16/12 171/15/12
f 163/4/13 164/3/13 170/14/13 169/13/13
f 181/13/12 179/6/12 180/5/12 182/14/12
f 183/15/13 173/10/13 174/9/13 184/16/13
f 177/8/13 183/15/13 184/16/13 178/7/13
f 175/4/12 181/13/12 182/14/12 176/3/12
f 193/13/11 194/14/11 192/5/11 191/6/11
f 195/15/6 196/16/6 186/9/6 185/10/6
f 189/8/6 190/7/6 196/16/6 195/15/6
f 187/4/11 188/3/11 194/14/11 193/13/11
f 205/13/6 203/6/6 204/5/6 206/14/6
f 207/15/11 197/10/11 198/9/11 208/16/11
f 201/8/11 207/15/11 208/16/11 202/7/11
f 199/4/6 205/13/6 206/14/6 200/3/6
f 209/1/42 210/2/42 212/3/42 211/4/42
f 211/4/43 212/3/43 216/5/43 215/6/43
f 215/6/44 216/5/44 214/7/44 213/8/44
f 213/8/45 214/7/45 210/9/45 209/10/45
f 211/17/46 215/6/46 213/8/46 209/18/46
f 219/8/47 220/7/47 224/19/47 221/20/47
f 226/21/48 227/22/48 220/7/48 219/8/48
f 227/22/49 228/23/49 218/11/49 223/24/49 224/25/49 220/7/49
f 222/26/50 223/27/50 218/3/50 217/4/50
f 217/4/51 218/3/51 228/28/51 225/29/51
f 221/1/52 224/2/52 223/27/52 222/26/52
f 227/22/53 226/21/53 225/29/53 228/28/53
f 217/17/54 225/30/54 226/21/54 219/8/54 221/31/54 222/32/54
