# Blender 4.0.2
# www.blender.org
mtllib Flowerbox 1.mtl
o Cube
v 1.394480 1.986823 -4.760857
v 0.892906 0.013732 -4.847289
v 1.394480 1.986823 4.760857
v 0.892906 0.013732 4.847289
v -1.394480 1.986823 -4.760857
v -0.892906 0.013732 -4.847289
v -1.394480 1.986823 4.760857
v -0.892906 0.013732 4.847289
v 1.497253 1.986823 4.847289
v -1.497253 1.986823 4.847289
v 1.497253 1.986823 -4.847289
v -1.497253 1.986823 -4.847289
v 0.883733 0.095120 4.654699
v -0.883733 0.095120 4.654699
v 0.883733 0.095120 -4.654699
v -0.883733 0.095120 -4.654699
v -1.359088 1.658444 4.793643
v 1.359088 1.658444 4.793643
v -1.359088 1.658444 -4.793643
v 1.359088 1.658444 -4.793643
vn 0.9654 0.2607 -0.0000
vn -0.0000 -0.0000 1.0000
vn -0.9562 -0.2929 -0.0000
vn -0.0000 -1.0000 -0.0000
vn 0.9562 -0.2929 -0.0000
vn -0.0000 -0.0000 -1.0000
vn -0.0000 1.0000 -0.0000
vn -0.0000 0.0560 -0.9984
vn -0.0000 0.0560 0.9984
vn -0.9654 0.2607 -0.0000
vt 0.621699 0.486441
vt 0.621699 0.021639
vt 0.713612 0.026821
vt 0.713612 0.481259
vt 0.117918 0.654833
vt 0.021639 0.684334
vt 0.021639 0.538158
vt 0.117918 0.567659
vt 0.307892 0.494879
vt 0.211095 0.494879
vt 0.211095 0.021639
vt 0.307892 0.021639
vt 0.578421 0.494879
vt 0.491246 0.494879
vt 0.491246 0.021639
vt 0.578421 0.021639
vt 0.447968 0.494879
vt 0.351171 0.494879
vt 0.351171 0.021639
vt 0.447968 0.021639
vt 0.257475 0.654833
vt 0.161197 0.684334
vt 0.161197 0.538158
vt 0.257475 0.567659
vt 0.162799 0.025859
vt 0.026656 0.025859
vt 0.021639 0.021639
vt 0.167816 0.021639
vt 0.162799 0.490660
vt 0.167816 0.494879
vt 0.026656 0.490660
vt 0.021639 0.494879
vt 0.978361 0.476077
vt 0.892082 0.476077
vt 0.892082 0.021639
vt 0.978361 0.021639
vt 0.300754 0.674300
vt 0.300754 0.538158
vt 0.393206 0.563090
vt 0.393206 0.649368
vt 0.436485 0.674300
vt 0.436485 0.538158
vt 0.528937 0.563090
vt 0.528937 0.649368
vt 0.756891 0.486441
vt 0.756891 0.021639
vt 0.848803 0.026821
vt 0.848803 0.481259
vt 0.054444 0.751848
vt 0.547118 0.751848
vt 0.547118 0.959090
vt 0.054444 0.959090
s 0
usemtl Material
f 5/1/1 7/2/1 14/3/1 16/4/1
f 4/5/2 9/6/2 10/7/2 8/8/2
f 8/9/3 10/10/3 12/11/3 6/12/3
f 6/13/4 2/14/4 4/15/4 8/16/4
f 2/17/5 11/18/5 9/19/5 4/20/5
f 6/21/6 12/22/6 11/23/6 2/24/6
f 3/25/7 7/26/7 10/27/7 9/28/7
f 1/29/7 3/25/7 9/28/7 11/30/7
f 7/26/7 5/31/7 12/32/7 10/27/7
f 5/31/7 1/29/7 11/30/7 12/32/7
f 15/33/7 16/34/7 14/35/7 13/36/7
f 7/37/8 3/38/8 13/39/8 14/40/8
f 1/41/9 5/42/9 16/43/9 15/44/9
f 3/45/10 1/46/10 15/47/10 13/48/10
f 17/49/7 18/50/7 20/51/7 19/52/7
