# Blender 4.0.2
# www.blender.org
mtllib Cave Rock 2.mtl
o Cave_Rock_2
v 1.052215 1.070931 -1.480343
v 1.595691 -0.280269 -1.658444
v 1.648372 1.019237 1.280245
v 1.827369 0.018101 1.792307
v -1.890465 1.378189 -1.519974
v -2.237102 -0.102316 -1.585853
v -1.888129 1.160195 1.708924
v -1.799355 -0.172560 1.600443
v -1.000996 0.029399 2.207018
v -1.031827 0.930079 2.345455
v 1.049371 1.021829 2.180235
v 1.502151 -0.102632 2.652156
v 0.850991 -0.192137 -3.049768
v -1.371669 0.006195 -2.865264
v 0.760949 1.017578 -2.335774
v -1.423591 1.071850 -2.486420
v -2.473966 0.122946 0.174755
v 1.854907 1.011072 0.009689
v -2.116737 1.371113 0.127644
v 1.996933 0.028224 -0.008885
v 1.751195 0.183770 -1.797346
v -1.960297 0.347646 1.815526
v 1.854954 0.434023 1.747930
v -2.495863 0.419788 -1.674103
v -1.157330 0.145143 2.613338
v 1.192540 0.195794 2.657168
v 1.012013 0.475312 -2.523194
v -1.498682 0.312762 -2.865719
v 2.113968 0.413493 -0.059096
v -2.804140 0.544122 0.311680
v 0.094623 0.876586 2.682150
v -0.080054 -0.108173 3.036978
v -0.358939 -0.042403 -3.096878
v -0.402497 0.942804 -2.840687
v -0.135636 0.256840 -3.087674
v 0.223326 0.210583 2.899812
v -0.293049 1.748618 1.116529
v -1.146691 1.828717 1.000286
v 0.679766 1.765844 0.073186
v 0.620190 1.720843 0.857806
v -1.348837 2.021204 0.135427
v -1.294918 2.010333 -0.696654
v -0.402395 1.737668 -1.004758
v 0.460866 1.701388 -0.762239
v -0.030903 1.397982 1.901528
v -0.728231 1.574744 1.779503
v 0.450150 1.437794 1.632322
v -0.689383 1.663420 -1.956929
v 0.369863 1.515117 -1.405961
v -1.069466 1.652017 -1.796702
v -0.314191 1.894094 0.020889
v -2.089778 -0.149438 0.108664
v -1.699342 -0.266536 1.480632
v -0.306652 -0.175888 -1.574440
v -1.789115 -0.261372 -1.543122
v 0.106868 -0.247389 1.524916
v 1.761798 -0.323971 1.608896
v 1.884227 -0.312288 -0.010672
v 1.390038 -0.259113 -1.547169
v -0.048059 -0.273894 2.621854
v 1.271720 -0.259626 2.467115
v -0.988211 -0.216373 2.077222
v -0.330710 -0.263289 -2.743771
v -1.273248 -0.235221 -2.390095
v 0.741329 -0.273226 -2.736854
v -0.027768 -0.234229 0.102134
vn -0.7446 0.6628 0.0791
vn -0.6286 0.5851 0.5123
vn -0.2220 0.9275 0.3007
vn -0.2879 0.9555 0.0634
vn 0.0013 -0.9572 -0.2895
vn 0.7369 -0.6180 -0.2740
vn 0.2036 -0.9773 -0.0577
vn 0.0043 -0.9902 -0.1395
vn -0.8424 0.5252 0.1205
vn -0.6460 0.6867 -0.3333
vn -0.7717 0.5301 -0.3515
vn -0.4471 -0.6468 0.6178
vn -0.5842 -0.6907 0.4262
vn -0.3322 -0.9206 0.2054
vn -0.2608 -0.8981 0.3542
vn 0.9862 0.1478 -0.0747
vn 0.7441 0.6635 -0.0782
vn 0.6997 0.6655 0.2598
vn 0.8812 0.2926 0.3712
vn 0.8987 0.1711 -0.4038
vn 0.4705 0.2686 -0.8405
vn 0.6285 0.3705 -0.6839
vn 0.0611 0.2263 0.9721
vn 0.0332 0.5832 0.8117
vn -0.3377 0.5299 0.7779
vn -0.4725 -0.1382 0.8704
vn 0.4728 0.6861 -0.5530
vn 0.0487 0.6068 -0.7934
vn 0.0670 0.8958 -0.4394
vn 0.3383 0.8926 -0.2979
vn 0.4303 0.6931 0.5783
vn 0.4633 0.3668 0.8067
vn -0.6349 -0.6441 0.4267
vn 0.1091 0.3600 -0.9266
vn -0.4276 0.6018 -0.6745
vn -0.5368 0.0845 -0.8395
vn -0.7259 -0.6817 0.0915
vn -0.3101 -0.9503 0.0273
vn -0.2468 0.9559 -0.1593
vn -0.1703 0.8952 -0.4118
vn 0.6286 0.7192 -0.2960
vn -0.6640 -0.7086 -0.2387
vn -0.4024 -0.5249 -0.7501
vn -0.1705 -0.9630 -0.2088
vn -0.2289 -0.9699 -0.0826
vn -0.7201 0.3482 0.6002
vn -0.8307 -0.5382 0.1425
vn 0.9304 -0.3661 -0.0190
vn -0.8205 -0.4827 -0.3062
vn -0.0542 0.1685 -0.9842
vn 0.9291 -0.1962 0.3135
vn 0.6537 0.3162 0.6875
vn -0.2877 -0.6733 0.6811
vn 0.2344 0.2058 0.9501
vn 0.2348 0.8871 0.3974
vn 0.0756 0.8640 0.4978
vn -0.1347 -0.9399 0.3138
vn 0.3053 0.9318 0.1961
vn -0.1143 -0.8905 -0.4403
vn -0.0687 -0.9706 -0.2307
vn 0.3259 0.9234 -0.2028
vn 0.3497 0.9357 -0.0461
vn 0.4671 -0.7929 0.3913
vn 0.2401 -0.9308 0.2756
vn 0.8905 -0.4219 0.1701
vn 0.1246 0.9922 0.0019
vn 0.1105 0.9620 0.2496
vn -0.0923 0.8596 0.5025
vn 0.1502 0.9745 -0.1669
vn -0.0254 -0.9997 -0.0043
vn -0.0341 -0.9994 0.0004
vn -0.0270 -0.9995 -0.0162
vn 0.4997 -0.8658 -0.0263
vn -0.0113 -0.9997 0.0220
vt 1.144707 0.390853
vt 1.161222 0.504133
vt 1.075775 0.487876
vt 1.063847 0.419473
vt 0.686752 0.307903
vt 0.730057 0.438757
vt 0.710624 0.445148
vt 0.673084 0.333596
vt 1.237176 0.382889
vt 1.125448 0.305246
vt 1.222828 0.285156
vt 0.447223 0.730300
vt 0.389113 0.667642
vt 0.400037 0.659377
vt 0.451690 0.720762
vt 0.774512 1.024913
vt 0.730057 1.018082
vt 0.734913 0.907048
vt 0.779881 0.867021
vt 0.800860 1.176411
vt 0.843568 1.164597
vt 0.851999 1.285156
vt 0.792486 1.238729
vt 1.157571 0.722355
vt 1.109882 0.684921
vt 1.148651 0.597884
vt 1.215968 0.626556
vt 0.814249 0.347598
vt 0.900091 0.285156
vt 0.952684 0.344505
vt 0.873167 0.412027
vt 0.797001 0.719347
vt 0.813469 0.668162
vt 0.881797 0.733161
vt 0.867237 0.787305
vt 0.369083 0.680740
vt 0.427013 0.762190
vt 0.879276 1.003150
vt 0.939836 0.972925
vt 0.969210 1.069442
vt 0.921904 1.096752
vt 0.904371 0.787305
vt 0.993681 0.831161
vt 0.949403 0.880947
vt 0.876332 0.883086
vt 0.351148 0.533687
vt 0.386643 0.535244
vt 0.994492 0.294844
vt 1.057643 0.363631
vt 1.033980 0.434990
vt 0.987515 0.351319
vt 0.730057 0.422275
vt 0.808057 0.424166
vt 0.770329 0.564959
vt 0.738415 0.572067
vt 0.399369 0.387427
vt 0.492286 0.289809
vt 0.494920 0.333409
vt 0.438039 0.398612
vt 1.227602 0.526959
vt 1.057643 0.373096
vt 0.318359 0.538150
vt 0.809653 1.020796
vt 0.375529 0.373048
vt 0.479648 0.286140
vt 0.851999 0.986207
vt 0.852124 1.091800
vt 0.815581 0.863529
vt 0.815544 0.787305
vt 0.833694 0.788331
vt 1.195133 0.721013
vt 1.216303 0.614278
vt 0.781419 0.343805
vt 1.129389 0.789889
vt 1.118664 0.764595
vt 0.851999 0.896465
vt 0.969575 0.760263
vt 0.926924 0.670485
vt 0.971978 0.685054
vt 0.514409 0.815876
vt 0.524379 0.781684
vt 0.901218 0.604396
vt 0.582884 0.285156
vt 0.581230 0.317131
vt 0.881386 0.465324
vt 0.880998 0.538751
vt 1.057643 0.706739
vt 0.851999 0.804403
vt 0.845759 0.879798
vt 0.655833 0.806170
vt 0.639777 0.787795
vt 1.017652 0.902120
vt 1.018364 0.936100
vt 0.964876 0.514689
vt 1.055519 0.503964
vt 1.053311 0.583113
vt 0.983167 0.609373
vt 1.030382 0.659788
vt 0.949122 0.428857
vt 1.057643 0.710889
vt 1.083337 0.565300
vt 0.554097 0.689710
vt 0.695137 0.721766
vt 0.563996 0.565587
vt 0.730057 0.584560
vt 0.565108 0.417304
vt 0.840889 1.021175
vt 0.846507 1.154672
s 1
usemtl Material
f 19/1/1 7/2/2 38/3/3 41/4/4
f 13/5/5 2/6/6 59/7/7 65/8/8
f 30/9/9 19/1/1 5/10/10 24/11/11
f 9/12/12 8/13/13 53/14/14 62/15/15
f 29/16/16 18/17/17 3/18/18 23/19/19
f 21/20/20 2/21/6 13/22/21 27/23/22
f 36/24/23 31/25/24 10/26/25 25/27/26
f 15/28/27 34/29/28 48/30/29 49/31/30
f 23/32/19 3/33/18 11/34/31 26/35/32
f 22/36/33 8/13/13 9/12/12 25/37/26
f 35/38/34 34/39/28 15/40/27 27/41/22
f 24/42/11 5/43/10 16/44/35 28/45/36
f 8/13/13 17/46/37 52/47/38 53/14/14
f 16/48/35 5/49/10 42/50/39 50/51/40
f 21/52/20 1/53/41 18/54/17 29/55/16
f 6/56/42 14/57/43 64/58/44 55/59/45
f 22/60/46 7/2/2 19/1/1 30/9/9
f 5/10/10 19/1/1 41/4/4 42/61/39
f 8/13/13 22/36/33 30/62/47 17/46/37
f 2/21/6 21/20/20 29/16/16 20/63/48
f 6/56/42 24/64/49 28/65/36 14/57/43
f 33/66/50 35/38/34 27/41/22 13/67/21
f 7/2/2 22/60/46 25/27/26 10/26/25
f 4/68/51 23/19/19 26/69/32 12/70/52
f 32/71/53 36/24/23 25/27/26 9/72/12
f 1/53/41 21/52/20 27/73/22 15/28/27
f 20/63/48 29/16/16 23/19/19 4/68/51
f 17/46/37 30/62/47 24/64/49 6/56/42
f 12/74/52 26/75/32 36/24/23 32/71/54
f 14/76/43 28/45/36 35/38/34 33/66/50
f 31/77/24 11/34/31 47/78/55 45/79/56
f 32/80/53 9/12/12 62/15/15 60/81/57
f 11/34/31 3/33/18 40/82/58 47/78/55
f 14/57/43 33/83/59 63/84/60 64/58/44
f 28/45/36 16/44/35 34/39/28 35/38/34
f 18/54/17 1/53/41 44/85/61 39/86/62
f 26/75/32 11/87/31 31/25/24 36/24/23
f 4/68/51 12/70/63 61/88/64 57/89/65
f 12/90/63 32/80/53 60/81/57 61/91/64
f 34/39/28 16/44/35 50/92/40 48/93/29
f 51/94/66 41/95/4 38/96/3 37/97/67
f 37/97/67 38/96/3 46/98/68 45/79/56
f 43/99/69 44/85/61 49/31/30 48/30/29
f 43/99/69 42/50/39 41/95/4 51/94/66
f 44/85/61 43/99/69 51/94/66 39/86/62
f 42/50/39 43/99/69 48/30/29 50/51/40
f 40/82/58 37/97/67 45/79/56 47/78/55
f 39/86/62 51/94/66 37/97/67 40/82/58
f 3/33/18 18/54/17 39/86/62 40/82/58
f 10/100/25 31/77/24 45/79/56 46/98/68
f 7/2/2 10/26/25 46/101/68 38/3/3
f 1/53/41 15/28/27 49/31/30 44/85/61
f 56/102/70 57/103/71 61/91/64 60/81/57
f 66/104/72 58/105/73 57/103/71 56/102/70
f 54/106/74 55/59/45 64/58/44 63/84/60
f 54/106/74 59/7/7 58/105/73 66/104/72
f 55/59/45 54/106/74 66/104/72 52/47/38
f 59/7/7 54/106/74 63/84/60 65/8/8
f 52/47/38 66/104/72 56/102/70 53/14/14
f 53/14/14 56/102/70 60/81/57 62/15/15
f 20/63/48 4/68/51 57/89/65 58/107/73
f 33/83/59 13/5/5 65/8/8 63/84/60
f 2/21/6 20/63/48 58/107/73 59/108/7
f 17/46/37 6/56/42 55/59/45 52/47/38
