# Blender 4.0.2
# www.blender.org
mtllib Cave Rock 1.mtl
o Cave_Rock_1
v 0.820331 0.234700 -1.074189
v 0.904312 -0.304569 -0.939115
v 1.000072 0.305162 1.000835
v 1.000000 -0.304183 1.000000
v -0.996699 0.298577 -1.051490
v -0.998284 -0.308046 -1.028452
v -1.115245 0.257308 1.042857
v -1.031923 -0.337390 0.961826
v -0.663788 -0.221177 1.470211
v -0.708588 0.186004 1.567064
v 0.745759 0.210520 1.719835
v 0.710379 -0.213828 1.627205
v 0.695444 -0.227113 -1.550279
v -0.722073 -0.230580 -1.900892
v 0.616265 0.205812 -1.612348
v -0.723407 0.209229 -1.735079
v -1.206298 -0.326735 0.015325
v 1.146761 0.309852 -0.000715
v -1.201699 0.280597 0.002372
v 1.155036 -0.296264 0.004078
v 1.077094 -0.014321 -1.128400
v -1.221066 -0.042229 1.145180
v 1.120870 0.000000 1.119736
v -1.117514 -0.007558 -1.177657
v -0.752888 -0.009772 1.662810
v 0.792096 0.000043 1.813559
v 0.725479 -0.009012 -1.653107
v -0.808765 -0.010954 -1.893332
v 1.250450 0.002292 -0.017673
v -1.336908 -0.012314 0.017130
v -0.041545 -0.318472 -1.074274
v -0.008293 0.297056 0.982208
v -0.012041 -0.324831 1.015354
v -0.080438 0.272215 -1.151505
v 0.014857 0.201235 1.836065
v -0.080919 -0.226169 1.784664
v -0.013838 -0.227831 -1.890958
v -0.048603 0.195684 -1.837393
v -0.023300 -0.279740 0.036772
v -0.020781 0.386357 0.078506
v -0.030204 -0.035791 -1.938106
v 0.005731 -0.024021 1.947686
vn -0.0036 1.0000 -0.0035
vn -0.0510 0.9987 0.0079
vn -0.0567 0.9944 0.0887
vn -0.0199 0.9957 0.0909
vn 0.0069 -0.9978 0.0663
vn 0.0133 -0.9991 0.0398
vn 0.3597 -0.8211 0.4432
vn -0.0913 -0.8444 0.5279
vn -0.9992 -0.0230 -0.0334
vn -0.9127 0.4064 -0.0421
vn -0.8571 0.4527 -0.2457
vn -0.9514 0.0286 -0.3067
vn 0.0111 -0.9999 -0.0064
vn -0.0005 -1.0000 -0.0022
vn 0.9985 0.0305 -0.0458
vn 0.8868 0.4605 -0.0387
vn 0.8945 0.3875 0.2229
vn 0.9522 -0.0328 0.3038
vn 0.8022 -0.5064 -0.3162
vn 0.8310 -0.4901 -0.2633
vn 0.6189 -0.4681 -0.6307
vn 0.6494 0.0641 -0.7578
vn -0.0898 0.4534 0.8868
vn -0.0889 0.4534 0.8869
vn -0.5226 0.4568 0.7198
vn -0.5007 0.4575 0.7348
vn -0.0450 0.9899 0.1341
vn -0.0221 0.9917 0.1263
vn 0.8282 0.4210 0.3700
vn -0.6929 -0.6214 0.3657
vn -0.4521 -0.8704 0.1948
vn -0.2856 -0.8459 0.4503
vn -0.4202 -0.6494 0.6338
vn 0.1521 0.1122 -0.9820
vn 0.1141 0.4460 -0.8877
vn 0.3555 0.7894 -0.5005
vn -0.7859 0.5025 -0.3602
vn 0.0137 -0.9986 -0.0513
vn 0.0076 -0.9994 -0.0338
vn -0.0067 -0.9949 -0.1002
vn 0.0149 -0.9939 -0.1097
vn 0.0150 0.9961 -0.0872
vn 0.4467 0.8686 -0.2146
vn 0.0220 0.9943 -0.1048
vn 0.7583 0.5859 -0.2860
vn 0.0143 -0.9995 -0.0291
vn -0.8168 0.4347 0.3792
vn -0.8451 0.4286 0.3196
vn -0.0207 0.9972 -0.0715
vn -0.8912 -0.4524 -0.0318
vn 0.9120 -0.4096 -0.0217
vn -0.8792 -0.4144 -0.2352
vn -0.8433 -0.4239 -0.3304
vn 0.1974 -0.2313 -0.9526
vn 0.8712 -0.4307 0.2357
vn 0.4473 -0.6479 0.6165
vn -0.0273 -0.6692 0.7426
vn -0.0248 -0.1018 -0.9945
vn -0.0535 0.2326 -0.9711
vn 0.0438 0.9988 -0.0195
vn 0.0226 -0.9997 -0.0103
vn 0.0099 0.9930 -0.1181
vn 0.0439 -0.9915 -0.1223
vn -0.0738 0.5043 -0.8604
vn 0.0175 0.9966 0.0805
vn -0.0032 0.9928 0.1198
vn 0.1376 0.4318 0.8914
vt 1.017979 0.598492
vt 1.207353 0.613925
vt 1.169421 0.777191
vt 0.994997 0.741786
vt 0.497231 0.444851
vt 0.334875 0.451841
vt 0.378388 0.349773
vt 0.504673 0.320963
vt 0.730799 0.620611
vt 0.782507 0.618219
vt 0.816285 0.783631
vt 0.765913 0.808471
vt 0.503356 0.601764
vt 0.314453 0.612336
vt 1.242708 0.549434
vt 1.294221 0.550501
vt 1.307125 0.712392
vt 1.255047 0.732788
vt 0.889810 1.214699
vt 0.834397 1.199629
vt 0.860164 1.144989
vt 0.898029 1.142095
vt 0.800197 0.294922
vt 0.834397 0.310333
vt 0.782301 0.362896
vt 0.749881 0.350180
vt 1.092655 0.851029
vt 0.971483 0.876918
vt 1.314453 0.831370
vt 1.281309 0.847776
vt 0.690194 0.418197
vt 0.661142 0.448867
vt 0.599603 0.368791
vt 0.612696 0.337200
vt 0.883477 1.015232
vt 0.915836 1.011414
vt 0.927353 1.122416
vt 0.834397 0.890119
vt 0.799303 0.918745
vt 0.511331 0.780015
vt 0.664627 0.768343
vt 0.624095 0.909475
vt 0.510403 0.911065
vt 1.056103 0.404568
vt 0.911241 0.395912
vt 0.956183 0.315195
vt 1.067026 0.294922
vt 1.250227 0.374350
vt 1.304867 0.383864
vt 0.358930 0.762565
vt 0.718167 0.439281
vt 0.769941 0.451188
vt 1.199304 0.441756
vt 0.693351 0.469090
vt 0.696147 0.622392
vt 1.222244 0.409556
vt 1.207353 0.556979
vt 0.730097 0.786147
vt 0.774854 0.921054
vt 0.852583 1.022985
vt 0.314453 0.432762
vt 0.364095 0.319950
vt 0.489712 0.294922
vt 1.275664 0.294922
vt 1.314453 0.300751
vt 1.220401 0.718107
vt 0.834397 0.912353
vt 0.866077 0.894971
vt 0.834397 0.558786
vt 0.693351 0.599945
vt 1.171825 0.326865
vt 0.395062 0.859589
vt 0.897534 0.909475
vt 0.834397 0.721282
vt 0.858091 0.841448
vt 0.848612 0.855362
vt 0.970402 0.894971
s 1
usemtl Material
f 40/1/1 19/2/2 7/3/3 32/4/4
f 33/5/5 4/6/6 12/7/7 36/8/8
f 30/9/9 19/10/10 5/11/11 24/12/12
f 39/13/13 20/14/14 4/6/6 33/5/5
f 29/15/15 18/16/16 3/17/17 23/18/18
f 21/19/19 2/20/20 13/21/21 27/22/22
f 42/23/23 35/24/24 10/25/25 25/26/26
f 32/4/4 7/3/3 10/27/27 35/28/28
f 23/18/18 3/17/17 11/29/29 26/30/29
f 22/31/30 8/32/31 9/33/32 25/34/33
f 41/35/34 38/36/35 15/37/36 27/22/22
f 24/12/12 5/11/11 16/38/37 28/39/37
f 31/40/38 6/41/39 14/42/40 37/43/41
f 34/44/42 1/45/43 15/46/36 38/47/44
f 21/48/45 1/49/43 18/16/16 29/15/15
f 31/40/38 2/50/46 20/14/14 39/13/13
f 22/51/47 7/52/48 19/10/10 30/9/9
f 34/44/42 5/53/49 19/2/2 40/1/1
f 8/54/31 22/51/30 30/9/9 17/55/50
f 2/56/20 21/48/19 29/15/15 20/57/51
f 6/58/52 24/12/12 28/39/53 14/59/53
f 37/60/54 41/35/34 27/22/22 13/21/21
f 7/52/48 22/51/47 25/26/26 10/25/25
f 4/6/55 23/61/18 26/62/56 12/7/7
f 36/8/8 42/63/57 25/34/33 9/33/32
f 1/49/43 21/48/45 27/64/22 15/65/36
f 20/57/51 29/15/15 23/18/18 4/66/55
f 17/55/50 30/9/9 24/12/12 6/58/52
f 12/7/7 26/62/56 42/63/57 36/8/8
f 14/67/58 28/68/59 41/35/34 37/60/54
f 1/45/43 34/44/42 40/1/1 18/69/60
f 6/41/39 31/40/38 39/13/13 17/70/61
f 5/53/49 34/44/42 38/47/44 16/71/62
f 2/50/46 31/40/38 37/43/41 13/72/63
f 28/68/59 16/73/64 38/36/35 41/35/34
f 3/74/65 32/4/4 35/28/28 11/75/66
f 26/76/67 11/75/67 35/28/24 42/77/23
f 17/70/61 39/13/13 33/5/5 8/32/31
f 8/32/31 33/5/5 36/8/8 9/33/32
f 18/69/60 40/1/1 32/4/4 3/74/65
