# Blender 4.0.2
# www.blender.org
mtllib Cave Floor.mtl
o Cave_Floor
v -1.003969 0.376105 7.851948
v -1.245736 0.465012 -7.554985
v -3.561426 0.414011 7.851948
v -3.333021 0.440924 -7.554985
v 3.384492 0.300783 -7.554985
v 3.168350 0.436354 7.851948
v -7.122411 0.286589 7.851948
v -7.122411 0.174276 -7.554985
v 7.122411 0.147148 -7.554985
v 7.122411 0.271540 7.851948
v -1.052322 0.588704 4.770561
v -1.149029 1.275151 -1.392212
v -3.515745 0.614910 4.770561
v -3.424383 0.407270 -1.392212
v 3.298035 0.597592 -1.392212
v 3.211578 0.803197 4.770561
v -7.122411 0.254583 4.770561
v -7.122411 0.451356 -1.392212
v 7.122411 0.293949 -1.392212
v 7.122411 0.307753 4.770561
vn 0.0760 0.9952 -0.0621
vn 0.0774 0.9967 -0.0261
vn 0.0815 0.9963 -0.0262
vn 0.0603 0.9975 -0.0355
vn -0.0559 0.9955 -0.0760
vn -0.0568 0.9982 -0.0186
vn -0.0348 0.9976 0.0596
vn 0.0519 0.9976 0.0454
vn 0.0251 0.9965 0.0799
vn 0.0835 0.9943 0.0656
vn 0.0932 0.9954 0.0244
vn -0.1121 0.9936 -0.0110
vn -0.0680 0.9971 0.0328
vn -0.0365 0.9993 -0.0106
vn -0.0556 0.9984 0.0128
vn -0.1161 0.9924 -0.0411
vn -0.0297 0.9994 -0.0200
vn -0.0280 0.9985 0.0467
vn -0.0679 0.9973 0.0268
vn -0.0101 0.9967 0.0804
vt 0.812251 -0.346205
vt 0.794968 0.035268
vt 0.612903 -0.218078
vt 0.630045 -0.519112
vt 1.048276 -0.313301
vt 1.021135 0.076073
vt 0.993994 0.465448
vt 0.777685 0.416741
vt 0.769043 0.607477
vt 0.587190 0.233472
vt 0.595761 0.082956
vt 1.131939 0.183390
vt 1.109937 0.652233
vt 1.333918 -0.026706
vt 1.314123 0.321102
vt 1.153942 -0.285452
vt 1.353713 -0.374515
vt 1.098935 0.886654
vt 1.304225 0.495006
vt 0.980423 0.660136
s 1
usemtl Material
f 5/1/1 15/2/2 19/3/3 9/4/4
f 2/5/5 12/6/6 15/2/2 5/1/1
f 11/7/7 16/8/8 15/2/2 12/6/6
f 6/9/9 10/10/10 20/11/11 16/8/8
f 11/7/7 12/6/6 14/12/12 13/13/13
f 13/13/13 14/12/12 18/14/14 17/15/15
f 14/12/12 4/16/16 8/17/17 18/14/14
f 15/2/2 16/8/8 20/11/11 19/3/3
f 3/18/18 13/13/13 17/15/15 7/19/19
f 1/20/20 11/7/7 13/13/13 3/18/18
f 12/6/6 2/5/5 4/16/16 14/12/12
f 1/20/20 6/9/9 16/8/8 11/7/7
