# Blender 4.0.2
# www.blender.org
mtllib diningChair01.mtl
o Dining_Chair
v -0.405921 0.000000 0.463982
v -0.417517 0.258897 0.463982
v -0.405921 0.000000 0.363982
v -0.417517 0.258897 0.363982
v -0.305921 0.000000 0.463982
v -0.317517 0.258897 0.463982
v -0.305921 0.000000 0.363982
v -0.317517 0.258897 0.363982
v -0.435473 0.358522 0.463982
v -0.435473 0.358522 0.363982
v -0.335473 0.358522 0.363982
v -0.335473 0.358522 0.463982
v -0.447736 0.480935 0.463982
v -0.447736 0.480935 0.363982
v -0.347736 0.480935 0.363982
v -0.347736 0.480935 0.463982
v -0.440995 0.609140 0.463982
v -0.440995 0.609140 0.363982
v -0.341935 0.595457 0.363982
v -0.341935 0.595457 0.463982
v -0.405921 0.742276 0.463982
v -0.405921 0.742276 0.363982
v -0.305921 0.742276 0.363982
v -0.305921 0.742276 0.463982
v 0.389222 0.000000 0.470256
v 0.335903 0.258897 0.470256
v 0.389222 0.000000 0.368904
v 0.335903 0.258897 0.368904
v 0.289222 0.000000 0.470256
v 0.235903 0.258897 0.470256
v 0.289222 0.000000 0.368904
v 0.235903 0.258897 0.368904
v 0.312845 0.358522 0.470256
v 0.312845 0.358522 0.368904
v 0.212845 0.358522 0.368904
v 0.212845 0.358522 0.470256
v 0.287046 0.480935 0.470256
v 0.287046 0.480935 0.368904
v 0.187046 0.480935 0.368904
v 0.187046 0.480935 0.470256
v 0.278859 0.602299 0.470256
v 0.278859 0.602299 0.368904
v 0.178859 0.602299 0.368904
v 0.178859 0.602299 0.470256
v 0.281382 0.742276 0.470256
v 0.281382 0.742276 0.368904
v 0.181382 0.742276 0.368904
v 0.181382 0.742276 0.470256
v -0.405921 0.000000 -0.463982
v -0.417517 0.258897 -0.463982
v -0.405921 0.000000 -0.363982
v -0.417517 0.258897 -0.363982
v -0.305921 0.000000 -0.463982
v -0.317517 0.258897 -0.463982
v -0.305921 0.000000 -0.363982
v -0.317517 0.258897 -0.363982
v -0.435473 0.358522 -0.463982
v -0.435473 0.358522 -0.363982
v -0.335473 0.358522 -0.363982
v -0.335473 0.358522 -0.463982
v -0.447736 0.480935 -0.463982
v -0.447736 0.480935 -0.363982
v -0.347736 0.480935 -0.363982
v -0.347736 0.480935 -0.463982
v -0.440995 0.609140 -0.463982
v -0.440995 0.609140 -0.363982
v -0.341935 0.595457 -0.363982
v -0.341935 0.595457 -0.463982
v -0.405921 0.742276 -0.463982
v -0.405921 0.742276 -0.363982
v -0.305921 0.742276 -0.363982
v -0.305921 0.742276 -0.463982
v 0.389222 0.000000 -0.470256
v 0.335903 0.258897 -0.470256
v 0.389222 0.000000 -0.368904
v 0.335903 0.258897 -0.368904
v 0.289222 0.000000 -0.470256
v 0.235903 0.258897 -0.470256
v 0.289222 0.000000 -0.368904
v 0.235903 0.258897 -0.368904
v 0.312845 0.358522 -0.470256
v 0.312845 0.358522 -0.368904
v 0.212845 0.358522 -0.368904
v 0.212845 0.358522 -0.470256
v 0.287046 0.480935 -0.470256
v 0.287046 0.480935 -0.368904
v 0.187046 0.480935 -0.368904
v 0.187046 0.480935 -0.470256
v 0.278859 0.602299 -0.470256
v 0.278859 0.602299 -0.368904
v 0.178859 0.602299 -0.368904
v 0.178859 0.602299 -0.470256
v 0.281382 0.742276 -0.470256
v 0.281382 0.742276 -0.368904
v 0.181382 0.742276 -0.368904
v 0.181382 0.742276 -0.470256
v -0.445296 0.736412 0.484142
v -0.445296 0.839271 0.484142
v -0.445296 0.736412 -0.484142
v -0.445296 0.839271 -0.484142
v 0.249954 0.736412 0.484142
v 0.249954 0.839271 0.484142
v 0.249954 0.736412 -0.484142
v 0.249954 0.839271 -0.484142
v -0.495161 0.736412 -0.351326
v -0.495161 0.736412 0.351326
v -0.495161 0.839271 0.351326
v -0.495161 0.839271 -0.351326
v 0.335474 0.736412 0.351326
v 0.335474 0.736412 -0.351326
v 0.335474 0.839271 -0.351326
v 0.335474 0.839271 0.351326
v -0.479056 0.852053 -0.336854
v -0.431245 0.852053 -0.464198
v 0.235366 0.852053 -0.464198
v 0.319905 0.852053 0.336854
v 0.235366 0.852053 0.464198
v -0.431245 0.852053 0.464198
v -0.479056 0.852053 0.336854
v 0.319905 0.852053 -0.336854
v -0.222926 0.736855 -0.535856
v -0.222926 0.840657 -0.535856
v -0.222926 0.736855 0.535856
v -0.222926 0.840657 0.535856
v -0.219214 0.736412 -0.351326
v -0.219214 0.736412 0.351326
v -0.124822 0.850753 -0.466588
v -0.124822 0.850753 0.466588
v -0.140849 0.880394 -0.336854
v -0.140849 0.880394 0.336854
v 0.269042 0.733566 0.298985
v 0.303710 1.786374 0.298985
v 0.300000 0.733566 0.000000
v 0.303710 1.786374 0.000000
v 0.399534 0.733566 0.298985
v 0.400000 1.840963 0.298985
v 0.400000 0.733566 0.000000
v 0.400000 1.840963 0.000000
v 0.175398 0.733566 0.392539
v 0.283217 1.762834 0.426892
v 0.354180 1.815696 0.453272
v 0.332128 0.733566 0.418919
v 0.088329 0.733566 0.455323
v 0.243085 1.705459 0.473910
v 0.253518 1.705459 0.550284
v 0.247151 0.733566 0.514867
v 0.130148 1.336370 0.502671
v 0.138442 1.336370 0.598924
v 0.132083 0.733566 0.554537
v 0.021056 0.733566 0.456771
v 0.008884 1.067200 0.469389
v -0.012194 1.067200 0.567142
v -0.053213 0.733566 0.553563
v -0.124293 0.988933 0.443372
v -0.124293 0.988933 0.541125
v 0.062120 1.168382 0.490271
v 0.050059 1.160981 0.585100
v 0.046017 0.733566 0.554050
v 0.192241 1.537135 0.496178
v 0.210255 1.537135 0.585249
v 0.192796 0.733566 0.534702
v 0.311082 0.967651 0.298985
v 0.332893 0.967651 0.000000
v 0.447920 1.013300 0.000000
v 0.447653 1.013300 0.298985
v 0.226604 0.965604 0.405421
v 0.383019 1.010570 0.436096
v 0.172695 0.956671 0.459584
v 0.275314 0.956671 0.528148
v 0.095750 0.926763 0.475788
v 0.143877 0.926763 0.571182
v 0.029474 0.910417 0.467084
v 0.050563 0.906857 0.563388
v -0.112638 0.849452 0.549041
v 0.218084 0.943031 0.553657
v 0.136434 0.943031 0.470644
v 0.446311 0.922002 0.000000
v 0.445920 0.922002 0.298985
v 0.375466 0.920637 0.427507
v 0.269042 0.733566 -0.298985
v 0.303710 1.786374 -0.298985
v 0.399534 0.733566 -0.298985
v 0.400000 1.840963 -0.298985
v 0.175398 0.733566 -0.392539
v 0.283217 1.762834 -0.426892
v 0.354180 1.815696 -0.453272
v 0.332128 0.733566 -0.418919
v 0.088329 0.733566 -0.455323
v 0.243085 1.705459 -0.473910
v 0.253518 1.705459 -0.550284
v 0.247151 0.733566 -0.514867
v 0.130148 1.336370 -0.502671
v 0.138442 1.336370 -0.598924
v 0.132083 0.733566 -0.554537
v 0.021056 0.733566 -0.456771
v 0.008884 1.067200 -0.469389
v -0.012194 1.067200 -0.567142
v -0.053213 0.733566 -0.553563
v -0.124293 0.988933 -0.443372
v -0.124293 0.988933 -0.541125
v 0.062120 1.168382 -0.490271
v 0.050059 1.160981 -0.585100
v 0.046017 0.733566 -0.554050
v 0.192241 1.537135 -0.496178
v 0.210255 1.537135 -0.585249
v 0.192796 0.733566 -0.534702
v 0.311082 0.967651 -0.298985
v 0.447653 1.013300 -0.298985
v 0.226604 0.965604 -0.405421
v 0.383019 1.010570 -0.436096
v 0.172695 0.956671 -0.459584
v 0.275314 0.956671 -0.528148
v 0.095750 0.926763 -0.475788
v 0.143877 0.926763 -0.571182
v 0.029474 0.910417 -0.467084
v 0.050563 0.906857 -0.563388
v -0.112638 0.849452 -0.549041
v 0.218084 0.943031 -0.553657
v 0.136434 0.943031 -0.470644
v 0.445920 0.922002 -0.298985
v 0.375466 0.920637 -0.427507
vn -0.9990 -0.0447 -0.0000
vn -0.9938 -0.1113 -0.0000
vn -0.0000 -0.0000 -1.0000
vn 0.9990 0.0447 -0.0000
vn 0.9938 0.1113 -0.0000
vn -0.0000 -0.0000 1.0000
vn -0.0000 -1.0000 -0.0000
vn -0.9903 -0.1386 -0.0000
vn 0.9903 0.1386 -0.0000
vn 0.9997 0.0246 -0.0000
vn 0.9894 -0.1451 -0.0000
vn -0.9997 -0.0237 -0.0000
vn -0.9880 0.1544 -0.0000
vn -0.9670 0.2547 -0.0000
vn -0.0000 1.0000 -0.0000
vn 0.9712 -0.2382 -0.0000
vn 0.9794 0.2017 -0.0000
vn 0.9769 0.2136 -0.0000
vn -0.9794 -0.2017 -0.0000
vn -0.9769 -0.2136 -0.0000
vn 0.9764 0.2159 -0.0000
vn -0.9764 -0.2159 -0.0000
vn -0.9906 -0.1371 -0.0000
vn -0.9997 -0.0247 -0.0000
vn 0.9906 0.1371 -0.0000
vn 0.9997 0.0247 -0.0000
vn 0.9998 -0.0180 -0.0000
vn -0.9998 0.0180 -0.0000
vn -0.9839 -0.0000 -0.1786
vn -0.8767 0.4487 -0.1736
vn -0.5854 0.5121 -0.6286
vn -0.6597 -0.0000 -0.7515
vn 0.9594 -0.0000 0.2822
vn 0.8524 0.4493 0.2675
vn 0.8408 -0.0000 0.5414
vn -0.1680 -0.0046 0.9858
vn -0.1667 -0.0047 0.9860
vn -0.5854 0.5121 0.6286
vn -0.6597 -0.0000 0.7515
vn 0.0001 -1.0000 0.0006
vn -0.0001 -1.0000 0.0005
vn -0.0004 -1.0000 0.0013
vn 0.0002 -1.0000 0.0013
vn 0.8524 0.4493 -0.2675
vn 0.3598 0.9290 -0.0872
vn 0.3598 0.9290 0.0872
vn -0.8767 0.4487 0.1736
vn -0.1978 0.9627 0.1847
vn -0.3638 0.9292 0.0649
vn -0.0228 0.9749 -0.2213
vn -0.1978 0.9627 -0.1847
vn -0.0052 0.9901 -0.1404
vn 0.0002 -1.0000 -0.0013
vn -0.0004 -1.0000 -0.0013
vn -0.0001 -1.0000 -0.0005
vn 0.0001 -1.0000 -0.0006
vn 0.8408 -0.0000 -0.5414
vn 0.9594 -0.0000 -0.2822
vn -0.9839 -0.0000 0.1786
vn -0.0092 0.9980 0.0619
vn -0.0229 0.9931 0.1150
vn -0.3638 0.9292 -0.0649
vn -0.0092 0.9980 -0.0619
vn 0.4200 0.8650 0.2745
vn 0.2183 0.9555 0.1983
vn 0.4200 0.8650 -0.2745
vn 0.2183 0.9555 -0.1983
vn -0.0374 0.9838 0.1753
vn 0.0003 -1.0000 -0.0006
vn 0.0003 -1.0000 0.0006
vn 0.0008 -1.0000 -0.0013
vn 0.0008 -1.0000 0.0013
vn -0.2265 -0.0000 -0.9740
vn -0.9500 0.0853 -0.3004
vn -0.9769 0.0039 -0.2138
vn -0.9991 -0.0223 -0.0364
vn -0.9958 0.0677 -0.0618
vn 0.9998 0.0197 0.0008
vn 0.9983 0.0576 0.0004
vn 0.9835 0.0500 0.1736
vn 0.9785 0.0034 0.2063
vn 0.8611 0.0275 0.5078
vn 0.8126 -0.0306 0.5820
vn -0.4932 0.8699 -0.0000
vn -0.5197 0.8543 0.0095
vn -0.5152 0.8571 0.0079
vn -0.8992 0.1700 -0.4032
vn -0.6819 0.1934 -0.7054
vn -0.7740 0.1216 -0.6214
vn -0.6250 0.7735 0.1058
vn -0.5945 0.8008 0.0721
vn -0.3163 0.1039 -0.9429
vn -0.2722 0.1488 -0.9507
vn -0.0728 0.0859 -0.9936
vn -0.5792 0.1302 -0.8047
vn -0.8135 0.5557 0.1716
vn -0.8668 0.4688 0.1700
vn 0.6538 -0.0004 0.7567
vn 0.5932 -0.0773 0.8013
vn -0.8794 0.4717 -0.0643
vn -0.8797 0.4712 -0.0637
vn -0.7007 0.7074 -0.0927
vn -0.7067 0.7013 -0.0939
vn -0.9406 0.3061 0.1470
vn -0.9407 0.3052 0.1478
vn -0.9269 0.3698 0.0639
vn -0.9277 0.3672 0.0675
vn 0.3730 -0.0767 0.9247
vn 0.5151 -0.0254 0.8568
vn 0.2372 -0.0565 0.9698
vn 0.1261 -0.0799 0.9888
vn -0.0038 -1.0000 -0.0029
vn -0.0125 -0.9999 -0.0096
vn -0.0179 -0.9997 -0.0138
vn -0.0717 -0.0510 0.9961
vn -0.0598 -0.0764 0.9953
vn -0.1487 -0.0599 0.9871
vn 0.0683 0.0323 -0.9971
vn 0.0199 0.0727 -0.9972
vn 0.0559 -0.0057 -0.9984
vn -0.9972 -0.0324 0.0672
vn -0.5285 0.8470 -0.0570
vn -0.1354 -0.0199 0.9906
vn -0.0990 -0.0174 0.9949
vn -0.7332 0.0770 -0.6757
vn -0.4683 0.0716 -0.8806
vn -0.2356 0.0739 -0.9690
vn 0.0873 0.0666 -0.9940
vn 0.2300 0.0149 -0.9731
vn 0.1211 -0.0620 -0.9907
vn -0.0828 0.9962 0.0279
vn 0.7967 -0.1453 0.5866
vn -0.8717 0.0475 -0.4877
vn 0.9621 -0.1375 0.2353
vn 0.9916 -0.1294 0.0013
vn -0.9837 0.1574 -0.0868
vn 0.9711 -0.2388 0.0014
vn 0.9388 -0.2335 0.2533
vn 0.7820 -0.1874 0.5945
vn 0.5488 -0.1395 0.8242
vn 0.3295 -0.1130 0.9374
vn 0.1165 -0.0900 0.9891
vn -0.0446 -0.0473 0.9979
vn -0.0710 -0.0204 0.9973
vn -0.9500 0.0853 0.3004
vn -0.9958 0.0677 0.0618
vn -0.9991 -0.0223 0.0364
vn -0.9769 0.0039 0.2138
vn 0.9998 0.0197 -0.0008
vn 0.9785 0.0034 -0.2063
vn 0.9835 0.0500 -0.1736
vn 0.9983 0.0576 -0.0004
vn 0.8126 -0.0306 -0.5820
vn 0.8611 0.0275 -0.5078
vn -0.5152 0.8571 -0.0079
vn -0.5197 0.8543 -0.0095
vn -0.7740 0.1216 0.6214
vn -0.6819 0.1934 0.7054
vn -0.8992 0.1700 0.4032
vn -0.5945 0.8008 -0.0721
vn -0.6250 0.7735 -0.1058
vn -0.3163 0.1039 0.9429
vn -0.0728 0.0859 0.9936
vn -0.2722 0.1488 0.9507
vn -0.5792 0.1302 0.8047
vn -0.8668 0.4688 -0.1700
vn -0.8135 0.5557 -0.1716
vn 0.5932 -0.0773 -0.8013
vn 0.6538 -0.0004 -0.7567
vn -0.8794 0.4717 0.0643
vn -0.7067 0.7013 0.0939
vn -0.7007 0.7074 0.0927
vn -0.8797 0.4712 0.0637
vn -0.9406 0.3061 -0.1470
vn -0.9277 0.3672 -0.0675
vn -0.9269 0.3698 -0.0639
vn -0.9407 0.3052 -0.1478
vn 0.3730 -0.0767 -0.9247
vn 0.1261 -0.0799 -0.9888
vn 0.2372 -0.0565 -0.9698
vn 0.5151 -0.0254 -0.8568
vn -0.0038 -1.0000 0.0029
vn -0.0179 -0.9997 0.0138
vn -0.0125 -0.9999 0.0096
vn -0.0717 -0.0510 -0.9961
vn -0.1487 -0.0599 -0.9871
vn -0.0598 -0.0764 -0.9953
vn 0.0683 0.0323 0.9971
vn -0.1693 -0.1133 0.9790
vn -0.0714 0.0094 0.9974
vn -0.9972 -0.0324 -0.0672
vn -0.3850 -0.2143 0.8977
vn -0.5285 0.8470 0.0570
vn -0.0990 -0.0174 -0.9949
vn -0.1354 -0.0199 -0.9906
vn -0.7332 0.0770 0.6757
vn -0.4683 0.0716 0.8806
vn -0.2356 0.0739 0.9690
vn 0.0873 0.0666 0.9940
vn 0.2300 0.0149 0.9731
vn 0.1211 -0.0620 0.9907
vn -0.0828 0.9962 -0.0279
vn 0.7967 -0.1453 -0.5866
vn -0.8717 0.0475 0.4877
vn 0.9621 -0.1375 -0.2353
vn 0.9916 -0.1294 -0.0013
vn -0.9837 0.1574 0.0868
vn 0.9711 -0.2388 -0.0014
vn 0.9388 -0.2335 -0.2533
vn 0.7820 -0.1874 -0.5945
vn 0.5488 -0.1395 -0.8242
vn 0.3295 -0.1130 -0.9374
vn 0.1165 -0.0900 -0.9891
vn -0.0446 -0.0473 -0.9979
vn -0.0710 -0.0204 -0.9973
vn -0.1095 -0.0092 -0.9939
vt 0.003906 0.074219
vt 0.316406 0.074219
vt 0.316406 0.003906
vt 0.003906 0.003906
vt 0.421875 0.074219
vt 0.421875 0.003906
vt 0.578125 0.003906
vt 0.578125 0.074219
vt 0.710938 0.003906
vt 0.710938 0.074219
vt 0.738281 0.003906
vt 0.738281 0.074219
vt 0.890625 0.074219
vt 0.890625 0.003906
vt 0.726562 0.003906
vt 0.726562 0.074219
vt 0.996094 0.003906
vt 0.996094 0.074219
vt 0.921875 0.074219
vt 0.921875 0.003906
vt 0.421875 0.992188
vt 0.417969 0.941406
vt 0.460938 0.917969
vt 0.488281 0.960938
vt 0.164062 0.527344
vt 0.164062 0.570312
vt 0.109375 0.585938
vt 0.101562 0.527344
vt 0.042969 0.863281
vt 0.078125 0.839844
vt 0.113281 0.921875
vt 0.097656 0.953125
vt 0.117188 0.246094
vt 0.031250 0.257812
vt 0.406250 0.566406
vt 0.402344 0.570312
vt 0.167969 0.574219
vt 0.156250 0.941406
vt 0.125000 0.910156
vt 0.164062 0.929688
vt 0.500000 0.828125
vt 0.457031 0.910156
vt 0.476562 0.781250
vt 0.535156 0.269531
vt 0.464844 0.511719
vt 0.406250 0.523438
vt 0.457031 0.257812
vt 0.460938 0.574219
vt 0.152344 0.992188
vt 0.152344 0.785156
vt 0.101562 0.781250
vt 0.410156 0.929688
vt 0.421875 0.785156
vt 0.113281 0.597656
vt 0.457031 0.585938
vt 0.464844 0.105469
vt 0.113281 0.085938
vt 0.527344 0.140625
vt 0.046875 0.117188
vt 0.535156 0.847656
vt 0.824219 0.902344
vt 0.824219 0.601562
vt 0.996094 0.601562
vt 0.996094 0.906250
vt 0.710938 0.539062
vt 0.964844 0.531250
vt 0.980469 0.558594
vt 0.722656 0.574219
vt 0.996094 0.195312
vt 0.992188 0.515625
vt 0.871094 0.511719
vt 0.875000 0.195312
vt 0.804688 0.500000
vt 0.820312 0.195312
vt 0.546875 0.621094
vt 0.578125 0.593750
vt 0.644531 0.671875
vt 0.609375 0.703125
vt 0.601562 0.578125
vt 0.558594 0.578125
vt 0.558594 0.464844
vt 0.601562 0.464844
vt 0.609375 0.742188
vt 0.652344 0.714844
vt 0.652344 0.761719
vt 0.597656 0.777344
vt 0.804688 0.992188
vt 0.746094 0.992188
vt 0.750000 0.902344
vt 0.558594 0.414062
vt 0.601562 0.414062
vt 0.691406 0.910156
vt 0.675781 0.992188
vt 0.667969 0.917969
vt 0.707031 0.906250
vt 0.558594 0.367188
vt 0.601562 0.367188
vt 0.750000 0.457031
vt 0.769531 0.179688
vt 0.601562 0.238281
vt 0.558594 0.238281
vt 0.558594 0.195312
vt 0.601562 0.195312
vt 0.601562 0.328125
vt 0.558594 0.328125
vt 0.558594 0.281250
vt 0.601562 0.281250
vt 0.742188 0.171875
vt 0.726562 0.398438
vt 0.703125 0.320312
vt 0.710938 0.160156
vt 0.640625 0.777344
vt 0.632812 0.796875
vt 0.578125 0.792969
vt 0.585938 0.835938
vt 0.535156 0.871094
vt 0.675781 0.152344
vt 0.671875 0.250000
vt 0.648438 0.210938
vt 0.609375 0.816406
vt 0.636719 0.929688
vt 0.648438 0.992188
vt 0.554688 0.960938
vt 0.601562 0.082031
vt 0.601562 0.136719
vt 0.558594 0.136719
vt 0.558594 0.082031
vt 0.613281 0.183594
vt 0.613281 0.132812
vt 0.722656 0.632812
vt 0.691406 0.695312
vt 0.664062 0.773438
vt 0.640625 0.832031
vt 0.609375 0.875000
vt 0.550781 0.906250
vt 0.066406 0.785156
vt 0.820312 0.160156
vt 0.750000 0.613281
vt 0.875000 0.160156
vt 0.996094 0.160156
vt 0.695312 0.574219
vt 0.996094 0.992188
vt 0.636719 0.531250
vt 0.636719 0.562500
vt 0.996094 0.082031
vt 0.875000 0.082031
vt 0.812500 0.082031
vt 0.769531 0.082031
vt 0.738281 0.082031
vt 0.714844 0.082031
vt 0.679688 0.082031
vt 0.640625 0.082031
vt 0.003906 0.785156
vt 0.878906 0.195312
vt 0.609375 0.699219
vt 0.664062 0.917969
vt 0.703125 0.906250
vt 0.703125 0.312500
vt 0.730469 0.390625
vt 0.562500 0.734375
vt 0.589844 0.730469
vt 0.597656 0.753906
vt 0.539062 0.773438
vt 0.613281 0.125000
vt 0.707031 0.632812
vt 0.664062 0.769531
vt 0.605469 0.875000
vt 0.539062 0.906250
vt 0.515625 0.781250
vt 0.878906 0.160156
vt 0.996094 0.156250
vt 0.820312 0.082031
vt 0.746094 0.082031
vt 0.683594 0.082031
vt 0.648438 0.082031
vt 0.570312 0.781250
s 1
usemtl diningChair01
f 1/1/1 2/2/2 4/3/2 3/4/1
f 3/1/3 4/2/3 8/3/3 7/4/3
f 7/4/4 8/3/5 6/2/5 5/1/4
f 5/4/6 6/3/6 2/2/6 1/1/6
f 3/4/7 7/4/7 5/1/7 1/1/7
f 4/3/2 2/2/2 9/5/8 10/6/8
f 9/5/6 12/6/6 16/7/6 13/8/6
f 2/2/6 6/3/6 12/6/6 9/5/6
f 8/3/3 4/2/3 10/5/3 11/6/3
f 6/2/5 8/3/5 11/6/9 12/5/9
f 16/8/10 15/7/10 19/9/11 20/10/11
f 11/6/3 10/5/3 14/8/3 15/7/3
f 12/5/9 11/6/9 15/7/10 16/8/10
f 10/6/8 9/5/8 13/8/12 14/7/12
f 18/11/13 17/12/13 21/13/14 22/14/14
f 14/7/12 13/8/12 17/12/13 18/11/13
f 13/8/6 16/7/6 20/15/6 17/16/6
f 15/7/3 14/8/3 18/16/3 19/15/3
f 23/17/15 22/18/15 21/19/15 24/20/15
f 17/16/6 20/15/6 24/14/6 21/13/6
f 19/15/3 18/16/3 22/13/3 23/14/3
f 20/10/11 19/9/11 23/14/16 24/13/16
f 25/1/17 27/4/17 28/3/18 26/2/18
f 27/4/3 31/1/3 32/2/3 28/3/3
f 31/4/19 29/1/19 30/2/20 32/3/20
f 29/1/6 25/4/6 26/3/6 30/2/6
f 27/18/7 25/19/7 29/20/7 31/17/7
f 28/3/18 34/6/21 33/5/21 26/2/18
f 33/6/6 37/7/6 40/8/6 36/5/6
f 26/3/6 33/6/6 36/5/6 30/2/6
f 32/2/3 35/5/3 34/6/3 28/3/3
f 30/2/20 36/5/22 35/6/22 32/3/20
f 40/8/23 44/16/24 43/15/24 39/7/23
f 35/5/3 39/8/3 38/7/3 34/6/3
f 36/5/22 40/8/23 39/7/23 35/6/22
f 34/6/21 38/7/25 37/8/25 33/5/21
f 42/15/26 46/14/27 45/13/27 41/16/26
f 38/7/25 42/15/26 41/16/26 37/8/25
f 37/7/6 41/15/6 44/16/6 40/8/6
f 39/8/3 43/16/3 42/15/3 38/7/3
f 47/18/15 48/19/15 45/20/15 46/17/15
f 41/15/6 45/14/6 48/13/6 44/16/6
f 43/16/3 47/13/3 46/14/3 42/15/3
f 44/16/24 48/13/28 47/14/28 43/15/24
f 49/4/1 51/1/1 52/2/2 50/3/2
f 51/1/6 55/4/6 56/3/6 52/2/6
f 55/1/4 53/4/4 54/3/5 56/2/5
f 53/4/3 49/1/3 50/2/3 54/3/3
f 51/1/7 49/4/7 53/4/7 55/1/7
f 52/2/2 58/5/8 57/6/8 50/3/2
f 57/5/3 61/8/3 64/7/3 60/6/3
f 50/2/3 57/5/3 60/6/3 54/3/3
f 56/3/6 59/6/6 58/5/6 52/2/6
f 54/3/5 60/6/9 59/5/9 56/2/5
f 64/7/10 68/9/11 67/10/11 63/8/10
f 59/6/6 63/7/6 62/8/6 58/5/6
f 60/6/9 64/7/10 63/8/10 59/5/9
f 58/5/8 62/8/12 61/7/12 57/6/8
f 66/12/13 70/13/14 69/14/14 65/11/13
f 62/8/12 66/12/13 65/11/13 61/7/12
f 61/8/3 65/16/3 68/15/3 64/7/3
f 63/7/6 67/15/6 66/16/6 62/8/6
f 71/20/15 72/17/15 69/18/15 70/19/15
f 65/16/3 69/13/3 72/14/3 68/15/3
f 67/15/6 71/14/6 70/13/6 66/16/6
f 68/9/11 72/14/16 71/13/16 67/10/11
f 73/4/17 74/3/18 76/2/18 75/1/17
f 75/4/6 76/3/6 80/2/6 79/1/6
f 79/1/19 80/2/20 78/3/20 77/4/19
f 77/1/3 78/2/3 74/3/3 73/4/3
f 75/19/7 79/20/7 77/17/7 73/18/7
f 76/2/18 74/3/18 81/6/21 82/5/21
f 81/6/3 84/5/3 88/8/3 85/7/3
f 74/3/3 78/2/3 84/5/3 81/6/3
f 80/2/6 76/3/6 82/6/6 83/5/6
f 78/3/20 80/2/20 83/5/22 84/6/22
f 88/7/23 87/8/23 91/16/24 92/15/24
f 83/5/6 82/6/6 86/7/6 87/8/6
f 84/6/22 83/5/22 87/8/23 88/7/23
f 82/5/21 81/6/21 85/7/25 86/8/25
f 90/16/26 89/15/26 93/14/27 94/13/27
f 86/8/25 85/7/25 89/15/26 90/16/26
f 85/7/3 88/8/3 92/16/3 89/15/3
f 87/8/6 86/7/6 90/15/6 91/16/6
f 95/19/15 94/20/15 93/17/15 96/18/15
f 89/15/3 92/16/3 96/13/3 93/14/3
f 91/16/6 90/15/6 94/14/6 95/13/6
f 92/15/24 91/16/24 95/13/28 96/14/28
f 105/21/29 108/22/30 100/23/31 99/24/32
f 109/25/33 112/26/34 102/27/35 101/28/35
f 123/29/36 124/30/37 98/31/38 97/32/39
f 126/33/40 109/25/41 101/28/42 123/34/43
f 112/26/34 111/35/44 120/36/45 116/37/46
f 107/38/47 98/31/38 118/39/48 119/40/49
f 122/41/50 100/23/31 114/42/51 127/43/52
f 121/44/53 103/45/54 110/46/55 125/47/56
f 125/47/56 110/46/55 109/25/41 126/33/40
f 103/45/57 104/48/57 111/35/44 110/46/58
f 110/46/58 111/35/44 112/26/34 109/25/33
f 97/32/39 98/31/38 107/38/47 106/49/59
f 106/49/59 107/38/47 108/22/30 105/21/29
f 130/50/60 119/40/49 118/39/48 128/51/61
f 127/43/52 114/42/51 113/52/62 129/53/63
f 129/53/63 113/52/62 119/40/49 130/50/60
f 102/27/64 112/26/34 116/37/46 117/54/65
f 108/22/30 107/38/47 119/40/49 113/52/62
f 100/23/31 108/22/30 113/52/62 114/42/51
f 111/35/44 104/48/66 115/55/67 120/36/45
f 98/31/38 124/30/68 128/51/61 118/39/48
f 120/36/45 129/53/63 130/50/60 116/37/46
f 115/55/67 127/43/52 129/53/63 120/36/45
f 116/37/46 130/50/60 128/51/61 117/54/65
f 105/56/69 125/47/56 126/33/40 106/57/70
f 99/58/71 121/44/53 125/47/56 105/56/69
f 106/57/70 126/33/40 123/34/43 97/59/72
f 99/24/32 100/23/31 122/41/73 121/60/73
f 162/61/74 132/62/75 134/63/76 163/64/77
f 163/65/3 134/66/3 138/67/3 164/68/3
f 164/69/78 138/70/79 136/71/80 165/72/81
f 165/72/81 136/71/80 141/73/82 167/74/83
f 133/75/7 137/76/7 135/77/7 131/78/7
f 138/79/84 134/80/84 132/81/85 136/82/86
f 139/83/7 142/84/7 146/85/7 143/86/7
f 162/61/74 131/87/87 139/88/88 166/89/89
f 131/78/7 135/77/7 142/84/7 139/83/7
f 136/82/86 132/81/85 140/90/90 141/91/91
f 176/92/92 143/93/93 170/94/94
f 166/89/89 139/88/88 143/93/93 168/95/95
f 141/91/91 140/90/90 144/96/96 145/97/97
f 167/74/83 141/73/82 145/98/98 169/99/99
f 157/100/100 156/101/101 151/102/102 152/103/103
f 160/104/104 159/105/105 147/106/106 148/107/107
f 175/108/108 160/109/109 148/110/110 171/111/111
f 143/86/7 161/112/7 149/113/7
f 150/114/112 153/115/113 123/116/114
f 173/117/115 157/118/116 152/119/117
f 150/114/112 158/120/7 153/115/113
f 172/121/118 150/122/119 128/123/120
f 174/124/121 155/125/121 154/126/121 128/127/121
f 152/103/103 151/102/102 154/126/122 155/125/122
f 173/117/115 152/119/117 155/128/123 174/129/124
f 170/94/94 143/93/93 150/122/119 172/121/118
f 143/86/7 149/113/7 158/120/7 150/114/112
f 171/111/111 148/110/110 157/118/116 173/117/115
f 148/107/107 147/106/106 156/101/101 157/100/100
f 143/86/7 146/85/7 161/112/7
f 169/99/99 145/98/98 160/109/109 175/108/108
f 145/97/97 144/96/96 159/105/105 160/104/104
f 168/95/95 143/93/93 176/92/92
f 144/130/125 168/95/95 176/92/92 159/131/126
f 147/132/127 170/94/94 172/121/118 156/133/128
f 151/134/129 172/121/118 128/123/120 154/135/130
f 124/30/68 174/136/131 128/51/61
f 156/133/128 172/121/118 151/134/129
f 179/137/132 167/74/83 169/99/99
f 140/138/133 166/89/89 168/95/95 144/130/125
f 159/131/126 176/92/92 170/94/94 147/132/127
f 132/62/75 162/61/74 166/89/89 140/138/133
f 178/139/134 165/72/81 167/74/83 179/137/132
f 177/140/135 164/69/78 165/72/81 178/139/134
f 163/65/3 164/68/3 177/141/3
f 131/87/87 162/61/74 163/64/77 133/142/136
f 133/143/3 163/65/3 177/141/3 137/144/3
f 137/145/137 177/140/135 178/139/134 135/146/138
f 135/146/138 178/139/134 179/137/132 142/147/139
f 142/147/139 179/137/132 169/99/99 146/148/140
f 161/149/141 175/108/108 171/111/111 149/150/142
f 158/151/143 173/117/115 174/129/124 153/152/144
f 153/153/144 174/136/124 124/30/37 123/29/36
f 149/150/142 171/111/111 173/117/115 158/151/143
f 146/148/140 169/99/99 175/108/108 161/149/141
f 207/61/145 163/64/146 134/63/147 181/62/148
f 164/69/149 208/154/150 183/71/151 138/70/152
f 208/154/150 210/74/153 186/73/154 183/71/151
f 133/75/7 180/155/7 182/77/7 137/76/7
f 138/79/84 183/82/155 181/81/156 134/80/84
f 184/83/7 188/86/7 191/85/7 187/84/7
f 207/61/145 209/89/157 184/88/158 180/87/159
f 180/155/7 184/83/7 187/84/7 182/77/7
f 183/82/155 186/91/160 185/90/161 181/81/156
f 219/92/162 213/156/163 188/93/164
f 209/89/157 211/157/165 188/93/164 184/88/158
f 186/91/160 190/97/166 189/96/167 185/90/161
f 210/74/153 212/99/168 190/98/169 186/73/154
f 202/100/170 197/103/171 196/102/172 201/101/173
f 205/104/174 193/107/175 192/106/176 204/105/177
f 218/108/178 214/111/179 193/158/180 205/159/181
f 188/86/7 194/113/7 206/112/7
f 195/114/182 121/116/183 198/115/184
f 216/117/185 197/119/186 202/118/187
f 195/114/182 198/115/184 203/120/7
f 215/121/188 127/123/189 195/122/190
f 217/124/191 127/127/191 199/126/191 200/125/191
f 127/160/189 122/161/192 121/162/192 195/163/190
f 197/103/171 200/125/193 199/126/193 196/102/172
f 216/117/185 217/164/194 200/128/195 197/119/186
f 213/156/163 215/121/188 195/122/190 188/93/164
f 188/86/7 195/114/182 203/120/7 194/113/7
f 214/111/179 216/117/185 202/118/187 193/158/180
f 193/107/175 202/100/170 201/101/173 192/106/176
f 188/86/7 206/112/7 191/85/7
f 212/99/168 218/108/178 205/159/181 190/98/169
f 190/97/166 205/104/174 204/105/177 189/96/167
f 211/157/165 219/92/162 188/93/164
f 189/165/196 204/131/197 219/92/162 211/157/165
f 192/166/198 201/133/199 215/121/188 213/156/163
f 196/167/200 199/168/201 127/123/189 215/121/188
f 122/41/202 127/43/202 217/169/202
f 201/133/199 196/167/200 215/121/188
f 221/137/203 212/99/168 210/74/153
f 185/138/204 189/165/196 211/157/165 209/89/157
f 204/131/197 192/166/198 213/156/163 219/92/162
f 181/62/148 185/138/204 209/89/157 207/61/145
f 220/170/205 221/137/203 210/74/153 208/154/150
f 177/171/206 220/170/205 208/154/150 164/69/149
f 180/87/159 133/142/207 163/64/146 207/61/145
f 137/145/208 182/146/209 220/170/205 177/171/206
f 182/146/209 187/172/210 221/137/203 220/170/205
f 187/172/210 191/148/211 212/99/168 221/137/203
f 206/173/212 194/150/213 214/111/179 218/108/178
f 203/174/214 198/175/215 217/164/194 216/117/185
f 198/176/215 121/60/216 122/41/216 217/169/194
f 194/150/213 203/174/214 216/117/185 214/111/179
f 191/148/211 206/173/212 218/108/178 212/99/168
