# Blender 4.0.2
# www.blender.org
mtllib flowerPot.mtl
o Flower_Pot
v 0.000000 0.000000 -0.081156
v 0.000000 0.500000 -0.170512
v 0.040578 0.000000 -0.070283
v 0.085256 0.500000 -0.147668
v 0.070283 0.000000 -0.040578
v 0.147668 0.500000 -0.085256
v 0.081156 0.000000 0.000000
v 0.170512 0.500000 0.000000
v 0.070283 0.000000 0.040578
v 0.147668 0.500000 0.085256
v 0.040578 0.000000 0.070283
v 0.085256 0.500000 0.147668
v 0.000000 0.000000 0.081156
v 0.000000 0.500000 0.170512
v -0.040578 0.000000 0.070283
v -0.085256 0.500000 0.147668
v -0.070283 0.000000 0.040578
v -0.147668 0.500000 0.085256
v -0.081156 0.000000 0.000000
v -0.170512 0.500000 0.000000
v -0.070283 0.000000 -0.040578
v -0.147668 0.500000 -0.085256
v -0.040578 0.000000 -0.070283
v -0.085256 0.500000 -0.147668
v 0.000000 0.083333 -0.164736
v 0.000000 0.166667 -0.200000
v 0.000000 0.250000 -0.200000
v 0.000000 0.326410 -0.147668
v 0.000000 0.370441 -0.060924
v 0.030462 0.370441 -0.052762
v 0.073834 0.326410 -0.127884
v 0.100000 0.250000 -0.173205
v 0.100000 0.166667 -0.173205
v 0.082368 0.083333 -0.142666
v 0.052762 0.370441 -0.030462
v 0.127884 0.326410 -0.073834
v 0.173205 0.250000 -0.100000
v 0.173205 0.166667 -0.100000
v 0.142666 0.083333 -0.082368
v 0.060924 0.370441 0.000000
v 0.147668 0.326410 0.000000
v 0.200000 0.250000 0.000000
v 0.200000 0.166667 0.000000
v 0.164736 0.083333 0.000000
v 0.052762 0.370441 0.030462
v 0.127884 0.326410 0.073834
v 0.173205 0.250000 0.100000
v 0.173205 0.166667 0.100000
v 0.142666 0.083333 0.082368
v 0.030462 0.370441 0.052762
v 0.073834 0.326410 0.127884
v 0.100000 0.250000 0.173205
v 0.100000 0.166667 0.173205
v 0.082368 0.083333 0.142666
v 0.000000 0.370441 0.060924
v 0.000000 0.326410 0.147668
v 0.000000 0.250000 0.200000
v 0.000000 0.166667 0.200000
v 0.000000 0.083333 0.164736
v -0.030462 0.370441 0.052762
v -0.073834 0.326410 0.127884
v -0.100000 0.250000 0.173205
v -0.100000 0.166667 0.173205
v -0.082368 0.083333 0.142666
v -0.052762 0.370441 0.030462
v -0.127884 0.326410 0.073834
v -0.173205 0.250000 0.100000
v -0.173205 0.166667 0.100000
v -0.142666 0.083333 0.082368
v -0.060924 0.370441 0.000000
v -0.147668 0.326410 0.000000
v -0.200000 0.250000 0.000000
v -0.200000 0.166667 0.000000
v -0.164736 0.083333 0.000000
v -0.052762 0.370441 -0.030462
v -0.127884 0.326410 -0.073834
v -0.173205 0.250000 -0.100000
v -0.173205 0.166667 -0.100000
v -0.142666 0.083333 -0.082368
v -0.030462 0.370441 -0.052762
v -0.073834 0.326410 -0.127884
v -0.100000 0.250000 -0.173205
v -0.100000 0.166667 -0.173205
v -0.082368 0.083333 -0.142666
v -0.000000 0.454340 -0.123970
v 0.061985 0.454340 -0.107361
v 0.107361 0.454340 -0.061985
v 0.123970 0.454340 0.000000
v 0.107361 0.454340 0.061985
v 0.061985 0.454340 0.107361
v -0.000000 0.454340 0.123970
v -0.061985 0.454340 0.107361
v -0.107361 0.454340 0.061985
v -0.123970 0.454340 0.000000
v -0.107361 0.454340 -0.061985
v -0.061985 0.454340 -0.107361
v 0.100000 0.500000 -0.173205
v 0.000000 0.500000 -0.200000
v 0.173205 0.500000 -0.100000
v 0.200000 0.500000 0.000000
v 0.173205 0.500000 0.100000
v 0.100000 0.500000 0.173205
v 0.000000 0.500000 0.200000
v -0.100000 0.500000 0.173205
v -0.173205 0.500000 0.100000
v -0.200000 0.500000 0.000000
v -0.173205 0.500000 -0.100000
v -0.100000 0.500000 -0.173205
v 0.028897 0.421676 -0.050051
v -0.000000 0.421676 -0.057794
v 0.050051 0.421676 -0.028897
v 0.057794 0.421676 -0.000000
v 0.050051 0.421676 0.028897
v 0.028897 0.421676 0.050051
v -0.000000 0.421676 0.057794
v -0.028897 0.421676 0.050051
v -0.050051 0.421676 0.028897
v -0.057794 0.421676 -0.000000
v -0.050051 0.421676 -0.028897
v -0.028897 0.421676 -0.050051
v 0.000000 0.352898 -0.079045
v 0.039523 0.352898 -0.068455
v 0.068455 0.352898 -0.039523
v 0.079045 0.352898 0.000000
v 0.068455 0.352898 0.039523
v 0.039523 0.352898 0.068455
v 0.000000 0.352898 0.079045
v -0.039523 0.352898 0.068455
v -0.068455 0.352898 0.039523
v -0.079045 0.352898 0.000000
v -0.068455 0.352898 -0.039523
v -0.039523 0.352898 -0.068455
v 0.000000 0.301455 -0.180576
v 0.090288 0.301455 -0.156383
v 0.156383 0.301455 -0.090288
v 0.180576 0.301455 0.000000
v 0.156383 0.301455 0.090288
v 0.090288 0.301455 0.156383
v 0.000000 0.301455 0.180576
v -0.090288 0.301455 0.156383
v -0.156383 0.301455 0.090288
v -0.180576 0.301455 0.000000
v -0.156383 0.301455 -0.090288
v -0.090288 0.301455 -0.156383
v 0.039718 0.413764 -0.068793
v 0.068793 0.413764 -0.039718
v 0.079435 0.413764 0.000000
v 0.068793 0.413764 0.039718
v 0.039718 0.413764 0.068793
v 0.000000 0.413764 0.079435
v -0.039718 0.413764 0.068793
v -0.068793 0.413764 0.039718
v -0.079435 0.413764 0.000000
v -0.068793 0.413764 -0.039718
v -0.039718 0.413764 -0.068793
v 0.000000 0.413764 -0.079435
vn -0.0000 -0.8101 -0.5863
vn -0.0000 -0.8573 -0.5148
vn 0.2574 -0.8573 -0.4459
vn 0.2932 -0.8101 -0.5078
vn 0.4459 -0.8573 -0.2574
vn 0.5078 -0.8101 -0.2932
vn 0.5148 -0.8573 -0.0000
vn 0.5863 -0.8101 -0.0000
vn 0.4459 -0.8573 0.2574
vn 0.5078 -0.8101 0.2932
vn 0.2574 -0.8573 0.4459
vn 0.2932 -0.8101 0.5078
vn -0.0000 -0.8573 0.5148
vn -0.0000 -0.8101 0.5863
vn -0.2574 -0.8573 0.4459
vn -0.2932 -0.8101 0.5078
vn -0.4459 -0.8573 0.2574
vn -0.5078 -0.8101 0.2932
vn -0.5148 -0.8573 -0.0000
vn -0.5863 -0.8101 -0.0000
vn -0.4459 -0.8573 -0.2574
vn -0.5078 -0.8101 -0.2932
vn 0.1262 0.9676 0.2186
vn 0.2186 0.9676 0.1262
vn 0.2970 0.9394 0.1715
vn 0.1715 0.9394 0.2970
vn -0.2574 -0.8573 -0.4459
vn -0.2932 -0.8101 -0.5078
vn -0.0000 -0.9011 -0.4336
vn 0.2168 -0.9011 -0.3755
vn 0.3755 -0.9011 -0.2168
vn 0.4336 -0.9011 -0.0000
vn 0.3755 -0.9011 0.2168
vn 0.2168 -0.9011 0.3755
vn -0.0000 -0.9011 0.4336
vn -0.2168 -0.9011 0.3755
vn -0.3755 -0.9011 0.2168
vn -0.4336 -0.9011 -0.0000
vn -0.3755 -0.9011 -0.2168
vn -0.2168 -0.9011 -0.3755
vn -0.4192 -0.5451 -0.7261
vn -0.0000 -0.5451 -0.8384
vn -0.4906 -0.1927 -0.8498
vn -0.0000 -0.1927 -0.9813
vn -0.4923 0.1745 -0.8527
vn -0.0000 0.1745 -0.9847
vn -0.4082 0.5774 -0.7071
vn -0.2521 0.8635 -0.4367
vn -0.0000 0.8635 -0.5043
vn -0.0000 0.5774 -0.8165
vn -0.2571 0.8576 -0.4454
vn -0.4879 0.2185 -0.8451
vn -0.0000 0.2185 -0.9758
vn -0.0000 0.8576 -0.5143
vn -0.7261 -0.5451 -0.4192
vn -0.8498 -0.1927 -0.4906
vn -0.8527 0.1745 -0.4923
vn -0.7071 0.5774 -0.4082
vn -0.4367 0.8635 -0.2521
vn -0.4454 0.8576 -0.2571
vn -0.8451 0.2185 -0.4879
vn -0.8384 -0.5451 -0.0000
vn -0.9813 -0.1927 -0.0000
vn -0.9847 0.1745 -0.0000
vn -0.8165 0.5774 -0.0000
vn -0.5043 0.8635 -0.0000
vn -0.5143 0.8576 -0.0000
vn -0.9758 0.2185 -0.0000
vn -0.7261 -0.5451 0.4192
vn -0.8498 -0.1927 0.4906
vn -0.8527 0.1745 0.4923
vn -0.7071 0.5774 0.4082
vn -0.4367 0.8635 0.2521
vn -0.4454 0.8576 0.2571
vn -0.8451 0.2185 0.4879
vn -0.4192 -0.5451 0.7261
vn -0.4906 -0.1927 0.8498
vn -0.4923 0.1745 0.8527
vn -0.4082 0.5774 0.7071
vn -0.2521 0.8635 0.4367
vn -0.2571 0.8576 0.4454
vn -0.4879 0.2185 0.8451
vn -0.0000 -0.5451 0.8384
vn -0.0000 -0.1927 0.9813
vn -0.0000 0.1745 0.9847
vn -0.0000 0.5774 0.8165
vn -0.0000 0.8635 0.5043
vn -0.0000 0.8576 0.5143
vn -0.0000 0.2185 0.9758
vn 0.4192 -0.5451 0.7261
vn 0.4906 -0.1927 0.8498
vn 0.4923 0.1745 0.8527
vn 0.4082 0.5774 0.7071
vn 0.2521 0.8635 0.4367
vn 0.2571 0.8576 0.4454
vn 0.4879 0.2185 0.8451
vn 0.7261 -0.5451 0.4192
vn 0.8498 -0.1927 0.4906
vn 0.8527 0.1745 0.4923
vn 0.7071 0.5774 0.4082
vn 0.4367 0.8635 0.2521
vn 0.4454 0.8576 0.2571
vn 0.8451 0.2185 0.4879
vn 0.8384 -0.5451 -0.0000
vn 0.9813 -0.1927 -0.0000
vn 0.9847 0.1745 -0.0000
vn 0.8165 0.5774 -0.0000
vn 0.5043 0.8635 -0.0000
vn 0.5143 0.8576 -0.0000
vn 0.9758 0.2185 -0.0000
vn 0.7261 -0.5451 -0.4192
vn 0.8498 -0.1927 -0.4906
vn 0.8527 0.1745 -0.4923
vn 0.7071 0.5774 -0.4082
vn 0.4367 0.8635 -0.2521
vn 0.4454 0.8576 -0.2571
vn 0.8451 0.2185 -0.4879
vn 0.4192 -0.5451 -0.7261
vn 0.4906 -0.1927 -0.8498
vn 0.4923 0.1745 -0.8527
vn 0.4082 0.5774 -0.7071
vn 0.2521 0.8635 -0.4367
vn 0.2571 0.8576 -0.4454
vn 0.4879 0.2185 -0.8451
vn -0.4013 -0.5965 -0.6951
vn -0.0000 -0.5965 -0.8026
vn -0.6951 -0.5965 -0.4013
vn -0.8026 -0.5965 -0.0000
vn -0.6951 -0.5965 0.4013
vn -0.4013 -0.5965 0.6951
vn -0.0000 -0.5965 0.8026
vn 0.4013 -0.5965 0.6951
vn 0.6951 -0.5965 0.4013
vn 0.8026 -0.5965 -0.0000
vn 0.6951 -0.5965 -0.4013
vn 0.4013 -0.5965 -0.6951
vn -0.0000 0.9676 0.2524
vn -0.1262 0.9676 0.2186
vn -0.0000 1.0000 -0.0000
vn -0.2186 0.9676 0.1262
vn -0.2524 0.9676 -0.0000
vn -0.2186 0.9676 -0.1262
vn -0.1262 0.9676 -0.2186
vn -0.0000 0.9676 -0.2524
vn 0.1262 0.9676 -0.2186
vn 0.2186 0.9676 -0.1262
vn 0.2524 0.9676 -0.0000
vn -0.1715 0.9394 0.2970
vn -0.0000 0.9394 0.3429
vn 0.3429 0.9394 -0.0000
vn 0.2970 0.9394 -0.1715
vn 0.1715 0.9394 -0.2970
vn -0.0000 0.9394 -0.3429
vn -0.1715 0.9394 -0.2970
vn -0.2970 0.9394 -0.1715
vn -0.3429 0.9394 -0.0000
vn -0.2970 0.9394 0.1715
vt 0.250000 0.257812
vt 0.250000 0.140625
vt 0.171875 0.140625
vt 0.171875 0.257812
vt 0.078125 0.140625
vt 0.078125 0.257812
vt 0.000000 0.140625
vt 0.000000 0.257812
vt 1.000000 0.257812
vt 1.000000 0.140625
vt 0.921875 0.140625
vt 0.921875 0.257812
vt 0.828125 0.140625
vt 0.828125 0.257812
vt 0.750000 0.140625
vt 0.750000 0.257812
vt 0.671875 0.140625
vt 0.671875 0.257812
vt 0.578125 0.140625
vt 0.578125 0.257812
vt 0.500000 0.140625
vt 0.500000 0.257812
vt 0.421875 0.140625
vt 0.421875 0.257812
vt 0.914062 0.125000
vt 0.828125 0.125000
vt 0.828125 0.000000
vt 0.914062 0.000000
vt 0.328125 0.140625
vt 0.328125 0.257812
vt 0.750000 0.070312
vt 0.867188 0.101562
vt 0.960938 0.195312
vt 0.992188 0.312500
vt 0.960938 0.429688
vt 0.867188 0.523438
vt 0.750000 0.554688
vt 0.632812 0.523438
vt 0.539062 0.429688
vt 0.507812 0.312500
vt 0.539062 0.195312
vt 0.632812 0.101562
vt 0.328125 1.000000
vt 0.328125 0.851562
vt 0.250000 0.851562
vt 0.250000 1.000000
vt 0.328125 0.742188
vt 0.250000 0.742188
vt 0.328125 0.625000
vt 0.250000 0.625000
vt 0.328125 0.562500
vt 0.328125 0.515625
vt 0.250000 0.515625
vt 0.250000 0.562500
vt 0.328125 0.414062
vt 0.328125 0.382812
vt 0.250000 0.382812
vt 0.250000 0.414062
vt 0.421875 1.000000
vt 0.421875 0.851562
vt 0.421875 0.742188
vt 0.421875 0.625000
vt 0.421875 0.562500
vt 0.421875 0.515625
vt 0.421875 0.414062
vt 0.421875 0.382812
vt 0.500000 1.000000
vt 0.500000 0.851562
vt 0.500000 0.742188
vt 0.500000 0.625000
vt 0.500000 0.562500
vt 0.500000 0.515625
vt 0.500000 0.414062
vt 0.500000 0.382812
vt 0.578125 1.000000
vt 0.578125 0.851562
vt 0.578125 0.742188
vt 0.578125 0.625000
vt 0.578125 0.562500
vt 0.578125 0.515625
vt 0.578125 0.414062
vt 0.578125 0.382812
vt 0.671875 1.000000
vt 0.671875 0.851562
vt 0.671875 0.742188
vt 0.671875 0.625000
vt 0.671875 0.562500
vt 0.671875 0.515625
vt 0.671875 0.414062
vt 0.671875 0.382812
vt 0.750000 1.000000
vt 0.750000 0.851562
vt 0.750000 0.742188
vt 0.750000 0.625000
vt 0.750000 0.562500
vt 0.750000 0.515625
vt 0.750000 0.414062
vt 0.750000 0.382812
vt 0.828125 1.000000
vt 0.828125 0.851562
vt 0.828125 0.742188
vt 0.828125 0.625000
vt 0.828125 0.562500
vt 0.828125 0.515625
vt 0.828125 0.414062
vt 0.828125 0.382812
vt 0.921875 1.000000
vt 0.921875 0.851562
vt 0.921875 0.742188
vt 0.921875 0.625000
vt 0.921875 0.562500
vt 0.921875 0.515625
vt 0.921875 0.414062
vt 0.921875 0.382812
vt 1.000000 1.000000
vt 1.000000 0.851562
vt 1.000000 0.742188
vt 1.000000 0.625000
vt 1.000000 0.562500
vt 1.000000 0.515625
vt 1.000000 0.414062
vt 1.000000 0.382812
vt 0.078125 1.000000
vt 0.078125 0.851562
vt 0.000000 0.851562
vt 0.000000 1.000000
vt 0.078125 0.742188
vt 0.000000 0.742188
vt 0.078125 0.625000
vt 0.000000 0.625000
vt 0.078125 0.562500
vt 0.078125 0.515625
vt 0.000000 0.515625
vt 0.000000 0.562500
vt 0.078125 0.414062
vt 0.078125 0.382812
vt 0.000000 0.382812
vt 0.000000 0.414062
vt 0.171875 1.000000
vt 0.171875 0.851562
vt 0.171875 0.742188
vt 0.171875 0.625000
vt 0.171875 0.562500
vt 0.171875 0.515625
vt 0.171875 0.414062
vt 0.171875 0.382812
vt 0.328125 0.328125
vt 0.250000 0.328125
vt 0.421875 0.328125
vt 0.500000 0.328125
vt 0.578125 0.328125
vt 0.671875 0.328125
vt 0.750000 0.328125
vt 0.828125 0.328125
vt 0.921875 0.328125
vt 1.000000 0.328125
vt 0.078125 0.328125
vt 0.000000 0.328125
vt 0.171875 0.328125
vt 0.000000 0.125000
vt 0.085938 0.125000
vt 0.085938 0.148438
vt 0.000000 0.148438
vt 0.164062 0.125000
vt 0.164062 0.148438
vt 0.250000 0.125000
vt 0.250000 0.148438
vt 0.335938 0.125000
vt 0.335938 0.148438
vt 0.421875 0.125000
vt 0.421875 0.148438
vt 0.500000 0.125000
vt 0.500000 0.148438
vt 0.578125 0.125000
vt 0.578125 0.148438
vt 0.664062 0.125000
vt 0.664062 0.148438
vt 0.750000 0.125000
vt 0.750000 0.148438
vt 0.835938 0.125000
vt 0.835938 0.148438
vt 0.914062 0.148438
vt 1.000000 0.125000
vt 1.000000 0.148438
vt 0.804688 0.007812
vt 0.796875 0.007812
vt 0.796875 0.015625
vt 0.789062 0.007812
vt 0.796875 -0.000000
vt 0.078125 0.125000
vt 0.000000 0.000000
vt 0.078125 0.000000
vt 0.578125 0.000000
vt 0.664062 0.000000
vt 0.414062 0.125000
vt 0.335938 0.000000
vt 0.414062 0.000000
vt -0.085938 0.125000
vt -0.085938 0.000000
vt 0.164062 0.000000
vt 0.750000 0.000000
vt 0.492188 0.125000
vt 0.492188 0.000000
vt 0.250000 0.000000
s 1
usemtl flowerpot01
f 85/1/1 98/2/2 97/3/3 86/4/4
f 86/4/4 97/3/3 99/5/5 87/6/6
f 87/6/6 99/5/5 100/7/7 88/8/8
f 88/9/8 100/10/7 101/11/9 89/12/10
f 89/12/10 101/11/9 102/13/11 90/14/12
f 90/14/12 102/13/11 103/15/13 91/16/14
f 91/16/14 103/15/13 104/17/15 92/18/16
f 92/18/16 104/17/15 105/19/17 93/20/18
f 93/20/18 105/19/17 106/21/19 94/22/20
f 94/22/20 106/21/19 107/23/21 95/24/22
f 24/25/23 22/26/24 119/27/25 120/28/26
f 95/24/22 107/23/21 108/29/27 96/30/28
f 96/30/28 108/29/27 98/2/2 85/1/1
f 1/31/29 3/32/30 5/33/31 7/34/32 9/35/33 11/36/34 13/37/35 15/38/36 17/39/37 19/40/38 21/41/39 23/42/40
f 23/43/40 84/44/41 25/45/42 1/46/29
f 84/44/41 83/47/43 26/48/44 25/45/42
f 83/47/43 82/49/45 27/50/46 26/48/44
f 144/51/47 81/52/48 28/53/49 133/54/50
f 132/55/51 80/56/52 29/57/53 121/58/54
f 21/59/39 79/60/55 84/44/41 23/43/40
f 79/60/55 78/61/56 83/47/43 84/44/41
f 78/61/56 77/62/57 82/49/45 83/47/43
f 143/63/58 76/64/59 81/52/48 144/51/47
f 131/65/60 75/66/61 80/56/52 132/55/51
f 19/67/38 74/68/62 79/60/55 21/59/39
f 74/68/62 73/69/63 78/61/56 79/60/55
f 73/69/63 72/70/64 77/62/57 78/61/56
f 142/71/65 71/72/66 76/64/59 143/63/58
f 130/73/67 70/74/68 75/66/61 131/65/60
f 17/75/37 69/76/69 74/68/62 19/67/38
f 69/76/69 68/77/70 73/69/63 74/68/62
f 68/77/70 67/78/71 72/70/64 73/69/63
f 141/79/72 66/80/73 71/72/66 142/71/65
f 129/81/74 65/82/75 70/74/68 130/73/67
f 15/83/36 64/84/76 69/76/69 17/75/37
f 64/84/76 63/85/77 68/77/70 69/76/69
f 63/85/77 62/86/78 67/78/71 68/77/70
f 140/87/79 61/88/80 66/80/73 141/79/72
f 128/89/81 60/90/82 65/82/75 129/81/74
f 13/91/35 59/92/83 64/84/76 15/83/36
f 59/92/83 58/93/84 63/85/77 64/84/76
f 58/93/84 57/94/85 62/86/78 63/85/77
f 139/95/86 56/96/87 61/88/80 140/87/79
f 127/97/88 55/98/89 60/90/82 128/89/81
f 11/99/34 54/100/90 59/92/83 13/91/35
f 54/100/90 53/101/91 58/93/84 59/92/83
f 53/101/91 52/102/92 57/94/85 58/93/84
f 138/103/93 51/104/94 56/96/87 139/95/86
f 126/105/95 50/106/96 55/98/89 127/97/88
f 9/107/33 49/108/97 54/100/90 11/99/34
f 49/108/97 48/109/98 53/101/91 54/100/90
f 48/109/98 47/110/99 52/102/92 53/101/91
f 137/111/100 46/112/101 51/104/94 138/103/93
f 125/113/102 45/114/103 50/106/96 126/105/95
f 7/115/32 44/116/104 49/108/97 9/107/33
f 44/116/104 43/117/105 48/109/98 49/108/97
f 43/117/105 42/118/106 47/110/99 48/109/98
f 136/119/107 41/120/108 46/112/101 137/111/100
f 124/121/109 40/122/110 45/114/103 125/113/102
f 5/123/31 39/124/111 44/125/104 7/126/32
f 39/124/111 38/127/112 43/128/105 44/125/104
f 38/127/112 37/129/113 42/130/106 43/128/105
f 135/131/114 36/132/115 41/133/108 136/134/107
f 123/135/116 35/136/117 40/137/110 124/138/109
f 3/139/30 34/140/118 39/124/111 5/123/31
f 34/140/118 33/141/119 38/127/112 39/124/111
f 33/141/119 32/142/120 37/129/113 38/127/112
f 134/143/121 31/144/122 36/132/115 135/131/114
f 122/145/123 30/146/124 35/136/117 123/135/116
f 1/46/29 25/45/42 34/140/118 3/139/30
f 25/45/42 26/48/44 33/141/119 34/140/118
f 26/48/44 27/50/46 32/142/120 33/141/119
f 133/54/50 28/53/49 31/144/122 134/143/121
f 121/58/54 29/57/53 30/146/124 122/145/123
f 155/147/125 96/30/28 85/1/1 156/148/126
f 154/149/127 95/24/22 96/30/28 155/147/125
f 153/150/128 94/22/20 95/24/22 154/149/127
f 152/151/129 93/20/18 94/22/20 153/150/128
f 151/152/130 92/18/16 93/20/18 152/151/129
f 150/153/131 91/16/14 92/18/16 151/152/130
f 149/154/132 90/14/12 91/16/14 150/153/131
f 148/155/133 89/12/10 90/14/12 149/154/132
f 147/156/134 88/9/8 89/12/10 148/155/133
f 146/157/135 87/6/6 88/8/8 147/158/134
f 145/159/136 86/4/4 87/6/6 146/157/135
f 156/148/126 85/1/1 86/4/4 145/159/136
f 2/160/137 4/161/138 97/162/139 98/163/139
f 4/161/138 6/164/140 99/165/139 97/162/139
f 6/164/140 8/166/141 100/167/139 99/165/139
f 8/166/141 10/168/142 101/169/139 100/167/139
f 10/168/142 12/170/143 102/171/139 101/169/139
f 12/170/143 14/172/144 103/173/139 102/171/139
f 14/172/144 16/174/145 104/175/139 103/173/139
f 16/174/145 18/176/146 105/177/139 104/175/139
f 18/176/146 20/178/147 106/179/139 105/177/139
f 20/178/147 22/180/24 107/181/139 106/179/139
f 22/180/24 24/25/23 108/182/139 107/181/139
f 24/25/23 2/183/137 98/184/139 108/182/139
f 109/185/148 110/186/149 120/187/26 119/187/25 118/186/150 117/188/151 116/188/152 115/186/153 114/189/154 113/189/155 112/186/156 111/185/157
f 4/190/138 2/160/137 110/191/149 109/192/148
f 18/176/146 16/174/145 116/193/152 117/194/151
f 12/195/143 10/168/142 113/196/155 114/197/154
f 2/160/137 24/198/23 120/199/26 110/191/149
f 6/164/140 4/190/138 109/192/148 111/200/157
f 20/178/147 18/176/146 117/194/151 118/201/150
f 14/202/144 12/195/143 114/197/154 115/203/153
f 8/166/141 6/164/140 111/200/157 112/204/156
f 22/26/24 20/178/147 118/201/150 119/27/25
f 16/174/145 14/202/144 115/203/153 116/193/152
f 10/168/142 8/166/141 112/204/156 113/196/155
f 28/53/49 121/58/54 122/145/123 31/144/122
f 31/144/122 122/145/123 123/135/116 36/132/115
f 36/132/115 123/135/116 124/138/109 41/133/108
f 41/120/108 124/121/109 125/113/102 46/112/101
f 46/112/101 125/113/102 126/105/95 51/104/94
f 51/104/94 126/105/95 127/97/88 56/96/87
f 56/96/87 127/97/88 128/89/81 61/88/80
f 61/88/80 128/89/81 129/81/74 66/80/73
f 66/80/73 129/81/74 130/73/67 71/72/66
f 71/72/66 130/73/67 131/65/60 76/64/59
f 76/64/59 131/65/60 132/55/51 81/52/48
f 81/52/48 132/55/51 121/58/54 28/53/49
f 27/50/46 133/54/50 134/143/121 32/142/120
f 32/142/120 134/143/121 135/131/114 37/129/113
f 37/129/113 135/131/114 136/134/107 42/130/106
f 42/118/106 136/119/107 137/111/100 47/110/99
f 47/110/99 137/111/100 138/103/93 52/102/92
f 52/102/92 138/103/93 139/95/86 57/94/85
f 57/94/85 139/95/86 140/87/79 62/86/78
f 62/86/78 140/87/79 141/79/72 67/78/71
f 67/78/71 141/79/72 142/71/65 72/70/64
f 72/70/64 142/71/65 143/63/58 77/62/57
f 77/62/57 143/63/58 144/51/47 82/49/45
f 82/49/45 144/51/47 133/54/50 27/50/46
f 29/57/53 156/148/126 145/159/136 30/146/124
f 30/146/124 145/159/136 146/157/135 35/136/117
f 35/136/117 146/157/135 147/158/134 40/137/110
f 40/122/110 147/156/134 148/155/133 45/114/103
f 45/114/103 148/155/133 149/154/132 50/106/96
f 50/106/96 149/154/132 150/153/131 55/98/89
f 55/98/89 150/153/131 151/152/130 60/90/82
f 60/90/82 151/152/130 152/151/129 65/82/75
f 65/82/75 152/151/129 153/150/128 70/74/68
f 70/74/68 153/150/128 154/149/127 75/66/61
f 75/66/61 154/149/127 155/147/125 80/56/52
f 80/56/52 155/147/125 156/148/126 29/57/53
