# Blender 4.0.2
# www.blender.org
mtllib grandmaphone.mtl
o Grandmaphone
v -0.467679 0.000000 0.467679
v -0.400000 0.400000 0.400000
v -0.467679 0.000000 -0.467679
v -0.400000 0.400000 -0.400000
v 0.467679 0.000000 0.467679
v 0.400000 0.400000 0.400000
v 0.467679 0.000000 -0.467679
v 0.400000 0.400000 -0.400000
v -0.400000 0.096011 0.400000
v -0.400000 0.096011 -0.400000
v 0.400000 0.096011 -0.400000
v 0.400000 0.096011 0.400000
v -0.453549 0.079566 -0.453549
v 0.453549 0.079566 -0.453549
v 0.453549 0.079566 0.453549
v -0.453549 0.079566 0.453549
v -0.452194 0.400000 0.452194
v -0.452194 0.400000 -0.452194
v 0.452194 0.400000 -0.452194
v 0.452194 0.400000 0.452194
v -0.461453 0.421642 0.461453
v -0.461453 0.421642 -0.461453
v 0.461453 0.421642 -0.461453
v 0.461453 0.421642 0.461453
v -0.423715 0.072305 0.431953
v -0.423715 0.416088 0.431953
v -0.423715 0.072305 0.343129
v -0.423715 0.416088 0.343129
v -0.334891 0.072305 0.431953
v -0.334891 0.416088 0.431953
v -0.353941 0.072305 0.362648
v -0.353941 0.416088 0.362648
v 0.423715 0.072305 0.431953
v 0.423715 0.416088 0.431953
v 0.423715 0.072305 0.343129
v 0.423715 0.416088 0.343129
v 0.334891 0.072305 0.431953
v 0.334891 0.416088 0.431953
v 0.353941 0.072305 0.362648
v 0.353941 0.416088 0.362648
v -0.423715 0.072305 -0.431953
v -0.423715 0.416088 -0.431953
v -0.423715 0.072305 -0.343129
v -0.423715 0.416088 -0.343129
v -0.334891 0.072305 -0.431953
v -0.334891 0.416088 -0.431953
v -0.353941 0.072305 -0.362648
v -0.353941 0.416088 -0.362648
v 0.423715 0.072305 -0.431953
v 0.423715 0.416088 -0.431953
v 0.423715 0.072305 -0.343129
v 0.423715 0.416088 -0.343129
v 0.334891 0.072305 -0.431953
v 0.334891 0.416088 -0.431953
v 0.353941 0.072305 -0.362648
v 0.353941 0.416088 -0.362648
v -0.009855 0.415860 -0.411350
v -0.001332 0.633095 -0.407040
v 0.024110 0.415860 -0.397281
v 0.028750 0.633448 -0.385996
v 0.038178 0.415860 -0.363317
v 0.032454 0.634203 -0.349696
v 0.024110 0.415860 -0.329353
v 0.006832 0.633212 -0.322387
v -0.009868 0.415860 -0.315263
v -0.030744 0.632055 -0.320429
v -0.043818 0.415860 -0.329361
v -0.058076 0.633212 -0.342416
v -0.057887 0.415860 -0.363317
v -0.060404 0.634203 -0.374310
v -0.043819 0.415860 -0.397281
v -0.038209 0.633448 -0.400518
v 0.020438 0.694718 -0.369627
v -0.008344 0.703543 -0.390673
v 0.025318 0.673413 -0.340046
v 0.003401 0.652108 -0.319382
v -0.032374 0.643283 -0.319803
v -0.061013 0.652108 -0.340949
v -0.065838 0.673413 -0.370362
v -0.044064 0.694718 -0.390928
v 0.008574 0.724293 -0.333940
v -0.019770 0.739626 -0.351630
v 0.013141 0.694206 -0.313315
v -0.008745 0.666990 -0.301836
v -0.044264 0.658588 -0.306229
v -0.072609 0.673921 -0.323919
v -0.077176 0.704008 -0.344544
v -0.055289 0.731224 -0.356022
v -0.027968 0.909084 -0.090155
v -0.079334 0.958708 -0.137872
v -0.037827 0.835843 -0.046378
v -0.103137 0.781889 -0.032184
v -0.185639 0.778827 -0.055889
v -0.237005 0.828451 -0.103605
v -0.227145 0.901691 -0.147383
v -0.161836 0.955646 -0.161576
v 0.011543 0.983017 -0.013217
v -0.073513 1.065187 -0.092230
v -0.004783 0.861739 0.059272
v -0.112928 0.772398 0.082775
v -0.249541 0.767327 0.043524
v -0.334596 0.849498 -0.035489
v -0.318270 0.970775 -0.107979
v -0.210126 1.060117 -0.131481
v 0.127757 1.073674 0.036601
v -0.028116 1.224260 -0.108198
v 0.097838 0.851421 0.169445
v -0.100348 0.687693 0.212516
v -0.350705 0.678401 0.140584
v -0.506578 0.828987 -0.004215
v -0.476658 1.051240 -0.137059
v -0.278473 1.214968 -0.180130
v 0.068295 1.046686 0.028683
v -0.054182 1.165008 -0.085093
v 0.044786 0.872051 0.133065
v -0.110938 0.743403 0.166908
v -0.307655 0.736101 0.110388
v -0.430132 0.854424 -0.003388
v -0.406623 1.029059 -0.107770
v -0.250899 1.157707 -0.141613
v 0.183450 1.123914 0.063730
v -0.000408 1.301536 -0.107066
v 0.148159 0.861758 0.220425
v -0.085608 0.668636 0.271229
v -0.380913 0.657675 0.186383
v -0.564771 0.835297 0.015587
v -0.529480 1.097453 -0.141108
v -0.295713 1.290575 -0.191912
v -0.066145 0.935428 -0.041147
v -0.110170 0.977960 -0.082044
v -0.074595 0.872655 -0.003627
v -0.130571 0.826412 0.008538
v -0.201281 0.823788 -0.011778
v -0.245306 0.866319 -0.052675
v -0.236855 0.929092 -0.090196
v -0.180880 0.975335 -0.102361
v -0.026599 0.759701 -0.276212
v -0.045398 0.777863 -0.293676
v -0.030207 0.732895 -0.260190
v -0.054110 0.713149 -0.254995
v -0.084305 0.712028 -0.263671
v -0.103105 0.730190 -0.281135
v -0.099496 0.756995 -0.297157
v -0.075593 0.776742 -0.302351
v 0.210047 0.407799 -0.210155
v 0.210047 0.433321 -0.210155
v 0.210047 0.407799 -0.285870
v 0.210047 0.433321 -0.285870
v 0.285762 0.407799 -0.210155
v 0.285762 0.433321 -0.210155
v 0.285762 0.407799 -0.285870
v 0.285762 0.433321 -0.285870
v 0.230291 0.429878 -0.241962
v 0.244888 0.429878 -0.271420
v 0.259749 0.429878 -0.227365
v 0.274346 0.429878 -0.256822
v 0.230291 0.478024 -0.241962
v 0.244888 0.478024 -0.271420
v 0.274346 0.478024 -0.256822
v 0.259749 0.478024 -0.227365
v 0.257472 0.466943 -0.283062
v 0.257472 0.487606 -0.283062
v 0.275987 0.487606 -0.273888
v 0.275987 0.466943 -0.273888
v 0.097598 0.473578 0.054518
v 0.097598 0.480971 0.054518
v 0.104223 0.480971 0.057801
v 0.104223 0.473578 0.057801
v 0.091432 0.473578 0.066963
v 0.091432 0.480971 0.066963
v 0.098056 0.480971 0.070245
v 0.098056 0.473578 0.070245
v -0.102311 0.440539 -0.138455
v -0.102311 0.424258 -0.138455
v 0.097314 0.440539 -0.055767
v 0.097314 0.424258 -0.055767
v 0.180001 0.440539 0.143857
v 0.180001 0.424258 0.143857
v 0.097314 0.440539 0.343482
v 0.097314 0.424258 0.343482
v -0.102311 0.440539 0.426169
v -0.102311 0.424258 0.426169
v -0.301936 0.440539 0.343482
v -0.301936 0.424258 0.343482
v -0.384623 0.440539 0.143857
v -0.384623 0.424258 0.143857
v -0.301936 0.440539 -0.055767
v -0.301936 0.424258 -0.055767
vn -1.0000 -0.0000 -0.0000
vn -0.0000 -0.0000 -1.0000
vn 1.0000 -0.0000 -0.0000
vn -0.0000 -0.0000 1.0000
vn -0.0000 -1.0000 -0.0000
vn -0.4469 -0.7749 -0.4469
vn 0.4469 -0.7749 -0.4469
vn 0.5577 0.6148 0.5577
vn 0.1501 0.9772 0.1501
vn -0.1501 0.9772 0.1501
vn -0.5577 0.6148 0.5577
vn 0.5577 0.6148 -0.5577
vn 0.1501 0.9772 -0.1501
vn -0.5577 0.6148 -0.5577
vn -0.1501 0.9772 -0.1501
vn -0.9846 0.1748 -0.0000
vn -0.0000 0.1748 -0.9846
vn 0.9846 0.1748 -0.0000
vn -0.0000 0.1748 0.9846
vn 0.4469 -0.7749 0.4469
vn 0.9194 -0.3934 -0.0000
vn -0.4469 -0.7749 0.4469
vn -0.0000 1.0000 -0.0000
vn -0.9194 -0.3934 -0.0000
vn -0.0000 -0.3934 0.9194
vn -0.0000 -0.3934 -0.9194
vn 0.2694 -0.0000 -0.9630
vn 0.7087 -0.0000 -0.7055
vn 0.9642 -0.0000 -0.2650
vn -0.2694 -0.0000 -0.9630
vn -0.7087 -0.0000 -0.7055
vn -0.9642 -0.0000 -0.2650
vn 0.2694 -0.0000 0.9630
vn 0.7087 -0.0000 0.7055
vn 0.9642 -0.0000 0.2650
vn -0.2694 -0.0000 0.9630
vn -0.7087 -0.0000 0.7055
vn -0.9642 -0.0000 0.2650
vn 0.0995 0.0153 -0.9949
vn 0.1932 0.1241 -0.9733
vn 0.8225 0.1255 -0.5548
vn 0.7825 0.0182 -0.6224
vn 0.9722 0.0590 0.2266
vn 0.9890 0.0191 0.1469
vn 0.5042 -0.0251 0.8632
vn 0.5867 0.0183 0.8096
vn -0.2328 -0.0665 0.9702
vn -0.1331 0.0061 0.9911
vn -0.8498 -0.0908 0.5192
vn -0.7880 -0.0152 0.6154
vn -0.9619 -0.0447 -0.2697
vn -0.9904 -0.0191 -0.1367
vn 0.5002 -0.2585 0.8264
vn -0.2813 -0.4503 0.8474
vn -0.5145 0.0564 -0.8557
vn -0.6149 0.0002 -0.7886
vn 0.2601 0.5234 -0.8114
vn -0.4304 0.3455 -0.8339
vn -0.3434 0.5571 -0.7561
vn 0.3607 0.7170 -0.5965
vn -0.9004 -0.0222 -0.4344
vn 0.8328 0.4127 -0.3690
vn 0.9493 0.0874 0.3020
vn -0.8922 -0.3647 0.2663
vn -0.8383 0.0438 -0.5435
vn -0.8393 -0.5401 -0.0623
vn -0.6770 -0.5882 -0.4424
vn -0.6069 -0.0336 -0.7941
vn 0.4189 -0.6660 0.6173
vn -0.3254 -0.8434 0.4275
vn 0.8862 0.4398 -0.1455
vn 0.9235 -0.1264 0.3623
vn 0.9436 0.1400 -0.3002
vn 0.5100 0.4861 -0.7096
vn 0.4745 -0.0008 -0.8802
vn 0.7379 -0.2294 -0.6348
vn 0.3699 -0.9089 0.1924
vn -0.2851 -0.9579 -0.0343
vn 0.8908 -0.4469 0.0822
vn -0.1275 0.4049 -0.9054
vn 0.0811 -0.0391 -0.9959
vn -0.2136 -0.2991 -0.9300
vn -0.1480 -0.3589 -0.9216
vn 0.1141 -0.1730 -0.9783
vn -0.2626 -0.6346 -0.7269
vn 0.3591 -0.8641 -0.3528
vn -0.0359 -0.8708 -0.4903
vn 0.6902 -0.5964 -0.4099
vn 0.5950 -0.6132 -0.5195
vn 0.6160 -0.3342 -0.7133
vn 0.6272 -0.3092 -0.7148
vn 0.6335 -0.5846 -0.5068
vn -0.0192 -0.8488 -0.5284
vn -0.2158 -0.6412 -0.7364
vn 0.3286 -0.8383 -0.4350
vn 0.4157 -0.1644 -0.8945
vn -0.0694 0.7722 0.6316
vn -0.3289 0.7658 0.5527
vn -0.3595 0.9290 0.0883
vn 0.1842 0.9441 0.2733
vn -0.1862 -0.2950 -0.9372
vn 0.1233 -0.1253 -0.9844
vn -0.0681 -0.8913 -0.4483
vn -0.3119 -0.6214 -0.7187
vn 0.3705 -0.8521 -0.3696
vn 0.4286 -0.1406 -0.8925
vn -0.3939 0.2333 0.8891
vn -0.5536 0.3714 0.7454
vn -0.5010 0.3985 0.7682
vn -0.3695 0.2877 0.8835
vn -0.5330 0.5938 0.6027
vn -0.4906 0.5814 0.6490
vn -0.3220 0.7308 0.6019
vn -0.0973 0.7380 0.6678
vn 0.0788 0.6148 0.7848
vn 0.0274 0.6000 0.7995
vn 0.0376 0.3991 0.9162
vn -0.0136 0.4182 0.9082
vn -0.1550 0.2465 0.9567
vn -0.1757 0.2962 0.9388
vn 0.0160 -0.1937 0.9809
vn 0.4266 0.1586 0.8904
vn 0.7558 -0.1602 0.6349
vn 0.1879 -0.6457 0.7401
vn -0.8716 0.0691 0.4852
vn -0.8080 0.5627 0.1746
vn 0.4990 0.6210 0.6044
vn -0.5189 -0.2400 0.8205
vn -0.2535 0.5212 0.8149
vn 0.4028 0.8913 -0.2084
vn 0.8449 0.4773 0.2415
vn -0.8697 0.3545 -0.3436
vn -0.3080 0.8384 -0.4497
vn -0.5237 -0.6932 0.4952
vn -0.9595 -0.2777 0.0462
vn 0.4440 -0.0000 -0.8960
vn 0.8960 -0.0000 0.4440
vn -0.8960 -0.0000 -0.4440
vn -0.4440 -0.0000 0.8960
vn -0.0040 -1.0000 0.0080
vn -0.0079 -0.9998 0.0159
vn -0.0079 0.9998 0.0159
vn -0.0040 1.0000 0.0080
vn 0.8880 -0.0000 0.4598
vn 0.8920 -0.0000 0.4520
vn -0.9038 -0.0000 -0.4280
vn -0.9000 -0.0000 -0.4360
vn 0.7071 -0.0000 -0.7071
vn 0.7071 -0.0000 0.7071
vn -0.7071 -0.0000 0.7071
vn -0.7071 -0.0000 -0.7071
vt 0.125000 0.187500
vt 0.125000 0.308594
vt 0.535156 0.308594
vt 0.535156 0.187500
vt 0.136719 0.437500
vt 0.527344 0.437500
vt 0.527344 0.046875
vt 0.136719 0.046875
vt 0.136719 0.312500
vt 0.535156 0.312500
vt 0.535156 0.351562
vt 0.136719 0.351562
vt 0.132812 0.167969
vt 0.132812 0.191406
vt 0.515625 0.191406
vt 0.515625 0.167969
vt 0.132812 0.117188
vt 0.515625 0.117188
vt 0.535156 0.386719
vt 0.136719 0.386719
vt 0.531250 0.667969
vt 0.136719 0.667969
vt 0.531250 0.437500
vt 0.000000 0.050781
vt 0.000000 0.449219
vt 0.101562 0.449219
vt 0.101562 0.050781
vt 0.007812 0.050781
vt 0.007812 0.449219
vt 0.089844 0.449219
vt 0.089844 0.050781
vt 0.082031 0.050781
vt 0.082031 0.449219
vt 0.113281 0.050781
vt 0.113281 0.449219
vt 0.117188 0.050781
vt 0.035156 0.050781
vt 0.035156 0.449219
vt 0.117188 0.449219
vt 0.011719 0.050781
vt 0.011719 0.449219
vt 0.125000 0.050781
vt 0.023438 0.050781
vt 0.023438 0.449219
vt 0.125000 0.449219
vt 0.042969 0.050781
vt 0.042969 0.449219
vt 0.953125 0.007812
vt 0.968750 0.261719
vt 0.996094 0.261719
vt 0.996094 0.007812
vt 0.992188 0.007812
vt 0.980469 0.261719
vt 0.941406 0.261719
vt 0.910156 0.261719
vt 0.917969 0.007812
vt 0.976562 0.261719
vt 0.933594 0.261719
vt 0.902344 0.261719
vt 0.972656 0.281250
vt 0.933594 0.269531
vt 0.925781 0.261719
vt 0.957031 0.335938
vt 0.917969 0.328125
vt 0.906250 0.371094
vt 0.945312 0.382812
vt 0.960938 0.304688
vt 0.988281 0.328125
vt 0.960938 0.328125
vt 0.933594 0.304688
vt 0.898438 0.281250
vt 0.906250 0.281250
vt 0.933594 0.281250
vt 0.808594 0.339844
vt 0.792969 0.343750
vt 0.785156 0.187500
vt 0.828125 0.187500
vt 0.914062 0.304688
vt 0.937500 0.335938
vt 0.957031 0.300781
vt 0.917969 0.285156
vt 0.925781 0.363281
vt 0.898438 0.328125
vt 0.945312 0.371094
vt 0.898438 0.230469
vt 0.933594 0.207031
vt 0.917969 0.195312
vt 0.890625 0.210938
vt 0.890625 0.300781
vt 0.988281 0.261719
vt 0.957031 0.285156
vt 0.945312 0.242188
vt 0.976562 0.222656
vt 0.781250 0.183594
vt 0.828125 0.183594
vt 0.843750 0.125000
vt 0.769531 0.125000
vt 0.804688 0.335938
vt 0.785156 0.335938
vt 0.804688 0.324219
vt 0.820312 0.328125
vt 0.828125 0.175781
vt 0.785156 0.175781
vt 0.804688 0.347656
vt 0.824219 0.347656
vt 0.828125 0.191406
vt 0.781250 0.191406
vt 0.800781 0.339844
vt 0.781250 0.339844
vt 0.781250 0.187500
vt 0.824219 0.187500
vt 0.816406 0.332031
vt 0.796875 0.332031
vt 0.789062 0.183594
vt 0.832031 0.183594
vt 0.792969 0.335938
vt 0.812500 0.335938
vt 0.789062 0.343750
vt 0.808594 0.343750
vt 0.820312 0.191406
vt 0.777344 0.191406
vt 0.769531 0.128906
vt 0.843750 0.128906
vt 0.878906 0.042969
vt 0.742188 0.042969
vt 0.839844 0.128906
vt 0.765625 0.128906
vt 0.773438 0.125000
vt 0.843750 0.117188
vt 0.769531 0.117188
vt 0.777344 0.121094
vt 0.847656 0.121094
vt 0.894531 0.007812
vt 0.738281 0.007812
vt 0.746094 0.042969
vt 0.750000 0.050781
vt 0.882812 0.050781
vt 0.882812 0.046875
vt 0.746094 0.046875
vt 0.878906 0.046875
vt 0.742188 0.046875
vt 0.742188 0.039062
vt 0.875000 0.039062
vt 0.750000 0.046875
vt 0.605469 0.265625
vt 0.707031 0.265625
vt 0.679688 0.175781
vt 0.640625 0.175781
vt 0.882812 0.007812
vt 0.722656 0.007812
vt 0.734375 0.015625
vt 0.894531 0.015625
vt 0.730469 0.015625
vt 0.886719 0.015625
vt 0.886719 0.007812
vt 0.726562 0.007812
vt 0.734375 0.019531
vt 0.890625 0.019531
vt 0.605469 0.261719
vt 0.710938 0.261719
vt 0.734375 0.332031
vt 0.574219 0.332031
vt 0.609375 0.261719
vt 0.714844 0.261719
vt 0.734375 0.328125
vt 0.578125 0.328125
vt 0.582031 0.328125
vt 0.742188 0.328125
vt 0.714844 0.265625
vt 0.609375 0.265625
vt 0.710938 0.265625
vt 0.730469 0.332031
vt 0.718750 0.265625
vt 0.613281 0.265625
vt 0.582031 0.335938
vt 0.742188 0.335938
vt 0.738281 0.332031
vt 0.578125 0.332031
vt 0.648438 0.167969
vt 0.683594 0.167969
vt 0.667969 0.011719
vt 0.652344 0.011719
vt 0.648438 0.175781
vt 0.683594 0.175781
vt 0.675781 0.175781
vt 0.644531 0.171875
vt 0.683594 0.171875
vt 0.644531 0.164062
vt 0.679688 0.164062
vt 0.718750 0.140625
vt 0.742188 0.140625
vt 0.753906 0.152344
vt 0.753906 0.175781
vt 0.742188 0.187500
vt 0.718750 0.187500
vt 0.707031 0.175781
vt 0.707031 0.152344
vt 0.683594 0.019531
vt 0.667969 0.019531
vt 0.671875 0.023438
vt 0.656250 0.023438
vt 0.664062 0.019531
vt 0.679688 0.019531
vt 0.664062 0.011719
vt 0.679688 0.011719
vt 0.671875 0.015625
vt 0.656250 0.015625
vt 0.675781 0.023438
vt 0.660156 0.023438
vt 0.554688 0.367188
vt 0.554688 0.445312
vt 0.796875 0.445312
vt 0.796875 0.367188
vt 0.562500 0.367188
vt 0.562500 0.441406
vt 0.773438 0.441406
vt 0.773438 0.367188
vt 0.792969 0.367188
vt 0.726562 0.445312
vt 0.726562 0.367188
vt 0.800781 0.367188
vt 0.800781 0.445312
vt 0.558594 0.445312
vt 0.558594 0.367188
vt 0.726562 0.937500
vt 0.980469 0.937500
vt 0.980469 0.687500
vt 0.726562 0.687500
vt 0.835938 0.574219
vt 0.835938 0.511719
vt 0.777344 0.511719
vt 0.777344 0.574219
vt 0.703811 0.801302
vt 0.621091 0.842291
vt 0.580101 0.759571
vt 0.662821 0.718581
vt 0.625000 0.433594
vt 0.718750 0.433594
vt 0.718750 0.585938
vt 0.625000 0.585938
vt 0.761719 0.433594
vt 0.667969 0.433594
vt 0.667969 0.585938
vt 0.761719 0.585938
vt 0.703811 0.424784
vt 0.621091 0.424784
vt 0.621091 0.559982
vt 0.703811 0.559982
vt 0.667969 0.625000
vt 0.667969 0.613281
vt 0.656250 0.613281
vt 0.656250 0.625000
vt 0.988281 0.664062
vt 0.988281 0.613281
vt 0.988281 0.609375
vt 0.988281 0.660156
vt 0.699219 0.625000
vt 0.699219 0.613281
vt 0.695312 0.613281
vt 0.695312 0.625000
vt 0.578125 0.722656
vt 0.558594 0.722656
vt 0.558594 0.703125
vt 0.578125 0.703125
vt 0.687500 0.625000
vt 0.687500 0.613281
vt 0.531250 0.976562
vt 0.800781 0.976562
vt 0.800781 0.953125
vt 0.531250 0.953125
vt 0.261719 0.976562
vt 0.261719 0.953125
vt 0.269531 0.937500
vt 0.312500 0.832031
vt 0.269531 0.726562
vt 0.164062 0.683594
vt 0.058594 0.726562
vt 0.015625 0.832031
vt 0.058594 0.937500
vt 0.164062 0.980469
s 1
usemtl Grandmaphone
f 9/1/1 2/2/1 4/3/1 10/4/1
f 10/1/2 4/2/2 8/3/2 11/4/2
f 11/4/3 8/3/3 6/2/3 12/1/3
f 12/4/4 6/3/4 2/2/4 9/1/4
f 3/5/5 7/6/5 5/7/5 1/8/5
f 8/9/5 4/10/5 18/11/6 19/12/7
f 15/13/8 12/14/9 9/15/10 16/16/11
f 14/13/12 11/14/13 12/15/9 15/16/8
f 13/13/14 10/14/15 11/15/13 14/16/12
f 16/13/11 9/14/10 10/15/15 13/16/14
f 1/17/16 16/13/11 13/16/14 3/18/16
f 3/17/17 13/13/14 14/16/12 7/18/17
f 7/18/18 14/16/12 15/13/8 5/17/18
f 5/18/19 15/16/8 16/13/11 1/17/19
f 20/12/20 19/11/7 23/19/21 24/20/21
f 6/9/5 8/10/5 19/11/7 20/12/20
f 4/9/5 2/10/5 17/11/22 18/12/6
f 2/9/5 6/10/5 20/11/20 17/12/22
f 23/21/23 22/22/23 21/5/23 24/23/23
f 18/11/6 17/12/22 21/20/24 22/19/24
f 17/12/22 20/11/20 24/19/25 21/20/25
f 19/11/7 18/12/6 22/20/26 23/19/26
f 25/24/1 26/25/1 28/26/1 27/27/1
f 27/28/27 28/29/27 32/30/28 31/31/28
f 31/32/28 32/33/28 30/25/29 29/24/29
f 29/34/4 30/35/4 26/29/4 25/28/4
f 33/24/3 35/27/3 36/26/3 34/25/3
f 35/36/30 39/37/31 40/38/31 36/39/30
f 39/32/31 37/24/32 38/25/32 40/33/31
f 37/40/4 33/36/4 34/39/4 38/41/4
f 41/42/1 43/43/1 44/44/1 42/45/1
f 43/28/33 47/31/34 48/30/34 44/29/33
f 47/46/34 45/42/35 46/45/35 48/47/34
f 45/34/2 41/28/2 42/29/2 46/35/2
f 49/42/3 50/45/3 52/44/3 51/43/3
f 51/36/36 52/39/36 56/38/37 55/37/37
f 55/46/37 56/47/37 54/45/38 53/42/38
f 53/40/2 54/41/2 50/39/2 49/36/2
f 57/48/39 58/49/40 60/50/41 59/51/42
f 59/52/42 60/53/41 62/54/43 61/48/44
f 61/48/44 62/54/43 64/55/45 63/56/46
f 63/51/46 64/57/45 66/58/47 65/48/48
f 65/48/48 66/58/47 68/59/49 67/56/50
f 67/56/50 68/58/49 70/49/51 69/48/52
f 66/58/47 64/57/45 76/60/53 77/61/54
f 69/48/52 70/49/51 72/50/55 71/52/56
f 71/56/56 72/62/55 58/49/40 57/48/39
f 74/63/57 80/64/58 88/65/59 82/66/60
f 72/50/55 70/49/51 79/67/61 80/68/58
f 62/54/43 60/53/41 73/69/62 75/70/63
f 68/59/49 66/58/47 77/61/54 78/71/64
f 58/49/40 72/62/55 80/64/58 74/63/57
f 60/50/41 58/49/40 74/63/57 73/68/62
f 64/55/45 62/54/43 75/70/63 76/72/53
f 70/49/51 68/58/49 78/73/64 79/67/61
f 87/74/65 86/75/66 94/76/67 95/77/68
f 79/67/61 78/73/64 86/78/66 87/79/65
f 77/61/54 76/60/53 84/80/69 85/81/70
f 75/70/63 73/69/62 81/82/71 83/83/72
f 80/68/58 79/67/61 87/79/65 88/84/59
f 78/85/64 77/86/54 85/87/70 86/88/66
f 76/72/53 75/70/63 83/83/72 84/89/69
f 73/90/62 74/91/57 82/92/60 81/93/71
f 89/94/73 90/95/74 98/96/75 97/97/76
f 85/98/70 84/99/69 92/76/77 93/77/78
f 83/100/72 81/101/71 89/102/73 91/103/79
f 88/104/59 87/105/65 95/106/68 96/107/80
f 86/108/66 85/109/70 93/110/78 94/111/67
f 84/112/69 83/113/72 91/114/79 92/115/77
f 81/116/71 82/117/60 90/95/74 89/94/73
f 82/118/60 88/119/59 96/120/80 90/121/74
f 104/122/81 103/123/82 111/124/83 112/125/84
f 90/121/74 96/120/80 104/126/81 98/127/75
f 95/77/68 94/76/67 102/122/85 103/123/82
f 93/77/78 92/76/77 100/128/86 101/96/87
f 91/103/79 89/102/73 97/129/76 99/130/88
f 96/107/80 95/106/68 103/123/82 104/122/81
f 94/111/67 93/110/78 101/97/87 102/96/85
f 92/115/77 91/114/79 99/131/88 100/132/86
f 107/125/89 105/124/90 121/133/91 123/134/92
f 102/96/85 101/97/87 109/135/93 110/124/94
f 100/132/86 99/131/88 107/136/89 108/137/95
f 97/97/76 98/96/75 106/138/96 105/139/90
f 98/127/75 104/126/81 112/140/84 106/141/96
f 103/123/82 102/122/85 110/142/94 111/143/83
f 101/96/87 100/128/86 108/144/95 109/138/93
f 99/130/88 97/129/76 105/124/90 107/125/89
f 117/145/97 116/146/98 132/147/99 133/148/100
f 112/125/84 111/124/83 127/149/101 128/150/102
f 110/124/94 109/135/93 125/151/103 126/152/104
f 108/137/95 107/136/89 123/153/92 124/154/105
f 105/139/90 106/138/96 122/133/106 121/134/91
f 106/141/96 112/140/84 128/155/102 122/156/106
f 111/143/83 110/142/94 126/134/104 127/133/101
f 109/138/93 108/144/95 124/157/105 125/158/103
f 114/159/107 113/160/108 121/161/109 122/162/110
f 113/163/108 115/164/111 123/165/112 121/166/109
f 115/160/111 116/159/98 124/167/113 123/168/112
f 116/146/98 117/145/97 125/166/114 124/165/113
f 117/169/97 118/170/115 126/166/116 125/165/114
f 118/171/115 119/145/117 127/162/118 126/172/116
f 119/173/117 120/174/119 128/175/120 127/176/118
f 120/159/119 114/160/107 122/177/110 128/178/120
f 136/179/121 135/180/122 143/181/123 144/182/124
f 115/164/111 113/163/108 129/183/125 131/184/126
f 120/174/119 119/173/117 135/180/122 136/179/121
f 118/170/115 117/169/97 133/184/100 134/183/127
f 116/159/98 115/160/111 131/185/126 132/148/99
f 113/160/108 114/159/107 130/186/128 129/187/125
f 114/160/107 120/159/119 136/188/121 130/189/128
f 119/145/117 118/171/115 134/187/127 135/186/122
f 137/190/129 138/191/129 144/192/129 143/193/129 142/194/129 141/195/129 140/196/129 139/197/129
f 134/183/127 133/184/100 141/198/130 142/199/131
f 132/148/99 131/185/126 139/200/132 140/201/133
f 129/187/125 130/186/128 138/202/134 137/203/135
f 130/189/128 136/188/121 144/204/124 138/205/134
f 135/186/122 134/187/127 142/206/131 143/207/123
f 133/148/100 132/147/99 140/208/133 141/209/130
f 131/184/126 129/183/125 137/209/135 139/208/132
f 145/210/1 146/211/1 148/212/1 147/213/1
f 147/214/2 148/215/2 152/216/2 151/217/2
f 151/218/3 152/212/3 150/219/3 149/220/3
f 149/221/4 150/222/4 146/223/4 145/224/4
f 147/225/5 151/226/5 149/227/5 145/228/5
f 152/226/23 148/225/23 146/228/23 150/227/23
f 163/229/136 164/230/136 161/231/136 162/232/136
f 159/233/23 158/234/23 157/235/23 160/236/23
f 155/237/137 156/238/137 159/239/137 160/240/137
f 154/241/138 153/242/138 157/243/138 158/244/138
f 153/237/139 155/238/139 160/239/139 157/240/139
f 156/245/136 154/246/136 158/247/136 159/248/136
f 165/249/140 168/250/140 172/251/5 169/252/5
f 161/253/141 164/254/141 168/250/140 165/249/140
f 163/254/142 162/253/142 166/249/143 167/250/143
f 164/255/144 163/256/144 167/257/145 168/258/145
f 162/253/146 161/255/146 165/259/147 166/260/147
f 171/261/139 170/262/139 169/263/139 172/264/139
f 167/250/143 166/249/143 170/252/23 171/251/23
f 168/258/145 167/257/145 171/265/137 172/266/137
f 166/260/147 165/259/147 169/266/138 170/265/138
f 173/267/2 175/268/148 176/269/148 174/270/2
f 175/268/148 177/267/3 178/270/3 176/269/148
f 177/267/3 179/271/149 180/272/149 178/270/3
f 179/268/149 181/267/4 182/270/4 180/269/149
f 181/267/4 183/271/150 184/272/150 182/270/4
f 183/271/150 185/267/1 186/270/1 184/272/150
f 176/273/5 178/274/5 180/275/5 182/276/5 184/277/5 186/278/5 188/279/5 174/280/5
f 185/267/1 187/268/151 188/269/151 186/270/1
f 187/271/151 173/267/2 174/270/2 188/272/151
f 173/280/23 187/279/23 185/278/23 183/277/23 181/276/23 179/275/23 177/274/23 175/273/23
