# Blender 3.1.0
# www.blender.org
mtllib sofa01.mtl
o sofa01
v -0.000000 0.027380 -0.400000
v 1.042329 -0.000000 -0.400000
v 0.000000 0.320000 0.560000
v 0.000000 0.027380 0.629521
v 1.042330 0.320000 0.560000
v 1.042330 -0.000000 0.650507
v 1.265462 -0.000000 0.657079
v 1.265462 0.320000 0.615804
v 1.265462 0.320000 -0.400000
v 1.265462 -0.000000 -0.400000
v -0.000000 0.320000 -0.584896
v -0.000000 0.027380 -0.640000
v 1.042329 0.320000 -0.584896
v 1.042329 -0.000000 -0.640000
v 1.265462 0.320000 -0.584896
v 1.265462 -0.000000 -0.640000
v 1.265462 0.528513 -0.400000
v 1.265462 0.528513 -0.557474
v 0.986164 0.571023 -0.347400
v 1.042330 0.571023 0.311638
v -0.000000 0.539206 -0.397320
v 0.000000 0.539206 0.192768
v 1.265462 0.528513 0.560000
v -0.000000 0.528513 -0.557473
v 1.042329 0.528513 -0.557474
v 1.196257 0.950485 -0.400000
v 1.199790 0.864667 -0.539428
v 1.027075 0.909152 -0.325328
v 1.068521 0.901098 0.560000
v -0.000000 0.880000 -0.403097
v 1.283532 0.950426 0.560000
v -0.000000 0.880000 -0.573882
v 1.042329 0.880000 -0.573883
v 1.156904 1.280000 -0.443759
v 1.156904 1.280000 -0.640000
v -0.000000 1.280000 -0.446855
v 0.884156 1.280588 -0.421686
v -0.000000 1.280000 -0.640000
v 0.884156 1.280588 -0.640000
v 0.905100 1.554205 -0.547629
v 0.905100 1.554205 -0.640000
v -0.000000 1.600000 -0.547629
v -0.000000 1.600000 -0.640000
v 1.368941 0.658737 -0.400001
v 1.432968 0.655439 0.561877
v 1.352076 0.864652 -0.400001
v 1.428477 0.867424 0.560000
v -0.000000 0.699868 -0.397320
v 0.959817 0.690856 -0.347400
v 0.997624 0.709958 0.401326
v 1.042330 0.320000 0.615804
v 0.000000 0.320000 0.607743
v 1.262823 0.527262 0.602176
v 1.019187 0.697354 0.637203
v 1.265798 0.698056 0.637203
v 1.419806 0.660432 0.637203
v 1.415597 0.859101 0.637203
v 1.279757 0.936889 0.637203
v 1.078253 0.890660 0.637203
v 0.000000 0.526651 0.643944
v 0.000000 0.571023 0.555332
v 1.050609 0.552069 0.584730
v 1.049859 0.492930 0.643679
v 1.295697 0.632280 -0.537544
v -1.042330 -0.000000 -0.400000
v -1.042329 0.320000 0.560000
v -1.042329 -0.000000 0.650508
v -1.265462 -0.000000 0.657080
v -1.265462 0.320000 0.615805
v -1.265462 0.320000 -0.400000
v -1.265462 -0.000000 -0.400000
v -1.042330 0.320000 -0.584895
v -1.042330 -0.000000 -0.640000
v -1.265462 0.320000 -0.584895
v -1.265462 -0.000000 -0.640000
v -1.265462 0.528513 -0.400000
v -1.265462 0.528513 -0.557473
v -0.986164 0.571023 -0.347399
v -1.042330 0.571023 0.311639
v -1.265462 0.528513 0.560000
v -1.042330 0.528513 -0.557473
v -1.196257 0.950485 -0.400000
v -1.199791 0.864667 -0.539427
v -1.027075 0.909152 -0.325327
v -1.068521 0.901098 0.560000
v -1.283532 0.950426 0.560000
v -1.042330 0.880000 -0.573882
v -1.156905 1.280000 -0.443758
v -1.156905 1.280000 -0.640000
v -0.884157 1.280588 -0.421686
v -0.884157 1.280588 -0.640000
v -0.905100 1.554205 -0.547629
v -0.905100 1.554205 -0.640000
v -1.368942 0.658737 -0.400000
v -1.432968 0.655439 0.561878
v -1.352076 0.864652 -0.400000
v -1.428476 0.867424 0.560001
v -0.959817 0.690856 -0.347399
v -0.997624 0.709958 0.401326
v -1.042329 0.320000 0.615805
v -1.262822 0.527262 0.602177
v -1.019187 0.697354 0.637204
v -1.265798 0.698056 0.637204
v -1.419806 0.660432 0.637204
v -1.415597 0.859101 0.637204
v -1.279757 0.936889 0.637204
v -1.078253 0.890660 0.637204
v -1.050608 0.552069 0.584730
v -1.049858 0.492930 0.643679
v -1.295698 0.632280 -0.537543
vn 0.3630 -0.1674 0.0152
vn 0.3671 -0.1576 0.0194
vn 0.3608 -0.1612 0.0623
vn 0.3596 -0.1711 0.0381
vn -0.0026 0.1011 0.3870
vn -0.0000 0.1011 0.3870
vn -0.0000 -0.4000 -0.0000
vn -0.0053 -0.4000 -0.0000
vn -0.0052 -0.4000 -0.0000
vn 0.4000 -0.0000 -0.0000
vn 0.4000 0.0004 0.0015
vn 0.3782 -0.1286 -0.0211
vn -0.0000 0.0708 -0.3937
vn -0.0000 0.0615 -0.3952
vn 0.0002 0.0608 -0.3954
vn 0.0005 0.0693 -0.3939
vn -0.0000 0.0600 -0.3955
vn -0.0000 0.0679 -0.3942
vn -0.0000 0.0168 -0.3996
vn 0.0091 0.0226 -0.3993
vn -0.0000 0.4000 0.0006
vn -0.0000 0.4000 -0.0034
vn -0.0066 0.3999 -0.0042
vn -0.0126 0.3998 0.0006
vn -0.0000 -0.0019 0.4000
vn -0.0205 -0.0019 0.3995
vn -0.0230 -0.0071 0.3993
vn -0.0000 -0.0070 0.3999
vn 0.3422 0.2057 0.0248
vn 0.0625 0.3938 0.0322
vn 0.0556 0.3897 0.0710
vn 0.3377 0.1996 0.0783
vn -0.0000 -0.0420 -0.3978
vn 0.0179 -0.0401 -0.3976
vn -0.0000 -0.0665 0.3944
vn -0.0025 -0.0665 0.3944
vn 0.0015 0.1541 0.3691
vn -0.0000 0.1577 0.3676
vn 0.0302 0.0317 -0.3976
vn 0.3968 -0.0508 -0.0000
vn -0.2589 0.3046 0.0144
vn -0.2712 0.2910 0.0418
vn 0.2468 0.3097 -0.0561
vn -0.0000 0.0273 0.3991
vn 0.0150 0.0550 0.3959
vn 0.0145 0.1165 0.3824
vn -0.0000 0.1058 0.3858
vn -0.0000 -0.0327 -0.3987
vn 0.0055 -0.0342 -0.3985
vn 0.2840 -0.0281 -0.2802
vn 0.2121 0.0672 -0.3324
vn 0.3200 0.2013 -0.1307
vn -0.3823 -0.1144 0.0271
vn -0.3830 -0.1131 0.0232
vn -0.3992 0.0059 0.0238
vn -0.3993 -0.0028 0.0236
vn 0.1316 0.3262 0.1905
vn -0.0000 0.3318 0.2234
vn -0.0000 -0.0000 -0.4000
vn 0.3599 0.1746 -0.0032
vn 0.2841 0.1715 0.2233
vn 0.0193 -0.0491 -0.3965
vn 0.1701 0.3620 -0.0000
vn -0.0000 0.4000 -0.0000
vn 0.3662 -0.1096 -0.1179
vn -0.3985 0.0094 0.0336
vn -0.2720 0.2864 0.0633
vn -0.0097 0.0439 0.3975
vn -0.0058 0.0471 0.3972
vn -0.3841 -0.1107 0.0157
vn -0.0137 -0.0609 0.3951
vn -0.0332 -0.0637 0.3935
vn -0.0162 -0.0382 0.3978
vn -0.0000 -0.0000 0.4000
vn -0.0042 -0.0372 0.3982
vn -0.0083 -0.0338 0.3985
vn -0.4000 -0.0000 -0.0000
vn 0.0017 0.3816 0.1199
vn -0.0000 0.3833 0.1142
vn 0.0746 0.0956 0.3812
vn 0.3996 -0.0157 -0.0106
vn -0.3630 -0.1674 0.0152
vn -0.3596 -0.1711 0.0381
vn -0.3608 -0.1612 0.0623
vn -0.3671 -0.1576 0.0194
vn 0.0026 0.1011 0.3870
vn 0.0052 -0.4000 -0.0000
vn 0.0053 -0.4000 -0.0000
vn -0.4000 0.0004 0.0015
vn -0.3782 -0.1286 -0.0211
vn -0.0005 0.0693 -0.3939
vn -0.0002 0.0608 -0.3954
vn -0.0091 0.0226 -0.3993
vn 0.0126 0.3998 0.0006
vn 0.0066 0.3999 -0.0042
vn 0.0230 -0.0071 0.3993
vn 0.0205 -0.0019 0.3995
vn -0.3422 0.2057 0.0248
vn -0.3377 0.1996 0.0783
vn -0.0556 0.3897 0.0710
vn -0.0625 0.3938 0.0322
vn -0.0179 -0.0401 -0.3976
vn -0.0015 0.1541 0.3691
vn 0.0025 -0.0665 0.3944
vn -0.0302 0.0317 -0.3976
vn -0.3968 -0.0508 -0.0000
vn 0.2589 0.3046 0.0144
vn -0.2468 0.3097 -0.0561
vn 0.2712 0.2910 0.0418
vn -0.0145 0.1165 0.3824
vn -0.0150 0.0550 0.3959
vn -0.0055 -0.0342 -0.3985
vn -0.2840 -0.0281 -0.2802
vn -0.2121 0.0672 -0.3324
vn -0.3200 0.2013 -0.1307
vn 0.3823 -0.1144 0.0271
vn 0.3993 -0.0028 0.0236
vn 0.3992 0.0059 0.0238
vn 0.3830 -0.1131 0.0232
vn -0.1316 0.3262 0.1905
vn -0.2841 0.1715 0.2233
vn -0.3599 0.1746 -0.0032
vn -0.0193 -0.0491 -0.3965
vn -0.1701 0.3620 -0.0000
vn -0.3662 -0.1096 -0.1179
vn 0.2720 0.2864 0.0633
vn 0.3985 0.0094 0.0336
vn 0.0097 0.0439 0.3975
vn 0.0058 0.0471 0.3972
vn 0.3841 -0.1107 0.0157
vn 0.0137 -0.0609 0.3951
vn 0.0162 -0.0382 0.3978
vn 0.0332 -0.0637 0.3935
vn 0.0083 -0.0338 0.3985
vn 0.0042 -0.0372 0.3982
vn -0.0017 0.3816 0.1199
vn -0.0746 0.0956 0.3812
vn -0.3996 -0.0157 -0.0106
vt 0.265625 0.908203
vt 0.048828 0.908203
vt 0.970703 0.228516
vt 0.892578 0.228516
vt 0.265625 0.539062
vt 0.970703 0.031250
vt 0.048828 0.533203
vt 0.949219 0.451172
vt 0.892578 0.003906
vt 0.990789 0.993929
vt 0.001953 0.531250
vt 0.972656 0.550781
vt 0.902439 0.982533
vt 0.835938 0.585938
vt 0.901718 0.704332
vt 0.990814 0.702076
vt 0.001953 0.908203
vt 0.255859 0.263672
vt 0.310547 0.263672
vt 0.265625 0.992188
vt 0.255859 0.074219
vt 0.316406 0.074219
vt 0.048828 0.992188
vt 0.255859 0.033203
vt 0.899365 0.651928
vt 0.316406 0.033203
vt 0.989309 0.634377
vt 0.001953 0.992188
vt 0.844438 0.707910
vt 0.218750 0.031250
vt 0.839369 0.662753
vt 0.656250 0.388672
vt 0.560547 0.455078
vt 0.562039 0.679920
vt 0.533651 0.859081
vt 0.703125 0.404297
vt 0.777344 0.396484
vt 0.642578 0.208984
vt 0.580078 0.265625
vt 0.751953 0.207031
vt 0.738281 0.636719
vt 0.845071 0.967134
vt 0.216797 0.263672
vt 0.218750 0.072266
vt 0.470703 0.490234
vt 0.707094 0.690106
vt 0.464844 0.521484
vt 0.156250 0.042969
vt 0.742404 0.653939
vt 0.656210 0.700665
vt 0.494141 0.458984
vt 0.618183 0.940750
vt 0.570312 0.513672
vt 0.515625 0.261719
vt 0.677468 0.952807
vt 0.533203 0.589844
vt 0.152344 0.263672
vt 0.152344 0.072266
vt 0.417969 0.480469
vt 0.078125 0.052734
vt 0.392578 0.482422
vt 0.439453 0.257812
vt 0.429688 0.421875
vt 0.078125 0.263672
vt 0.078125 0.101562
vt 0.378906 0.421875
vt 0.029297 0.099609
vt 0.363281 0.417969
vt 0.378906 0.255859
vt 0.019531 0.263672
vt 0.359375 0.253906
vt 0.801176 0.713838
vt 0.785487 0.967038
vt 0.648438 0.687500
vt 0.751051 0.708936
vt 0.725843 0.961502
vt 0.566406 0.654297
vt 0.548828 0.263672
vt 0.537109 0.447266
vt 0.595364 0.684578
vt 0.570126 0.888691
vt 0.644531 0.439453
vt 0.994141 0.003906
vt 0.804688 0.482422
vt 0.875000 0.400391
vt 0.875000 0.205078
vt 0.994141 0.228516
vt 0.732422 0.617188
vt 0.650391 0.517578
vt 0.646484 0.597656
vt 0.636719 0.648438
vt 0.585938 0.638672
vt 0.576172 0.589844
vt 0.589844 0.535156
vt 0.835938 0.205078
vt 0.818359 0.205078
vt 0.707031 0.515625
vt 0.828125 0.396484
vt 0.843750 0.390625
vt 0.810361 0.674241
vt 0.482422 0.908203
vt 0.970703 0.396484
vt 0.482422 0.533203
vt 0.949219 0.451172
vt 0.892578 0.423828
vt 0.990838 0.993929
vt 0.529297 0.531250
vt 0.972656 0.550781
vt 0.902489 0.982533
vt 0.835938 0.585938
vt 0.901718 0.704332
vt 0.990814 0.702076
vt 0.529297 0.908203
vt 0.255859 0.455078
vt 0.316406 0.455078
vt 0.482422 0.992188
vt 0.255859 0.496094
vt 0.899415 0.651928
vt 0.316406 0.496094
vt 0.989309 0.634377
vt 0.529297 0.992188
vt 0.844438 0.707910
vt 0.218750 0.496094
vt 0.839418 0.662753
vt 0.650391 0.027344
vt 0.580078 0.076172
vt 0.562088 0.679919
vt 0.533700 0.859081
vt 0.703125 0.404297
vt 0.771484 0.015625
vt 0.738281 0.636719
vt 0.845121 0.967134
vt 0.218750 0.455078
vt 0.494141 0.031250
vt 0.707143 0.690106
vt 0.492188 0.000000
vt 0.156250 0.484375
vt 0.742454 0.653939
vt 0.656259 0.700665
vt 0.515625 0.064453
vt 0.618232 0.940750
vt 0.570312 0.513672
vt 0.677517 0.952808
vt 0.533203 0.589844
vt 0.152344 0.455078
vt 0.443359 0.035156
vt 0.078125 0.476562
vt 0.416016 0.031250
vt 0.447266 0.093750
vt 0.078125 0.425781
vt 0.394531 0.089844
vt 0.029297 0.429688
vt 0.378906 0.091797
vt 0.801225 0.713838
vt 0.785536 0.967038
vt 0.648438 0.687500
vt 0.751101 0.708936
vt 0.725892 0.961502
vt 0.566406 0.654297
vt 0.556641 0.080078
vt 0.595413 0.684578
vt 0.570175 0.888691
vt 0.644531 0.439453
vt 0.994141 0.423828
vt 0.804688 0.482422
vt 0.867188 0.007812
vt 0.732422 0.617188
vt 0.650391 0.517578
vt 0.646484 0.597656
vt 0.636719 0.648438
vt 0.585938 0.638672
vt 0.576172 0.589844
vt 0.589844 0.535156
vt 0.707031 0.515625
vt 0.822266 0.013672
vt 0.835938 0.019531
vt 0.810410 0.674241
s 1
usemtl sofa01
f 23/41/1 45/74/2 56/91/3 53/88/4
f 6/9/5 5/6/5 3/3/6 4/4/6
f 4/5/7 1/1/7 2/2/8 6/7/9
f 10/16/10 9/15/10 8/13/11 7/10/10
f 6/7/9 2/2/8 10/17/7 7/11/7
f 8/13/11 9/15/10 17/29/12 23/42/1
f 8/14/11 23/41/1 53/88/4
f 12/19/13 11/18/14 13/21/15 14/22/16
f 14/22/16 13/21/15 15/24/17 16/26/18
f 9/15/10 10/16/10 16/27/10 15/25/10
f 2/2/8 1/1/7 12/20/7 14/23/8
f 10/17/7 2/2/8 14/23/8 16/28/7
f 13/21/15 11/18/14 24/43/19 25/44/20
f 21/38/21 22/40/22 20/37/23 19/32/24
f 21/39/25 19/33/26 49/79/27 48/78/28
f 47/77/29 31/56/30 58/93/31 57/92/32
f 25/44/20 24/43/19 32/57/33 33/58/34
f 52/86/35 51/85/36 63/99/37 60/95/38
f 15/24/17 13/21/15 25/44/20 18/30/39
f 9/15/10 15/25/10 18/31/40 17/29/12
f 28/50/41 29/52/42 31/55/30 26/46/43
f 30/54/44 28/51/45 37/63/46 36/62/47
f 33/58/34 32/57/33 38/64/48 39/65/49
f 17/29/12 18/31/40 64/100/50
f 18/30/39 25/44/20 33/58/34 27/48/51
f 26/46/43 31/55/30 47/76/29 46/75/52
f 19/34/53 20/35/54 50/81/55 49/80/56
f 36/62/47 37/63/46 40/66/57 42/69/58
f 39/65/49 38/64/48 43/70/59 41/67/59
f 26/45/43 27/47/51 35/61/60 34/59/61
f 27/48/51 33/58/34 39/65/49 35/60/62
f 42/69/58 40/66/57 41/68/63 43/71/64
f 35/60/62 39/65/49 41/67/59
f 37/63/46 34/59/61 40/66/57
f 34/59/61 35/61/60 41/68/63 40/66/57
f 45/73/2 44/72/65 46/75/52 47/76/29
f 17/29/12 64/100/50 44/72/65
f 23/42/1 17/29/12 44/72/65 45/73/2
f 29/53/42 50/82/55 54/89/66 59/94/67
f 48/78/28 49/79/27 28/51/45 30/54/44
f 49/80/56 50/81/55 29/52/42 28/50/41
f 45/74/2 47/77/29 57/92/32 56/91/3
f 51/84/68 6/8/69 7/12/69 8/14/68
f 50/82/55 20/36/54 62/97/70 54/89/66
f 54/89/71 62/97/72 53/88/73
f 58/93/74 55/90/75 56/91/76 57/92/74
f 54/89/71 53/88/73 55/90/75
f 56/91/76 55/90/75 53/88/73
f 55/90/75 58/93/74 59/94/74 54/89/71
f 3/3/7 5/6/7 51/83/7 52/87/7
f 31/56/30 29/53/42 59/94/67 58/93/31
f 5/6/77 6/9/77 51/83/77
f 51/84/68 8/14/68 53/88/73 62/97/72
f 62/98/78 61/96/79 60/95/38 63/99/37
f 20/37/23 22/40/22 61/96/79 62/98/78
f 26/45/80 34/59/61 37/63/46 28/51/45
f 46/75/52 27/49/51 26/46/43
f 64/100/50 18/31/39 27/49/51
f 44/72/65 64/100/50 27/49/51 46/75/52
f 51/85/81 62/98/81 63/99/81
f 80/131/82 101/167/83 104/170/84 95/156/85
f 67/105/86 4/4/6 3/3/6 66/102/86
f 4/5/7 67/103/87 65/101/88 1/1/7
f 71/112/77 68/106/77 69/109/89 70/111/77
f 67/103/87 68/107/7 71/113/7 65/101/88
f 69/109/89 80/132/82 76/122/90 70/111/77
f 69/110/89 101/167/83 80/131/82
f 12/19/13 73/115/91 72/114/92 11/18/14
f 73/115/91 75/119/18 74/117/17 72/114/92
f 70/111/77 74/118/77 75/120/77 71/112/77
f 65/101/88 73/116/88 12/20/7 1/1/7
f 71/113/7 75/121/7 73/116/88 65/101/88
f 72/114/92 81/133/93 24/43/19 11/18/14
f 21/38/21 78/125/94 79/130/95 22/40/22
f 21/39/25 48/78/28 98/160/96 78/126/97
f 97/159/98 105/171/99 106/172/100 86/144/101
f 81/133/93 87/145/102 32/57/33 24/43/19
f 52/86/35 60/95/38 109/176/103 100/166/104
f 74/117/17 77/123/105 81/133/93 72/114/92
f 70/111/77 76/122/90 77/124/106 74/118/77
f 84/139/107 82/135/108 86/143/101 85/141/109
f 30/54/44 36/62/47 90/149/110 84/140/111
f 87/145/102 91/150/112 38/64/48 32/57/33
f 76/122/90 110/177/113 77/124/106
f 77/123/105 83/137/114 87/145/102 81/133/93
f 82/135/108 96/157/115 97/158/98 86/143/101
f 78/127/116 98/161/117 99/162/118 79/128/119
f 36/62/47 42/69/58 92/151/120 90/149/110
f 91/150/112 93/152/59 43/70/59 38/64/48
f 82/134/108 88/146/121 89/148/122 83/136/114
f 83/137/114 89/147/123 91/150/112 87/145/102
f 42/69/58 43/71/64 93/153/124 92/151/120
f 89/147/123 93/152/59 91/150/112
f 90/149/110 92/151/120 88/146/121
f 88/146/121 92/151/120 93/153/124 89/148/122
f 95/155/85 97/158/98 96/157/115 94/154/125
f 76/122/90 94/154/125 110/177/113
f 80/132/82 95/155/85 94/154/125 76/122/90
f 85/142/109 107/173/126 102/168/127 99/163/118
f 48/78/28 30/54/44 84/140/111 98/160/96
f 98/161/117 84/139/107 85/141/109 99/162/118
f 95/156/85 104/170/84 105/171/99 97/159/98
f 100/165/128 69/110/128 68/108/129 67/104/129
f 99/163/118 102/168/127 108/174/130 79/129/119
f 102/168/131 101/167/132 108/174/133
f 106/172/74 105/171/74 104/170/134 103/169/135
f 102/168/131 103/169/135 101/167/132
f 104/170/134 101/167/132 103/169/135
f 103/169/135 102/168/131 107/173/74 106/172/74
f 3/3/7 52/87/7 100/164/7 66/102/7
f 86/144/101 106/172/100 107/173/126 85/142/109
f 66/102/10 100/164/10 67/105/10
f 100/165/128 108/174/133 101/167/132 69/110/128
f 108/175/136 109/176/103 60/95/38 61/96/79
f 79/130/95 108/175/136 61/96/79 22/40/22
f 82/134/137 84/140/111 90/149/110 88/146/121
f 96/157/115 82/135/108 83/138/114
f 110/177/113 83/138/114 77/124/105
f 94/154/125 96/157/115 83/138/114 110/177/113
f 100/166/138 109/176/138 108/175/138
